<?xml version="1.0" encoding="utf-8" standalone="no"?>
<!DOCTYPE svg PUBLIC "-//W3C//DTD SVG 1.1//EN"
  "http://www.w3.org/Graphics/SVG/1.1/DTD/svg11.dtd">
<svg xmlns:xlink="http://www.w3.org/1999/xlink" width="607.73875pt" height="395.209844pt" viewBox="0 0 607.73875 395.209844" xmlns="http://www.w3.org/2000/svg" version="1.1">
 <metadata>
  <rdf:RDF xmlns:dc="http://purl.org/dc/elements/1.1/" xmlns:cc="http://creativecommons.org/ns#" xmlns:rdf="http://www.w3.org/1999/02/22-rdf-syntax-ns#">
   <cc:Work>
    <dc:type rdf:resource="http://purl.org/dc/dcmitype/StillImage"/>
    <dc:date>2025-11-06T17:58:19.827338</dc:date>
    <dc:format>image/svg+xml</dc:format>
    <dc:creator>
     <cc:Agent>
      <dc:title>Matplotlib v3.9.4, https://matplotlib.org/</dc:title>
     </cc:Agent>
    </dc:creator>
   </cc:Work>
  </rdf:RDF>
 </metadata>
 <defs>
  <style type="text/css">*{stroke-linejoin: round; stroke-linecap: butt}</style>
 </defs>
 <g id="figure_1">
  <g id="patch_1">
   <path d="M 0 395.209844 
L 607.73875 395.209844 
L 607.73875 0 
L 0 0 
z
" style="fill: #ffffff"/>
  </g>
  <g id="axes_1">
   <g id="patch_2">
    <path d="M 42.53875 355.717969 
L 600.53875 355.717969 
L 600.53875 23.077969 
L 42.53875 23.077969 
z
" style="fill: #ffffff"/>
   </g>
   <g id="PolyCollection_1">
    <defs>
     <path id="mc7caa661e1" d="M 67.902386 -252.669031 
L 67.902386 -194.864631 
L 69.173747 -194.864631 
L 70.445107 -194.864631 
L 71.716467 -194.864631 
L 72.987827 -194.864631 
L 74.259187 -194.864631 
L 75.530548 -194.864631 
L 76.801908 -194.864631 
L 78.073268 -194.077613 
L 79.344628 -177.074015 
L 80.615989 -155.681776 
L 81.887349 -152.298178 
L 83.158709 -150.093166 
L 84.430069 -166.777253 
L 85.701429 -168.369228 
L 86.97279 -175.760788 
L 88.24415 -177.194818 
L 89.51551 -200.639087 
L 90.78687 -228.497777 
L 92.058231 -223.8336 
L 93.329591 -205.587981 
L 94.600951 -202.97545 
L 95.872311 -197.820354 
L 97.143671 -186.494003 
L 98.415032 -189.19986 
L 99.686392 -177.210463 
L 100.957752 -173.929057 
L 102.229112 -195.970746 
L 103.500472 -195.217338 
L 104.771833 -182.432393 
L 106.043193 -187.924053 
L 107.314553 -193.876721 
L 108.585913 -196.069794 
L 109.857274 -214.089885 
L 111.128634 -213.34702 
L 112.399994 -203.668765 
L 113.671354 -185.682097 
L 114.942714 -177.794729 
L 116.214075 -183.173984 
L 117.485435 -190.731584 
L 118.756795 -188.5701 
L 120.028155 -207.611569 
L 121.299516 -201.149408 
L 122.570876 -204.759546 
L 123.842236 -205.460653 
L 125.113596 -196.964263 
L 126.384956 -179.024293 
L 127.656317 -184.789217 
L 128.927677 -182.127703 
L 130.199037 -193.85362 
L 131.470397 -199.641424 
L 132.741758 -200.442658 
L 134.013118 -206.543221 
L 135.284478 -210.672212 
L 136.555838 -212.081331 
L 137.827198 -212.029267 
L 139.098559 -195.064554 
L 140.369919 -195.291774 
L 141.641279 -195.332411 
L 142.912639 -193.405917 
L 144.183999 -185.81052 
L 145.45536 -177.697237 
L 146.72672 -166.114947 
L 147.99808 -186.999478 
L 149.26944 -194.020173 
L 150.540801 -199.448692 
L 151.812161 -195.656983 
L 153.083521 -200.107989 
L 154.354881 -184.555476 
L 155.626241 -189.550406 
L 156.897602 -211.288164 
L 158.168962 -201.981975 
L 159.440322 -182.537959 
L 160.711682 -161.982574 
L 161.983043 -149.222337 
L 163.254403 -150.958082 
L 164.525763 -160.434118 
L 165.797123 -168.894896 
L 167.068483 -151.618759 
L 168.339844 -148.706237 
L 169.611204 -164.480402 
L 170.882564 -184.99995 
L 172.153924 -191.158114 
L 173.425285 -168.599296 
L 174.696645 -151.713163 
L 175.968005 -158.780065 
L 177.239365 -178.178379 
L 178.510725 -173.843922 
L 179.782086 -182.518261 
L 181.053446 -195.444022 
L 182.324806 -197.156282 
L 183.596166 -207.826858 
L 184.867526 -215.09808 
L 186.138887 -217.365537 
L 187.410247 -212.084694 
L 188.681607 -214.119382 
L 189.952967 -208.455891 
L 191.224328 -195.338631 
L 192.495688 -206.674531 
L 193.767048 -220.094065 
L 195.038408 -228.76933 
L 196.309768 -233.774827 
L 197.581129 -241.823011 
L 198.852489 -246.452657 
L 200.123849 -232.963084 
L 201.395209 -230.547487 
L 202.66657 -231.349957 
L 203.93793 -236.288936 
L 205.20929 -249.657156 
L 206.48065 -243.088796 
L 207.75201 -233.563432 
L 209.023371 -239.048779 
L 210.294731 -240.662085 
L 211.566091 -233.441376 
L 212.837451 -230.729379 
L 214.108812 -221.522303 
L 215.380172 -215.856407 
L 216.651532 -215.892675 
L 217.922892 -217.764294 
L 219.194252 -215.873189 
L 220.465613 -210.475445 
L 221.736973 -209.868242 
L 223.008333 -190.343465 
L 224.279693 -173.975752 
L 225.551053 -172.488369 
L 226.822414 -164.943959 
L 228.093774 -174.758842 
L 229.365134 -178.861444 
L 230.636494 -208.91257 
L 231.907855 -227.342264 
L 233.179215 -245.451806 
L 234.450575 -219.419107 
L 235.721935 -217.590091 
L 236.993295 -233.250619 
L 238.264656 -256.770157 
L 239.536016 -253.301406 
L 240.807376 -235.773714 
L 242.078736 -224.086501 
L 243.350097 -224.963132 
L 244.621457 -222.053946 
L 245.892817 -239.675726 
L 247.164177 -243.540414 
L 248.435537 -236.967967 
L 249.706898 -228.393775 
L 250.978258 -234.658889 
L 252.249618 -233.02287 
L 253.520978 -240.13009 
L 254.792339 -227.825066 
L 256.063699 -217.927718 
L 257.335059 -225.827997 
L 258.606419 -225.922455 
L 259.877779 -246.289414 
L 261.14914 -244.685035 
L 262.4205 -252.298685 
L 263.69186 -235.373533 
L 264.96322 -233.632477 
L 266.23458 -235.127676 
L 267.505941 -241.678895 
L 268.777301 -245.549294 
L 270.048661 -245.767209 
L 271.320021 -236.985796 
L 272.591382 -247.160957 
L 273.862742 -250.425653 
L 275.134102 -258.746724 
L 276.405462 -258.778523 
L 277.676822 -254.261006 
L 278.948183 -241.973938 
L 280.219543 -231.026228 
L 281.490903 -224.389299 
L 282.762263 -222.078291 
L 284.033624 -216.008385 
L 285.304984 -215.099994 
L 286.576344 -217.428007 
L 287.847704 -220.651362 
L 289.119064 -218.010803 
L 290.390425 -219.822679 
L 291.661785 -219.423459 
L 292.933145 -225.027232 
L 294.204505 -235.615092 
L 295.475866 -244.246184 
L 296.747226 -231.969294 
L 298.018586 -214.927442 
L 299.289946 -223.921132 
L 300.561306 -215.862087 
L 301.832667 -217.356022 
L 303.104027 -221.239275 
L 304.375387 -209.659819 
L 305.646747 -194.706366 
L 306.918107 -192.575924 
L 308.189468 -204.059186 
L 309.460828 -200.019776 
L 310.732188 -204.62513 
L 312.003548 -208.096049 
L 313.274909 -201.608469 
L 314.546269 -211.861683 
L 315.817629 -217.4945 
L 317.088989 -224.780571 
L 318.360349 -219.277784 
L 319.63171 -225.650373 
L 320.90307 -231.846512 
L 322.17443 -217.850223 
L 323.44579 -222.641298 
L 324.717151 -209.782214 
L 325.988511 -213.397429 
L 327.259871 -220.5711 
L 328.531231 -227.131312 
L 329.802591 -224.41578 
L 331.073952 -223.357376 
L 332.345312 -223.504965 
L 333.616672 -211.067929 
L 334.888032 -213.680896 
L 336.159393 -214.950843 
L 337.430753 -216.715672 
L 338.702113 -190.118609 
L 339.973473 -174.853371 
L 341.244833 -151.197079 
L 342.516194 -161.699507 
L 343.787554 -166.774382 
L 345.058914 -171.100467 
L 346.330274 -170.230843 
L 347.601634 -166.588748 
L 348.872995 -189.453709 
L 350.144355 -198.76551 
L 351.415715 -207.761419 
L 352.687075 -211.916551 
L 353.958436 -214.80156 
L 355.229796 -220.194293 
L 356.501156 -206.807283 
L 357.772516 -206.239019 
L 359.043876 -205.687741 
L 360.315237 -219.27589 
L 361.586597 -233.960188 
L 362.857957 -231.621416 
L 364.129317 -220.123401 
L 365.400678 -217.154993 
L 366.672038 -229.456253 
L 367.943398 -235.912384 
L 369.214758 -237.420402 
L 370.486118 -242.644091 
L 371.757479 -254.963253 
L 373.028839 -263.140657 
L 374.300199 -278.261789 
L 375.571559 -281.10525 
L 376.84292 -277.486235 
L 378.11428 -282.6653 
L 379.38564 -278.297011 
L 380.657 -254.015035 
L 381.92836 -249.017745 
L 383.199721 -231.697722 
L 384.471081 -233.070195 
L 385.742441 -237.496807 
L 387.013801 -235.811142 
L 388.285161 -233.449485 
L 389.556522 -226.96666 
L 390.827882 -246.367218 
L 392.099242 -237.528425 
L 393.370602 -259.103894 
L 394.641963 -258.899364 
L 395.913323 -256.722666 
L 397.184683 -261.495144 
L 398.456043 -287.885301 
L 399.727403 -291.745519 
L 400.998764 -285.038641 
L 402.270124 -285.841101 
L 403.541484 -266.112752 
L 404.812844 -271.094949 
L 406.084205 -257.737882 
L 407.355565 -260.308104 
L 408.626925 -244.092636 
L 409.898285 -240.707999 
L 411.169645 -249.235314 
L 412.441006 -256.92416 
L 413.712366 -274.167436 
L 414.983726 -272.171373 
L 416.255086 -260.172105 
L 417.526447 -272.011113 
L 418.797807 -249.540883 
L 420.069167 -259.064847 
L 421.340527 -259.484219 
L 422.611887 -248.435721 
L 423.883248 -252.710078 
L 425.154608 -258.997305 
L 426.425968 -262.53019 
L 427.697328 -248.918633 
L 428.968688 -252.668007 
L 430.240049 -251.989288 
L 431.511409 -257.491053 
L 432.782769 -274.559682 
L 434.054129 -262.531114 
L 435.32549 -259.194368 
L 436.59685 -248.999097 
L 437.86821 -249.017284 
L 439.13957 -254.368072 
L 440.41093 -243.40669 
L 441.682291 -239.976001 
L 442.953651 -248.92653 
L 444.225011 -254.740898 
L 445.496371 -251.471049 
L 446.767732 -252.345608 
L 448.039092 -253.095764 
L 449.310452 -263.383104 
L 450.581812 -259.877266 
L 451.853172 -243.181295 
L 453.124533 -237.67079 
L 454.395893 -235.295916 
L 455.667253 -247.419229 
L 456.938613 -252.615503 
L 458.209974 -254.367361 
L 459.481334 -255.413769 
L 460.752694 -252.242161 
L 462.024054 -264.318024 
L 463.295414 -270.79914 
L 464.566775 -275.420852 
L 465.838135 -257.727085 
L 467.109495 -273.79558 
L 468.380855 -264.952061 
L 469.652215 -259.758659 
L 470.923576 -245.287143 
L 472.194936 -269.043706 
L 473.466296 -273.298744 
L 474.737656 -257.301903 
L 476.009017 -259.678296 
L 477.280377 -255.407738 
L 478.551737 -252.067854 
L 479.823097 -244.938075 
L 481.094457 -256.411015 
L 482.365818 -243.521563 
L 483.637178 -236.541256 
L 484.908538 -224.964136 
L 486.179898 -219.599169 
L 487.451259 -219.50463 
L 488.722619 -219.897918 
L 489.993979 -216.694569 
L 491.265339 -216.650056 
L 492.536699 -220.277399 
L 493.80806 -233.435398 
L 495.07942 -232.853144 
L 496.35078 -233.005744 
L 497.62214 -234.744667 
L 498.893501 -244.037836 
L 500.164861 -249.377104 
L 501.436221 -256.898952 
L 502.707581 -253.425118 
L 503.978941 -255.287222 
L 505.250302 -241.519451 
L 506.521662 -235.253249 
L 507.793022 -240.115356 
L 509.064382 -230.4196 
L 510.335742 -224.499373 
L 511.607103 -210.603811 
L 512.878463 -209.106184 
L 514.149823 -211.105587 
L 515.421183 -225.264028 
L 516.692544 -241.421741 
L 517.963904 -243.648851 
L 519.235264 -248.590936 
L 520.506624 -263.838771 
L 521.777984 -271.614311 
L 523.049345 -257.097775 
L 524.320705 -244.483336 
L 525.592065 -241.746094 
L 526.863425 -240.89408 
L 528.134786 -247.149484 
L 529.406146 -230.403958 
L 530.677506 -240.615576 
L 531.948866 -236.806425 
L 533.220226 -247.954622 
L 534.491587 -229.44945 
L 535.762947 -243.183221 
L 537.034307 -263.865666 
L 538.305667 -257.266875 
L 539.577028 -248.347377 
L 540.848388 -256.755749 
L 542.119748 -266.135373 
L 543.391108 -267.931261 
L 544.662468 -278.697127 
L 545.933829 -261.244218 
L 547.205189 -254.942693 
L 548.476549 -255.591994 
L 549.747909 -243.690864 
L 551.019269 -239.226245 
L 552.29063 -250.597926 
L 553.56199 -235.070994 
L 554.83335 -252.384429 
L 556.10471 -229.317742 
L 557.376071 -231.536346 
L 558.647431 -236.922319 
L 559.918791 -250.154141 
L 561.190151 -245.026143 
L 562.461511 -235.1039 
L 563.732872 -218.433503 
L 565.004232 -240.287388 
L 566.275592 -228.987522 
L 567.546952 -232.909563 
L 568.818313 -244.705913 
L 570.089673 -239.173438 
L 571.361033 -243.391125 
L 572.632393 -246.954304 
L 573.903753 -246.262812 
L 575.175114 -236.183374 
L 575.175114 -261.085047 
L 575.175114 -261.085047 
L 573.903753 -258.527384 
L 572.632393 -247.078052 
L 571.361033 -248.759046 
L 570.089673 -251.168208 
L 568.818313 -255.911227 
L 567.546952 -254.97865 
L 566.275592 -263.454579 
L 565.004232 -254.380513 
L 563.732872 -267.613069 
L 562.461511 -260.54378 
L 561.190151 -264.345641 
L 559.918791 -252.679824 
L 558.647431 -269.609397 
L 557.376071 -276.265377 
L 556.10471 -286.048621 
L 554.83335 -268.432967 
L 553.56199 -290.076371 
L 552.29063 -283.84616 
L 551.019269 -282.850016 
L 549.747909 -281.212697 
L 548.476549 -272.278682 
L 547.205189 -273.364214 
L 545.933829 -284.12646 
L 544.662468 -281.425482 
L 543.391108 -279.114163 
L 542.119748 -283.374316 
L 540.848388 -291.366713 
L 539.577028 -284.838154 
L 538.305667 -277.619787 
L 537.034307 -272.830217 
L 535.762947 -270.301422 
L 534.491587 -269.002938 
L 533.220226 -257.020187 
L 531.948866 -254.226165 
L 530.677506 -246.1125 
L 529.406146 -257.281847 
L 528.134786 -249.07455 
L 526.863425 -254.430876 
L 525.592065 -268.350214 
L 524.320705 -259.607946 
L 523.049345 -269.132972 
L 521.777984 -274.041875 
L 520.506624 -278.320834 
L 519.235264 -293.889381 
L 517.963904 -289.22471 
L 516.692544 -295.034362 
L 515.421183 -291.588601 
L 514.149823 -295.352934 
L 512.878463 -280.340252 
L 511.607103 -267.480421 
L 510.335742 -256.936596 
L 509.064382 -245.240524 
L 507.793022 -243.593921 
L 506.521662 -249.515269 
L 505.250302 -259.682323 
L 503.978941 -270.852456 
L 502.707581 -267.416264 
L 501.436221 -263.49792 
L 500.164861 -268.96651 
L 498.893501 -275.044771 
L 497.62214 -275.57231 
L 496.35078 -272.912247 
L 495.07942 -258.531727 
L 493.80806 -252.079 
L 492.536699 -268.95007 
L 491.265339 -261.847272 
L 489.993979 -255.244669 
L 488.722619 -252.286671 
L 487.451259 -247.683805 
L 486.179898 -242.730837 
L 484.908538 -252.105499 
L 483.637178 -251.145245 
L 482.365818 -252.746264 
L 481.094457 -261.439112 
L 479.823097 -272.786861 
L 478.551737 -285.679611 
L 477.280377 -281.505178 
L 476.009017 -296.505466 
L 474.737656 -288.240853 
L 473.466296 -273.516107 
L 472.194936 -277.440452 
L 470.923576 -278.176036 
L 469.652215 -271.820987 
L 468.380855 -267.172449 
L 467.109495 -275.135898 
L 465.838135 -282.75197 
L 464.566775 -280.290778 
L 463.295414 -272.404541 
L 462.024054 -271.48737 
L 460.752694 -290.682667 
L 459.481334 -281.31229 
L 458.209974 -275.291723 
L 456.938613 -255.526585 
L 455.667253 -267.331088 
L 454.395893 -279.463685 
L 453.124533 -280.221041 
L 451.853172 -290.585387 
L 450.581812 -277.785243 
L 449.310452 -280.224853 
L 448.039092 -295.122176 
L 446.767732 -300.147753 
L 445.496371 -280.718918 
L 444.225011 -264.390996 
L 442.953651 -260.27039 
L 441.682291 -255.388105 
L 440.41093 -261.848907 
L 439.13957 -254.901347 
L 437.86821 -263.774403 
L 436.59685 -253.601046 
L 435.32549 -268.307546 
L 434.054129 -270.882823 
L 432.782769 -279.200127 
L 431.511409 -283.077523 
L 430.240049 -289.121753 
L 428.968688 -271.506775 
L 427.697328 -258.225261 
L 426.425968 -265.486954 
L 425.154608 -265.596917 
L 423.883248 -273.154461 
L 422.611887 -277.100987 
L 421.340527 -294.184831 
L 420.069167 -289.877153 
L 418.797807 -290.386113 
L 417.526447 -287.272768 
L 416.255086 -283.180133 
L 414.983726 -272.243434 
L 413.712366 -278.440283 
L 412.441006 -280.569908 
L 411.169645 -278.254452 
L 409.898285 -294.764998 
L 408.626925 -317.534653 
L 407.355565 -311.479006 
L 406.084205 -303.66193 
L 404.812844 -294.193803 
L 403.541484 -304.849868 
L 402.270124 -306.423494 
L 400.998764 -303.422201 
L 399.727403 -292.1766 
L 398.456043 -289.73112 
L 397.184683 -287.676655 
L 395.913323 -298.973412 
L 394.641963 -291.876618 
L 393.370602 -278.207959 
L 392.099242 -284.023708 
L 390.827882 -281.762813 
L 389.556522 -287.456522 
L 388.285161 -272.128372 
L 387.013801 -279.264839 
L 385.742441 -283.488412 
L 384.471081 -294.739201 
L 383.199721 -307.183727 
L 381.92836 -290.74669 
L 380.657 -292.297586 
L 379.38564 -286.30482 
L 378.11428 -289.539859 
L 376.84292 -296.508802 
L 375.571559 -294.106948 
L 374.300199 -292.515444 
L 373.028839 -292.351851 
L 371.757479 -289.909217 
L 370.486118 -294.011017 
L 369.214758 -293.290728 
L 367.943398 -300.794873 
L 366.672038 -302.565737 
L 365.400678 -296.396655 
L 364.129317 -273.061949 
L 362.857957 -259.15236 
L 361.586597 -260.766981 
L 360.315237 -253.477006 
L 359.043876 -265.290133 
L 357.772516 -248.805355 
L 356.501156 -247.47504 
L 355.229796 -245.526833 
L 353.958436 -254.779802 
L 352.687075 -257.274617 
L 351.415715 -244.819464 
L 350.144355 -261.14387 
L 348.872995 -264.164519 
L 347.601634 -256.420415 
L 346.330274 -258.627825 
L 345.058914 -263.751853 
L 343.787554 -259.511234 
L 342.516194 -269.705519 
L 341.244833 -288.892335 
L 339.973473 -291.76753 
L 338.702113 -279.894728 
L 337.430753 -292.632436 
L 336.159393 -298.259356 
L 334.888032 -300.924577 
L 333.616672 -308.763497 
L 332.345312 -283.809847 
L 331.073952 -288.870723 
L 329.802591 -280.691879 
L 328.531231 -271.150776 
L 327.259871 -264.227362 
L 325.988511 -264.858185 
L 324.717151 -259.077486 
L 323.44579 -260.913232 
L 322.17443 -285.751672 
L 320.90307 -272.193317 
L 319.63171 -258.491654 
L 318.360349 -276.078044 
L 317.088989 -270.339809 
L 315.817629 -271.432683 
L 314.546269 -270.417579 
L 313.274909 -257.133501 
L 312.003548 -250.045039 
L 310.732188 -257.430278 
L 309.460828 -278.987134 
L 308.189468 -282.394292 
L 306.918107 -287.421211 
L 305.646747 -276.564753 
L 304.375387 -272.885221 
L 303.104027 -289.732977 
L 301.832667 -284.007229 
L 300.561306 -285.867682 
L 299.289946 -265.574049 
L 298.018586 -259.565968 
L 296.747226 -270.847958 
L 295.475866 -268.116158 
L 294.204505 -277.212032 
L 292.933145 -270.59151 
L 291.661785 -274.186593 
L 290.390425 -267.672864 
L 289.119064 -269.62115 
L 287.847704 -260.441302 
L 286.576344 -250.935962 
L 285.304984 -247.208116 
L 284.033624 -254.535966 
L 282.762263 -252.550987 
L 281.490903 -255.179729 
L 280.219543 -249.237999 
L 278.948183 -260.95597 
L 277.676822 -266.65651 
L 276.405462 -260.469818 
L 275.134102 -260.496355 
L 273.862742 -260.290648 
L 272.591382 -250.3279 
L 271.320021 -253.308961 
L 270.048661 -250.57923 
L 268.777301 -249.656894 
L 267.505941 -259.587408 
L 266.23458 -267.424959 
L 264.96322 -269.559417 
L 263.69186 -282.869418 
L 262.4205 -274.328523 
L 261.14914 -291.906936 
L 259.877779 -287.145259 
L 258.606419 -291.794821 
L 257.335059 -281.064356 
L 256.063699 -297.339453 
L 254.792339 -293.993077 
L 253.520978 -283.391195 
L 252.249618 -284.921033 
L 250.978258 -272.763859 
L 249.706898 -283.300603 
L 248.435537 -275.498442 
L 247.164177 -281.792724 
L 245.892817 -277.044749 
L 244.621457 -283.665582 
L 243.350097 -264.292501 
L 242.078736 -272.185041 
L 240.807376 -261.114725 
L 239.536016 -254.335357 
L 238.264656 -258.260174 
L 236.993295 -264.655822 
L 235.721935 -265.063349 
L 234.450575 -276.922071 
L 233.179215 -250.571909 
L 231.907855 -253.565168 
L 230.636494 -279.961767 
L 229.365134 -283.827265 
L 228.093774 -294.146354 
L 226.822414 -309.327081 
L 225.551053 -308.91108 
L 224.279693 -302.040212 
L 223.008333 -296.140886 
L 221.736973 -301.439888 
L 220.465613 -300.707417 
L 219.194252 -309.167014 
L 217.922892 -297.481754 
L 216.651532 -294.859604 
L 215.380172 -310.834557 
L 214.108812 -305.449449 
L 212.837451 -296.070294 
L 211.566091 -282.176993 
L 210.294731 -279.135297 
L 209.023371 -274.727794 
L 207.75201 -271.640093 
L 206.48065 -262.22042 
L 205.20929 -250.615828 
L 203.93793 -261.872296 
L 202.66657 -265.303577 
L 201.395209 -273.381157 
L 200.123849 -268.407364 
L 198.852489 -261.543273 
L 197.581129 -275.08347 
L 196.309768 -275.243515 
L 195.038408 -270.592427 
L 193.767048 -277.746299 
L 192.495688 -281.104817 
L 191.224328 -284.781682 
L 189.952967 -264.24354 
L 188.681607 -251.718423 
L 187.410247 -252.408981 
L 186.138887 -269.557521 
L 184.867526 -271.183088 
L 183.596166 -260.851943 
L 182.324806 -258.915687 
L 181.053446 -259.077771 
L 179.782086 -264.257297 
L 178.510725 -277.035984 
L 177.239365 -269.027375 
L 175.968005 -259.035952 
L 174.696645 -265.292986 
L 173.425285 -274.35007 
L 172.153924 -270.193351 
L 170.882564 -264.095881 
L 169.611204 -276.867568 
L 168.339844 -275.413544 
L 167.068483 -256.295477 
L 165.797123 -256.550677 
L 164.525763 -258.082824 
L 163.254403 -256.125395 
L 161.983043 -260.581666 
L 160.711682 -250.055817 
L 159.440322 -238.334616 
L 158.168962 -222.05254 
L 156.897602 -234.431092 
L 155.626241 -237.11728 
L 154.354881 -241.758614 
L 153.083521 -233.085136 
L 151.812161 -240.74675 
L 150.540801 -235.995766 
L 149.26944 -246.656428 
L 147.99808 -252.81619 
L 146.72672 -247.633938 
L 145.45536 -240.103692 
L 144.183999 -249.260148 
L 142.912639 -242.069258 
L 141.641279 -230.239127 
L 140.369919 -226.207989 
L 139.098559 -230.75365 
L 137.827198 -219.528572 
L 136.555838 -227.602492 
L 135.284478 -228.736858 
L 134.013118 -219.219893 
L 132.741758 -216.470179 
L 131.470397 -218.518904 
L 130.199037 -215.502778 
L 128.927677 -202.631387 
L 127.656317 -198.493512 
L 126.384956 -203.126 
L 125.113596 -211.266817 
L 123.842236 -213.670169 
L 122.570876 -219.642879 
L 121.299516 -206.182438 
L 120.028155 -208.693346 
L 118.756795 -236.80429 
L 117.485435 -255.722487 
L 116.214075 -261.507696 
L 114.942714 -256.211977 
L 113.671354 -235.849931 
L 112.399994 -205.583643 
L 111.128634 -217.473064 
L 109.857274 -232.019952 
L 108.585913 -251.718039 
L 107.314553 -246.384617 
L 106.043193 -228.718132 
L 104.771833 -231.535072 
L 103.500472 -205.885409 
L 102.229112 -200.644113 
L 100.957752 -201.387618 
L 99.686392 -191.515161 
L 98.415032 -197.78062 
L 97.143671 -186.694208 
L 95.872311 -203.404566 
L 94.600951 -208.465619 
L 93.329591 -226.263025 
L 92.058231 -228.50139 
L 90.78687 -240.311321 
L 89.51551 -248.186014 
L 88.24415 -256.327531 
L 86.97279 -262.339511 
L 85.701429 -277.581839 
L 84.430069 -265.700865 
L 83.158709 -274.284655 
L 81.887349 -269.919223 
L 80.615989 -239.531928 
L 79.344628 -253.260473 
L 78.073268 -252.032998 
L 76.801908 -252.669031 
L 75.530548 -252.669031 
L 74.259187 -252.669031 
L 72.987827 -252.669031 
L 71.716467 -252.669031 
L 70.445107 -252.669031 
L 69.173747 -252.669031 
L 67.902386 -252.669031 
z
" style="stroke: #0000ff; stroke-opacity: 0.2"/>
    </defs>
    <g clip-path="url(#pf75ca13664)">
     <use xlink:href="#mc7caa661e1" x="0" y="395.209844" style="fill: #0000ff; fill-opacity: 0.2; stroke: #0000ff; stroke-opacity: 0.2"/>
    </g>
   </g>
   <g id="PolyCollection_2">
    <defs>
     <path id="me1a69dfd6e" d="M 67.902386 -202.537318 
L 67.902386 -190.599918 
L 69.173747 -190.599918 
L 70.445107 -190.599918 
L 71.716467 -190.599918 
L 72.987827 -190.599918 
L 74.259187 -190.599918 
L 75.530548 -190.599918 
L 76.801908 -190.599918 
L 78.073268 -191.02778 
L 79.344628 -190.115293 
L 80.615989 -177.680113 
L 81.887349 -180.005858 
L 83.158709 -156.69256 
L 84.430069 -157.544972 
L 85.701429 -127.881189 
L 86.97279 -126.341863 
L 88.24415 -127.036032 
L 89.51551 -133.180779 
L 90.78687 -162.409153 
L 92.058231 -167.776022 
L 93.329591 -183.4034 
L 94.600951 -185.262958 
L 95.872311 -209.500498 
L 97.143671 -202.209987 
L 98.415032 -190.747271 
L 99.686392 -179.113802 
L 100.957752 -173.551613 
L 102.229112 -170.957541 
L 103.500472 -181.048547 
L 104.771833 -160.683816 
L 106.043193 -177.89594 
L 107.314553 -177.301592 
L 108.585913 -181.720035 
L 109.857274 -183.131602 
L 111.128634 -200.778246 
L 112.399994 -195.402983 
L 113.671354 -182.599772 
L 114.942714 -163.85519 
L 116.214075 -159.654961 
L 117.485435 -149.530927 
L 118.756795 -142.022352 
L 120.028155 -151.21868 
L 121.299516 -160.726907 
L 122.570876 -169.099244 
L 123.842236 -145.333203 
L 125.113596 -153.413553 
L 126.384956 -161.682072 
L 127.656317 -162.762763 
L 128.927677 -176.08257 
L 130.199037 -163.457194 
L 131.470397 -179.755216 
L 132.741758 -194.837442 
L 134.013118 -200.069126 
L 135.284478 -179.230962 
L 136.555838 -169.401521 
L 137.827198 -185.425569 
L 139.098559 -183.648758 
L 140.369919 -178.089404 
L 141.641279 -176.025398 
L 142.912639 -183.367451 
L 144.183999 -174.896193 
L 145.45536 -179.796569 
L 146.72672 -181.744363 
L 147.99808 -171.336302 
L 149.26944 -170.755537 
L 150.540801 -164.813399 
L 151.812161 -177.051512 
L 153.083521 -164.644405 
L 154.354881 -151.043875 
L 155.626241 -144.852065 
L 156.897602 -155.728771 
L 158.168962 -179.773348 
L 159.440322 -175.586875 
L 160.711682 -171.067732 
L 161.983043 -160.658603 
L 163.254403 -160.460903 
L 164.525763 -164.031926 
L 165.797123 -148.156081 
L 167.068483 -139.109131 
L 168.339844 -158.800105 
L 169.611204 -147.675658 
L 170.882564 -150.280537 
L 172.153924 -149.929461 
L 173.425285 -157.865209 
L 174.696645 -157.202491 
L 175.968005 -167.479392 
L 177.239365 -156.105768 
L 178.510725 -169.036841 
L 179.782086 -179.594513 
L 181.053446 -169.59559 
L 182.324806 -160.901099 
L 183.596166 -165.30853 
L 184.867526 -156.234709 
L 186.138887 -156.789137 
L 187.410247 -148.521817 
L 188.681607 -128.777171 
L 189.952967 -132.707172 
L 191.224328 -123.074408 
L 192.495688 -134.951318 
L 193.767048 -125.468665 
L 195.038408 -125.818511 
L 196.309768 -127.080226 
L 197.581129 -131.84526 
L 198.852489 -134.285884 
L 200.123849 -137.770252 
L 201.395209 -148.83446 
L 202.66657 -153.280647 
L 203.93793 -156.236168 
L 205.20929 -149.680149 
L 206.48065 -152.517202 
L 207.75201 -173.043119 
L 209.023371 -168.299193 
L 210.294731 -163.775854 
L 211.566091 -163.247632 
L 212.837451 -152.194423 
L 214.108812 -127.357565 
L 215.380172 -132.483689 
L 216.651532 -133.669199 
L 217.922892 -116.043435 
L 219.194252 -131.441645 
L 220.465613 -115.615914 
L 221.736973 -100.536581 
L 223.008333 -93.185942 
L 224.279693 -99.892179 
L 225.551053 -86.454855 
L 226.822414 -81.787678 
L 228.093774 -92.776162 
L 229.365134 -76.227318 
L 230.636494 -82.716388 
L 231.907855 -76.405185 
L 233.179215 -92.29908 
L 234.450575 -99.994572 
L 235.721935 -108.475546 
L 236.993295 -103.652713 
L 238.264656 -91.585853 
L 239.536016 -95.326721 
L 240.807376 -100.715795 
L 242.078736 -105.260403 
L 243.350097 -93.51189 
L 244.621457 -103.04385 
L 245.892817 -103.990672 
L 247.164177 -115.347521 
L 248.435537 -122.777864 
L 249.706898 -109.86804 
L 250.978258 -98.274108 
L 252.249618 -94.217869 
L 253.520978 -92.235881 
L 254.792339 -72.906238 
L 256.063699 -61.379178 
L 257.335059 -60.791757 
L 258.606419 -54.882257 
L 259.877779 -55.17624 
L 261.14914 -68.963381 
L 262.4205 -77.128583 
L 263.69186 -77.875657 
L 264.96322 -81.628497 
L 266.23458 -82.549231 
L 267.505941 -80.003952 
L 268.777301 -84.695747 
L 270.048661 -90.450913 
L 271.320021 -82.481699 
L 272.591382 -75.645463 
L 273.862742 -66.794255 
L 275.134102 -58.096214 
L 276.405462 -62.874813 
L 277.676822 -56.180316 
L 278.948183 -54.611875 
L 280.219543 -55.720313 
L 281.490903 -63.938906 
L 282.762263 -69.292169 
L 284.033624 -78.003114 
L 285.304984 -76.817685 
L 286.576344 -65.996547 
L 287.847704 -73.484 
L 289.119064 -73.843258 
L 290.390425 -77.190262 
L 291.661785 -71.008305 
L 292.933145 -71.387152 
L 294.204505 -73.253507 
L 295.475866 -82.139396 
L 296.747226 -88.579314 
L 298.018586 -86.845328 
L 299.289946 -94.121959 
L 300.561306 -84.264241 
L 301.832667 -78.582127 
L 303.104027 -77.657092 
L 304.375387 -72.81962 
L 305.646747 -82.170002 
L 306.918107 -79.863354 
L 308.189468 -79.954186 
L 309.460828 -73.410834 
L 310.732188 -77.688074 
L 312.003548 -84.885573 
L 313.274909 -82.274214 
L 314.546269 -82.607356 
L 315.817629 -74.567876 
L 317.088989 -72.960307 
L 318.360349 -74.271738 
L 319.63171 -75.735081 
L 320.90307 -91.066556 
L 322.17443 -89.944649 
L 323.44579 -95.309488 
L 324.717151 -98.740587 
L 325.988511 -97.180716 
L 327.259871 -96.772577 
L 328.531231 -94.923114 
L 329.802591 -95.57544 
L 331.073952 -86.459565 
L 332.345312 -83.3138 
L 333.616672 -77.66319 
L 334.888032 -73.708931 
L 336.159393 -78.663603 
L 337.430753 -84.503778 
L 338.702113 -88.390664 
L 339.973473 -88.952821 
L 341.244833 -89.423207 
L 342.516194 -93.903567 
L 343.787554 -90.396175 
L 345.058914 -95.112757 
L 346.330274 -89.816227 
L 347.601634 -85.35387 
L 348.872995 -83.70492 
L 350.144355 -83.096026 
L 351.415715 -78.210618 
L 352.687075 -73.918475 
L 353.958436 -80.080001 
L 355.229796 -75.110777 
L 356.501156 -77.249424 
L 357.772516 -79.978029 
L 359.043876 -80.724964 
L 360.315237 -84.873913 
L 361.586597 -92.850667 
L 362.857957 -105.191264 
L 364.129317 -109.649393 
L 365.400678 -110.933889 
L 366.672038 -106.615564 
L 367.943398 -102.523006 
L 369.214758 -99.04546 
L 370.486118 -90.064516 
L 371.757479 -86.586925 
L 373.028839 -76.094851 
L 374.300199 -72.038363 
L 375.571559 -71.010245 
L 376.84292 -73.127968 
L 378.11428 -77.420141 
L 379.38564 -80.220464 
L 380.657 -84.740076 
L 381.92836 -87.762928 
L 383.199721 -88.966107 
L 384.471081 -90.448208 
L 385.742441 -92.463478 
L 387.013801 -94.320663 
L 388.285161 -102.086232 
L 389.556522 -97.229461 
L 390.827882 -94.05872 
L 392.099242 -90.076452 
L 393.370602 -92.07446 
L 394.641963 -90.533496 
L 395.913323 -92.919023 
L 397.184683 -87.927247 
L 398.456043 -76.95682 
L 399.727403 -78.252622 
L 400.998764 -80.740125 
L 402.270124 -80.167762 
L 403.541484 -81.063281 
L 404.812844 -85.091544 
L 406.084205 -83.887713 
L 407.355565 -96.712159 
L 408.626925 -93.014626 
L 409.898285 -97.675477 
L 411.169645 -100.452558 
L 412.441006 -96.552499 
L 413.712366 -91.196894 
L 414.983726 -80.186246 
L 416.255086 -82.465114 
L 417.526447 -77.152855 
L 418.797807 -89.874573 
L 420.069167 -86.17178 
L 421.340527 -88.467618 
L 422.611887 -89.501154 
L 423.883248 -93.588711 
L 425.154608 -104.287498 
L 426.425968 -104.382568 
L 427.697328 -101.884683 
L 428.968688 -96.315978 
L 430.240049 -100.041336 
L 431.511409 -93.556702 
L 432.782769 -95.073743 
L 434.054129 -97.28106 
L 435.32549 -90.393361 
L 436.59685 -88.28676 
L 437.86821 -93.384604 
L 439.13957 -90.375119 
L 440.41093 -87.976194 
L 441.682291 -94.385648 
L 442.953651 -93.135529 
L 444.225011 -93.774217 
L 445.496371 -93.3161 
L 446.767732 -97.146933 
L 448.039092 -90.669619 
L 449.310452 -88.970549 
L 450.581812 -90.845175 
L 451.853172 -85.642584 
L 453.124533 -85.703656 
L 454.395893 -87.198312 
L 455.667253 -89.677066 
L 456.938613 -89.058282 
L 458.209974 -93.754725 
L 459.481334 -91.745088 
L 460.752694 -93.308167 
L 462.024054 -95.504855 
L 463.295414 -90.735111 
L 464.566775 -85.424622 
L 465.838135 -81.732471 
L 467.109495 -82.013343 
L 468.380855 -86.435312 
L 469.652215 -91.805309 
L 470.923576 -85.426445 
L 472.194936 -83.745282 
L 473.466296 -88.446229 
L 474.737656 -93.025267 
L 476.009017 -99.815563 
L 477.280377 -95.146631 
L 478.551737 -89.657499 
L 479.823097 -92.935686 
L 481.094457 -93.680126 
L 482.365818 -88.833099 
L 483.637178 -86.043958 
L 484.908538 -85.709064 
L 486.179898 -82.746461 
L 487.451259 -83.191214 
L 488.722619 -82.363558 
L 489.993979 -80.516726 
L 491.265339 -82.314153 
L 492.536699 -88.665885 
L 493.80806 -91.997405 
L 495.07942 -89.306741 
L 496.35078 -89.303395 
L 497.62214 -86.398935 
L 498.893501 -78.507677 
L 500.164861 -78.206102 
L 501.436221 -75.37458 
L 502.707581 -79.227211 
L 503.978941 -75.899194 
L 505.250302 -75.762771 
L 506.521662 -79.148354 
L 507.793022 -81.641705 
L 509.064382 -90.776131 
L 510.335742 -88.793996 
L 511.607103 -93.942166 
L 512.878463 -92.325789 
L 514.149823 -93.502377 
L 515.421183 -95.619946 
L 516.692544 -93.393077 
L 517.963904 -96.892788 
L 519.235264 -92.274561 
L 520.506624 -92.390859 
L 521.777984 -86.990693 
L 523.049345 -82.021682 
L 524.320705 -83.845317 
L 525.592065 -82.932225 
L 526.863425 -79.297098 
L 528.134786 -77.124987 
L 529.406146 -76.149176 
L 530.677506 -74.3402 
L 531.948866 -83.159366 
L 533.220226 -81.414639 
L 534.491587 -83.727277 
L 535.762947 -84.279978 
L 537.034307 -85.056849 
L 538.305667 -90.029399 
L 539.577028 -96.286895 
L 540.848388 -96.533865 
L 542.119748 -86.732178 
L 543.391108 -88.852304 
L 544.662468 -81.972288 
L 545.933829 -74.246595 
L 547.205189 -73.876127 
L 548.476549 -70.366238 
L 549.747909 -66.555107 
L 551.019269 -73.888895 
L 552.29063 -77.142138 
L 553.56199 -78.982866 
L 554.83335 -77.775414 
L 556.10471 -84.102443 
L 557.376071 -83.225117 
L 558.647431 -85.324204 
L 559.918791 -89.889359 
L 561.190151 -82.926211 
L 562.461511 -82.676892 
L 563.732872 -77.670916 
L 565.004232 -78.674098 
L 566.275592 -80.253178 
L 567.546952 -84.166685 
L 568.818313 -83.052311 
L 570.089673 -77.710222 
L 571.361033 -78.077692 
L 572.632393 -76.789384 
L 573.903753 -76.587885 
L 575.175114 -77.874441 
L 575.175114 -345.332102 
L 575.175114 -345.332102 
L 573.903753 -342.382775 
L 572.632393 -336.863016 
L 571.361033 -332.477143 
L 570.089673 -332.013699 
L 568.818313 -332.386563 
L 567.546952 -303.232308 
L 566.275592 -298.070382 
L 565.004232 -292.623262 
L 563.732872 -296.310604 
L 562.461511 -303.278856 
L 561.190151 -311.912697 
L 559.918791 -289.270994 
L 558.647431 -297.652204 
L 557.376071 -310.665503 
L 556.10471 -317.235133 
L 554.83335 -328.03295 
L 553.56199 -317.917346 
L 552.29063 -313.183658 
L 551.019269 -301.879177 
L 549.747909 -322.795552 
L 548.476549 -323.585042 
L 547.205189 -325.726196 
L 545.933829 -326.664576 
L 544.662468 -322.688784 
L 543.391108 -311.623719 
L 542.119748 -313.207028 
L 540.848388 -305.924618 
L 539.577028 -308.535113 
L 538.305667 -318.973635 
L 537.034307 -328.756488 
L 535.762947 -327.416423 
L 534.491587 -316.765923 
L 533.220226 -325.70621 
L 531.948866 -323.66847 
L 530.677506 -331.257399 
L 529.406146 -326.064421 
L 528.134786 -319.652665 
L 526.863425 -314.068002 
L 525.592065 -295.934728 
L 524.320705 -309.323641 
L 523.049345 -309.410166 
L 521.777984 -302.066566 
L 520.506624 -303.460789 
L 519.235264 -305.559625 
L 517.963904 -296.126762 
L 516.692544 -299.119214 
L 515.421183 -320.210051 
L 514.149823 -315.586851 
L 512.878463 -327.500001 
L 511.607103 -326.656429 
L 510.335742 -331.279853 
L 509.064382 -322.592309 
L 507.793022 -336.576576 
L 506.521662 -346.037245 
L 505.250302 -346.099022 
L 503.978941 -347.756346 
L 502.707581 -320.560731 
L 501.436221 -311.124638 
L 500.164861 -306.770408 
L 498.893501 -304.786504 
L 497.62214 -287.08786 
L 496.35078 -267.547272 
L 495.07942 -259.506457 
L 493.80806 -256.335923 
L 492.536699 -267.760235 
L 491.265339 -291.378378 
L 489.993979 -295.184573 
L 488.722619 -296.142757 
L 487.451259 -300.627093 
L 486.179898 -310.746072 
L 484.908538 -305.000736 
L 483.637178 -296.179452 
L 482.365818 -307.086638 
L 481.094457 -290.220274 
L 479.823097 -285.272045 
L 478.551737 -292.526064 
L 477.280377 -299.573199 
L 476.009017 -295.512422 
L 474.737656 -314.937095 
L 473.466296 -327.517004 
L 472.194936 -334.204204 
L 470.923576 -354.122981 
L 469.652215 -348.930328 
L 468.380855 -357.011875 
L 467.109495 -335.067007 
L 465.838135 -337.3486 
L 464.566775 -329.243613 
L 463.295414 -311.477016 
L 462.024054 -301.632584 
L 460.752694 -300.336018 
L 459.481334 -294.6366 
L 458.209974 -288.760461 
L 456.938613 -312.410906 
L 455.667253 -300.774771 
L 454.395893 -301.879993 
L 453.124533 -313.44108 
L 451.853172 -313.865885 
L 450.581812 -295.364822 
L 449.310452 -296.823566 
L 448.039092 -290.032166 
L 446.767732 -281.46283 
L 445.496371 -281.329748 
L 444.225011 -274.371881 
L 442.953651 -270.934384 
L 441.682291 -277.576659 
L 440.41093 -294.040011 
L 439.13957 -305.016157 
L 437.86821 -312.168737 
L 436.59685 -306.935456 
L 435.32549 -316.233923 
L 434.054129 -303.845982 
L 432.782769 -306.310101 
L 431.511409 -303.491989 
L 430.240049 -286.339346 
L 428.968688 -282.40381 
L 427.697328 -249.224569 
L 426.425968 -240.570007 
L 425.154608 -238.90932 
L 423.883248 -256.463699 
L 422.611887 -263.027591 
L 421.340527 -260.714109 
L 420.069167 -256.854585 
L 418.797807 -234.151211 
L 417.526447 -274.386593 
L 416.255086 -278.013668 
L 414.983726 -278.757835 
L 413.712366 -269.617921 
L 412.441006 -258.89121 
L 411.169645 -252.446186 
L 409.898285 -271.752775 
L 408.626925 -288.512888 
L 407.355565 -264.972333 
L 406.084205 -274.600871 
L 404.812844 -269.340741 
L 403.541484 -283.428703 
L 402.270124 -295.629248 
L 400.998764 -271.409103 
L 399.727403 -269.404153 
L 398.456043 -282.021537 
L 397.184683 -277.779422 
L 395.913323 -281.780677 
L 394.641963 -282.630187 
L 393.370602 -270.531626 
L 392.099242 -251.121812 
L 390.827882 -261.118516 
L 389.556522 -254.83218 
L 388.285161 -236.97142 
L 387.013801 -256.241482 
L 385.742441 -257.010566 
L 384.471081 -257.957851 
L 383.199721 -249.687192 
L 381.92836 -264.063188 
L 380.657 -280.130032 
L 379.38564 -295.94639 
L 378.11428 -299.359742 
L 376.84292 -293.819151 
L 375.571559 -298.222329 
L 374.300199 -293.658944 
L 373.028839 -306.967905 
L 371.757479 -292.266952 
L 370.486118 -288.443192 
L 369.214758 -263.909425 
L 367.943398 -264.719524 
L 366.672038 -253.612837 
L 365.400678 -234.337851 
L 364.129317 -241.898876 
L 362.857957 -240.297354 
L 361.586597 -261.287134 
L 360.315237 -257.503444 
L 359.043876 -267.550566 
L 357.772516 -266.092669 
L 356.501156 -284.157065 
L 355.229796 -301.885132 
L 353.958436 -291.129772 
L 352.687075 -293.252718 
L 351.415715 -276.32968 
L 350.144355 -270.211482 
L 348.872995 -266.524365 
L 347.601634 -267.685616 
L 346.330274 -257.71706 
L 345.058914 -254.468216 
L 343.787554 -270.396975 
L 342.516194 -253.670805 
L 341.244833 -259.602226 
L 339.973473 -249.791005 
L 338.702113 -264.911505 
L 337.430753 -255.930037 
L 336.159393 -257.485042 
L 334.888032 -248.968699 
L 333.616672 -239.098239 
L 332.345312 -232.201609 
L 331.073952 -226.371993 
L 329.802591 -229.770256 
L 328.531231 -208.545723 
L 327.259871 -208.408998 
L 325.988511 -210.084214 
L 324.717151 -211.267694 
L 323.44579 -209.618611 
L 322.17443 -232.445384 
L 320.90307 -242.936758 
L 319.63171 -253.989252 
L 318.360349 -258.291347 
L 317.088989 -264.500668 
L 315.817629 -263.967738 
L 314.546269 -265.78818 
L 313.274909 -275.956253 
L 312.003548 -275.017629 
L 310.732188 -271.104387 
L 309.460828 -285.649616 
L 308.189468 -283.576821 
L 306.918107 -272.561092 
L 305.646747 -273.796365 
L 304.375387 -268.900914 
L 303.104027 -244.259106 
L 301.832667 -231.052518 
L 300.561306 -225.369862 
L 299.289946 -215.274221 
L 298.018586 -210.974943 
L 296.747226 -224.326986 
L 295.475866 -217.46789 
L 294.204505 -238.559276 
L 292.933145 -259.409808 
L 291.661785 -261.869767 
L 290.390425 -253.186406 
L 289.119064 -250.607305 
L 287.847704 -258.814545 
L 286.576344 -261.249672 
L 285.304984 -248.696685 
L 284.033624 -232.77271 
L 282.762263 -234.810047 
L 281.490903 -241.531658 
L 280.219543 -265.591367 
L 278.948183 -256.306548 
L 277.676822 -260.519059 
L 276.405462 -250.074662 
L 275.134102 -262.241722 
L 273.862742 -264.194205 
L 272.591382 -248.460402 
L 271.320021 -235.263069 
L 270.048661 -229.219368 
L 268.777301 -228.254346 
L 267.505941 -223.935083 
L 266.23458 -219.15263 
L 264.96322 -224.050201 
L 263.69186 -233.692393 
L 262.4205 -243.583686 
L 261.14914 -246.657255 
L 259.877779 -246.869624 
L 258.606419 -252.682727 
L 257.335059 -263.405641 
L 256.063699 -285.314298 
L 254.792339 -262.053565 
L 253.520978 -238.048326 
L 252.249618 -252.838024 
L 250.978258 -261.159283 
L 249.706898 -258.223432 
L 248.435537 -256.659021 
L 247.164177 -236.356733 
L 245.892817 -230.258534 
L 244.621457 -241.178552 
L 243.350097 -250.060499 
L 242.078736 -239.768772 
L 240.807376 -240.816954 
L 239.536016 -235.528037 
L 238.264656 -234.471988 
L 236.993295 -243.835156 
L 235.721935 -250.983145 
L 234.450575 -251.382006 
L 233.179215 -254.548679 
L 231.907855 -253.812636 
L 230.636494 -252.684907 
L 229.365134 -253.101173 
L 228.093774 -261.899462 
L 226.822414 -264.389331 
L 225.551053 -249.19891 
L 224.279693 -240.180998 
L 223.008333 -236.326543 
L 221.736973 -227.614596 
L 220.465613 -212.630974 
L 219.194252 -203.49541 
L 217.922892 -204.343478 
L 216.651532 -209.330317 
L 215.380172 -204.179721 
L 214.108812 -206.714611 
L 212.837451 -207.945076 
L 211.566091 -206.588841 
L 210.294731 -203.753345 
L 209.023371 -202.301497 
L 207.75201 -178.16022 
L 206.48065 -170.855937 
L 205.20929 -168.823033 
L 203.93793 -170.532502 
L 202.66657 -153.585191 
L 201.395209 -153.878749 
L 200.123849 -178.69151 
L 198.852489 -184.529963 
L 197.581129 -194.852226 
L 196.309768 -198.212315 
L 195.038408 -204.726676 
L 193.767048 -202.554924 
L 192.495688 -189.083595 
L 191.224328 -195.133749 
L 189.952967 -175.512854 
L 188.681607 -173.093673 
L 187.410247 -175.132265 
L 186.138887 -181.269702 
L 184.867526 -187.85438 
L 183.596166 -181.219058 
L 182.324806 -194.746412 
L 181.053446 -180.796721 
L 179.782086 -184.17287 
L 178.510725 -177.581892 
L 177.239365 -187.715144 
L 175.968005 -174.18613 
L 174.696645 -181.151605 
L 173.425285 -174.068057 
L 172.153924 -177.044016 
L 170.882564 -183.961782 
L 169.611204 -168.042082 
L 168.339844 -207.217451 
L 167.068483 -243.040465 
L 165.797123 -228.36553 
L 164.525763 -225.344808 
L 163.254403 -220.40623 
L 161.983043 -215.539588 
L 160.711682 -213.62002 
L 159.440322 -205.911159 
L 158.168962 -181.737982 
L 156.897602 -173.854433 
L 155.626241 -191.461231 
L 154.354881 -184.527488 
L 153.083521 -177.872688 
L 151.812161 -177.554011 
L 150.540801 -187.512163 
L 149.26944 -190.918431 
L 147.99808 -184.460462 
L 146.72672 -189.340607 
L 145.45536 -185.884567 
L 144.183999 -198.364362 
L 142.912639 -216.508773 
L 141.641279 -227.249917 
L 140.369919 -225.239995 
L 139.098559 -210.804598 
L 137.827198 -218.000159 
L 136.555838 -215.254044 
L 135.284478 -214.72264 
L 134.013118 -210.050792 
L 132.741758 -205.491572 
L 131.470397 -216.360198 
L 130.199037 -227.787643 
L 128.927677 -233.335572 
L 127.656317 -229.747361 
L 126.384956 -220.295445 
L 125.113596 -221.974384 
L 123.842236 -208.163018 
L 122.570876 -183.248989 
L 121.299516 -186.367208 
L 120.028155 -191.763118 
L 118.756795 -197.624808 
L 117.485435 -205.334339 
L 116.214075 -218.669604 
L 114.942714 -245.095694 
L 113.671354 -221.939436 
L 112.399994 -197.552811 
L 111.128634 -209.450691 
L 109.857274 -219.763499 
L 108.585913 -202.305324 
L 107.314553 -181.351178 
L 106.043193 -196.400567 
L 104.771833 -194.693197 
L 103.500472 -184.53301 
L 102.229112 -187.970756 
L 100.957752 -177.107172 
L 99.686392 -187.776061 
L 98.415032 -200.27094 
L 97.143671 -219.370864 
L 95.872311 -216.337204 
L 94.600951 -231.704195 
L 93.329591 -234.530765 
L 92.058231 -249.02532 
L 90.78687 -243.310155 
L 89.51551 -250.003145 
L 88.24415 -258.128031 
L 86.97279 -248.314895 
L 85.701429 -226.374685 
L 84.430069 -198.924012 
L 83.158709 -194.293746 
L 81.887349 -198.475312 
L 80.615989 -199.537626 
L 79.344628 -203.469469 
L 78.073268 -201.408142 
L 76.801908 -202.537318 
L 75.530548 -202.537318 
L 74.259187 -202.537318 
L 72.987827 -202.537318 
L 71.716467 -202.537318 
L 70.445107 -202.537318 
L 69.173747 -202.537318 
L 67.902386 -202.537318 
z
" style="stroke: #ffa500; stroke-opacity: 0.2"/>
    </defs>
    <g clip-path="url(#pf75ca13664)">
     <use xlink:href="#me1a69dfd6e" x="0" y="395.209844" style="fill: #ffa500; fill-opacity: 0.2; stroke: #ffa500; stroke-opacity: 0.2"/>
    </g>
   </g>
   <g id="matplotlib.axis_1">
    <g id="xtick_1">
     <g id="line2d_1">
      <path d="M 67.902386 355.717969 
L 67.902386 23.077969 
" clip-path="url(#pf75ca13664)" style="fill: none; stroke: #b0b0b0; stroke-opacity: 0.3; stroke-width: 0.8; stroke-linecap: square"/>
     </g>
     <g id="line2d_2">
      <defs>
       <path id="mc5e4e443b8" d="M 0 0 
L 0 3.5 
" style="stroke: #000000; stroke-width: 0.8"/>
      </defs>
      <g>
       <use xlink:href="#mc5e4e443b8" x="67.902386" y="355.717969" style="stroke: #000000; stroke-width: 0.8"/>
      </g>
     </g>
     <g id="text_1">
      <!-- 0 -->
      <g transform="translate(64.721136 370.316406) scale(0.1 -0.1)">
       <defs>
        <path id="DejaVuSans-30" d="M 2034 4250 
Q 1547 4250 1301 3770 
Q 1056 3291 1056 2328 
Q 1056 1369 1301 889 
Q 1547 409 2034 409 
Q 2525 409 2770 889 
Q 3016 1369 3016 2328 
Q 3016 3291 2770 3770 
Q 2525 4250 2034 4250 
z
M 2034 4750 
Q 2819 4750 3233 4129 
Q 3647 3509 3647 2328 
Q 3647 1150 3233 529 
Q 2819 -91 2034 -91 
Q 1250 -91 836 529 
Q 422 1150 422 2328 
Q 422 3509 836 4129 
Q 1250 4750 2034 4750 
z
" transform="scale(0.015625)"/>
       </defs>
       <use xlink:href="#DejaVuSans-30"/>
      </g>
     </g>
    </g>
    <g id="xtick_2">
     <g id="line2d_3">
      <path d="M 131.121819 355.717969 
L 131.121819 23.077969 
" clip-path="url(#pf75ca13664)" style="fill: none; stroke: #b0b0b0; stroke-opacity: 0.3; stroke-width: 0.8; stroke-linecap: square"/>
     </g>
     <g id="line2d_4">
      <g>
       <use xlink:href="#mc5e4e443b8" x="131.121819" y="355.717969" style="stroke: #000000; stroke-width: 0.8"/>
      </g>
     </g>
     <g id="text_2">
      <!-- 25000 -->
      <g transform="translate(115.215569 370.316406) scale(0.1 -0.1)">
       <defs>
        <path id="DejaVuSans-32" d="M 1228 531 
L 3431 531 
L 3431 0 
L 469 0 
L 469 531 
Q 828 903 1448 1529 
Q 2069 2156 2228 2338 
Q 2531 2678 2651 2914 
Q 2772 3150 2772 3378 
Q 2772 3750 2511 3984 
Q 2250 4219 1831 4219 
Q 1534 4219 1204 4116 
Q 875 4013 500 3803 
L 500 4441 
Q 881 4594 1212 4672 
Q 1544 4750 1819 4750 
Q 2544 4750 2975 4387 
Q 3406 4025 3406 3419 
Q 3406 3131 3298 2873 
Q 3191 2616 2906 2266 
Q 2828 2175 2409 1742 
Q 1991 1309 1228 531 
z
" transform="scale(0.015625)"/>
        <path id="DejaVuSans-35" d="M 691 4666 
L 3169 4666 
L 3169 4134 
L 1269 4134 
L 1269 2991 
Q 1406 3038 1543 3061 
Q 1681 3084 1819 3084 
Q 2600 3084 3056 2656 
Q 3513 2228 3513 1497 
Q 3513 744 3044 326 
Q 2575 -91 1722 -91 
Q 1428 -91 1123 -41 
Q 819 9 494 109 
L 494 744 
Q 775 591 1075 516 
Q 1375 441 1709 441 
Q 2250 441 2565 725 
Q 2881 1009 2881 1497 
Q 2881 1984 2565 2268 
Q 2250 2553 1709 2553 
Q 1456 2553 1204 2497 
Q 953 2441 691 2322 
L 691 4666 
z
" transform="scale(0.015625)"/>
       </defs>
       <use xlink:href="#DejaVuSans-32"/>
       <use xlink:href="#DejaVuSans-35" x="63.623047"/>
       <use xlink:href="#DejaVuSans-30" x="127.246094"/>
       <use xlink:href="#DejaVuSans-30" x="190.869141"/>
       <use xlink:href="#DejaVuSans-30" x="254.492188"/>
      </g>
     </g>
    </g>
    <g id="xtick_3">
     <g id="line2d_5">
      <path d="M 194.341252 355.717969 
L 194.341252 23.077969 
" clip-path="url(#pf75ca13664)" style="fill: none; stroke: #b0b0b0; stroke-opacity: 0.3; stroke-width: 0.8; stroke-linecap: square"/>
     </g>
     <g id="line2d_6">
      <g>
       <use xlink:href="#mc5e4e443b8" x="194.341252" y="355.717969" style="stroke: #000000; stroke-width: 0.8"/>
      </g>
     </g>
     <g id="text_3">
      <!-- 50000 -->
      <g transform="translate(178.435002 370.316406) scale(0.1 -0.1)">
       <use xlink:href="#DejaVuSans-35"/>
       <use xlink:href="#DejaVuSans-30" x="63.623047"/>
       <use xlink:href="#DejaVuSans-30" x="127.246094"/>
       <use xlink:href="#DejaVuSans-30" x="190.869141"/>
       <use xlink:href="#DejaVuSans-30" x="254.492188"/>
      </g>
     </g>
    </g>
    <g id="xtick_4">
     <g id="line2d_7">
      <path d="M 257.560684 355.717969 
L 257.560684 23.077969 
" clip-path="url(#pf75ca13664)" style="fill: none; stroke: #b0b0b0; stroke-opacity: 0.3; stroke-width: 0.8; stroke-linecap: square"/>
     </g>
     <g id="line2d_8">
      <g>
       <use xlink:href="#mc5e4e443b8" x="257.560684" y="355.717969" style="stroke: #000000; stroke-width: 0.8"/>
      </g>
     </g>
     <g id="text_4">
      <!-- 75000 -->
      <g transform="translate(241.654434 370.316406) scale(0.1 -0.1)">
       <defs>
        <path id="DejaVuSans-37" d="M 525 4666 
L 3525 4666 
L 3525 4397 
L 1831 0 
L 1172 0 
L 2766 4134 
L 525 4134 
L 525 4666 
z
" transform="scale(0.015625)"/>
       </defs>
       <use xlink:href="#DejaVuSans-37"/>
       <use xlink:href="#DejaVuSans-35" x="63.623047"/>
       <use xlink:href="#DejaVuSans-30" x="127.246094"/>
       <use xlink:href="#DejaVuSans-30" x="190.869141"/>
       <use xlink:href="#DejaVuSans-30" x="254.492188"/>
      </g>
     </g>
    </g>
    <g id="xtick_5">
     <g id="line2d_9">
      <path d="M 320.780117 355.717969 
L 320.780117 23.077969 
" clip-path="url(#pf75ca13664)" style="fill: none; stroke: #b0b0b0; stroke-opacity: 0.3; stroke-width: 0.8; stroke-linecap: square"/>
     </g>
     <g id="line2d_10">
      <g>
       <use xlink:href="#mc5e4e443b8" x="320.780117" y="355.717969" style="stroke: #000000; stroke-width: 0.8"/>
      </g>
     </g>
     <g id="text_5">
      <!-- 100000 -->
      <g transform="translate(301.692617 370.316406) scale(0.1 -0.1)">
       <defs>
        <path id="DejaVuSans-31" d="M 794 531 
L 1825 531 
L 1825 4091 
L 703 3866 
L 703 4441 
L 1819 4666 
L 2450 4666 
L 2450 531 
L 3481 531 
L 3481 0 
L 794 0 
L 794 531 
z
" transform="scale(0.015625)"/>
       </defs>
       <use xlink:href="#DejaVuSans-31"/>
       <use xlink:href="#DejaVuSans-30" x="63.623047"/>
       <use xlink:href="#DejaVuSans-30" x="127.246094"/>
       <use xlink:href="#DejaVuSans-30" x="190.869141"/>
       <use xlink:href="#DejaVuSans-30" x="254.492188"/>
       <use xlink:href="#DejaVuSans-30" x="318.115234"/>
      </g>
     </g>
    </g>
    <g id="xtick_6">
     <g id="line2d_11">
      <path d="M 383.999549 355.717969 
L 383.999549 23.077969 
" clip-path="url(#pf75ca13664)" style="fill: none; stroke: #b0b0b0; stroke-opacity: 0.3; stroke-width: 0.8; stroke-linecap: square"/>
     </g>
     <g id="line2d_12">
      <g>
       <use xlink:href="#mc5e4e443b8" x="383.999549" y="355.717969" style="stroke: #000000; stroke-width: 0.8"/>
      </g>
     </g>
     <g id="text_6">
      <!-- 125000 -->
      <g transform="translate(364.912049 370.316406) scale(0.1 -0.1)">
       <use xlink:href="#DejaVuSans-31"/>
       <use xlink:href="#DejaVuSans-32" x="63.623047"/>
       <use xlink:href="#DejaVuSans-35" x="127.246094"/>
       <use xlink:href="#DejaVuSans-30" x="190.869141"/>
       <use xlink:href="#DejaVuSans-30" x="254.492188"/>
       <use xlink:href="#DejaVuSans-30" x="318.115234"/>
      </g>
     </g>
    </g>
    <g id="xtick_7">
     <g id="line2d_13">
      <path d="M 447.218982 355.717969 
L 447.218982 23.077969 
" clip-path="url(#pf75ca13664)" style="fill: none; stroke: #b0b0b0; stroke-opacity: 0.3; stroke-width: 0.8; stroke-linecap: square"/>
     </g>
     <g id="line2d_14">
      <g>
       <use xlink:href="#mc5e4e443b8" x="447.218982" y="355.717969" style="stroke: #000000; stroke-width: 0.8"/>
      </g>
     </g>
     <g id="text_7">
      <!-- 150000 -->
      <g transform="translate(428.131482 370.316406) scale(0.1 -0.1)">
       <use xlink:href="#DejaVuSans-31"/>
       <use xlink:href="#DejaVuSans-35" x="63.623047"/>
       <use xlink:href="#DejaVuSans-30" x="127.246094"/>
       <use xlink:href="#DejaVuSans-30" x="190.869141"/>
       <use xlink:href="#DejaVuSans-30" x="254.492188"/>
       <use xlink:href="#DejaVuSans-30" x="318.115234"/>
      </g>
     </g>
    </g>
    <g id="xtick_8">
     <g id="line2d_15">
      <path d="M 510.438415 355.717969 
L 510.438415 23.077969 
" clip-path="url(#pf75ca13664)" style="fill: none; stroke: #b0b0b0; stroke-opacity: 0.3; stroke-width: 0.8; stroke-linecap: square"/>
     </g>
     <g id="line2d_16">
      <g>
       <use xlink:href="#mc5e4e443b8" x="510.438415" y="355.717969" style="stroke: #000000; stroke-width: 0.8"/>
      </g>
     </g>
     <g id="text_8">
      <!-- 175000 -->
      <g transform="translate(491.350915 370.316406) scale(0.1 -0.1)">
       <use xlink:href="#DejaVuSans-31"/>
       <use xlink:href="#DejaVuSans-37" x="63.623047"/>
       <use xlink:href="#DejaVuSans-35" x="127.246094"/>
       <use xlink:href="#DejaVuSans-30" x="190.869141"/>
       <use xlink:href="#DejaVuSans-30" x="254.492188"/>
       <use xlink:href="#DejaVuSans-30" x="318.115234"/>
      </g>
     </g>
    </g>
    <g id="xtick_9">
     <g id="line2d_17">
      <path d="M 573.657847 355.717969 
L 573.657847 23.077969 
" clip-path="url(#pf75ca13664)" style="fill: none; stroke: #b0b0b0; stroke-opacity: 0.3; stroke-width: 0.8; stroke-linecap: square"/>
     </g>
     <g id="line2d_18">
      <g>
       <use xlink:href="#mc5e4e443b8" x="573.657847" y="355.717969" style="stroke: #000000; stroke-width: 0.8"/>
      </g>
     </g>
     <g id="text_9">
      <!-- 200000 -->
      <g transform="translate(554.570347 370.316406) scale(0.1 -0.1)">
       <use xlink:href="#DejaVuSans-32"/>
       <use xlink:href="#DejaVuSans-30" x="63.623047"/>
       <use xlink:href="#DejaVuSans-30" x="127.246094"/>
       <use xlink:href="#DejaVuSans-30" x="190.869141"/>
       <use xlink:href="#DejaVuSans-30" x="254.492188"/>
       <use xlink:href="#DejaVuSans-30" x="318.115234"/>
      </g>
     </g>
    </g>
    <g id="text_10">
     <!-- Env steps -->
     <g transform="translate(292.3825 385.514219) scale(0.12 -0.12)">
      <defs>
       <path id="DejaVuSans-45" d="M 628 4666 
L 3578 4666 
L 3578 4134 
L 1259 4134 
L 1259 2753 
L 3481 2753 
L 3481 2222 
L 1259 2222 
L 1259 531 
L 3634 531 
L 3634 0 
L 628 0 
L 628 4666 
z
" transform="scale(0.015625)"/>
       <path id="DejaVuSans-6e" d="M 3513 2113 
L 3513 0 
L 2938 0 
L 2938 2094 
Q 2938 2591 2744 2837 
Q 2550 3084 2163 3084 
Q 1697 3084 1428 2787 
Q 1159 2491 1159 1978 
L 1159 0 
L 581 0 
L 581 3500 
L 1159 3500 
L 1159 2956 
Q 1366 3272 1645 3428 
Q 1925 3584 2291 3584 
Q 2894 3584 3203 3211 
Q 3513 2838 3513 2113 
z
" transform="scale(0.015625)"/>
       <path id="DejaVuSans-76" d="M 191 3500 
L 800 3500 
L 1894 563 
L 2988 3500 
L 3597 3500 
L 2284 0 
L 1503 0 
L 191 3500 
z
" transform="scale(0.015625)"/>
       <path id="DejaVuSans-20" transform="scale(0.015625)"/>
       <path id="DejaVuSans-73" d="M 2834 3397 
L 2834 2853 
Q 2591 2978 2328 3040 
Q 2066 3103 1784 3103 
Q 1356 3103 1142 2972 
Q 928 2841 928 2578 
Q 928 2378 1081 2264 
Q 1234 2150 1697 2047 
L 1894 2003 
Q 2506 1872 2764 1633 
Q 3022 1394 3022 966 
Q 3022 478 2636 193 
Q 2250 -91 1575 -91 
Q 1294 -91 989 -36 
Q 684 19 347 128 
L 347 722 
Q 666 556 975 473 
Q 1284 391 1588 391 
Q 1994 391 2212 530 
Q 2431 669 2431 922 
Q 2431 1156 2273 1281 
Q 2116 1406 1581 1522 
L 1381 1569 
Q 847 1681 609 1914 
Q 372 2147 372 2553 
Q 372 3047 722 3315 
Q 1072 3584 1716 3584 
Q 2034 3584 2315 3537 
Q 2597 3491 2834 3397 
z
" transform="scale(0.015625)"/>
       <path id="DejaVuSans-74" d="M 1172 4494 
L 1172 3500 
L 2356 3500 
L 2356 3053 
L 1172 3053 
L 1172 1153 
Q 1172 725 1289 603 
Q 1406 481 1766 481 
L 2356 481 
L 2356 0 
L 1766 0 
Q 1100 0 847 248 
Q 594 497 594 1153 
L 594 3053 
L 172 3053 
L 172 3500 
L 594 3500 
L 594 4494 
L 1172 4494 
z
" transform="scale(0.015625)"/>
       <path id="DejaVuSans-65" d="M 3597 1894 
L 3597 1613 
L 953 1613 
Q 991 1019 1311 708 
Q 1631 397 2203 397 
Q 2534 397 2845 478 
Q 3156 559 3463 722 
L 3463 178 
Q 3153 47 2828 -22 
Q 2503 -91 2169 -91 
Q 1331 -91 842 396 
Q 353 884 353 1716 
Q 353 2575 817 3079 
Q 1281 3584 2069 3584 
Q 2775 3584 3186 3129 
Q 3597 2675 3597 1894 
z
M 3022 2063 
Q 3016 2534 2758 2815 
Q 2500 3097 2075 3097 
Q 1594 3097 1305 2825 
Q 1016 2553 972 2059 
L 3022 2063 
z
" transform="scale(0.015625)"/>
       <path id="DejaVuSans-70" d="M 1159 525 
L 1159 -1331 
L 581 -1331 
L 581 3500 
L 1159 3500 
L 1159 2969 
Q 1341 3281 1617 3432 
Q 1894 3584 2278 3584 
Q 2916 3584 3314 3078 
Q 3713 2572 3713 1747 
Q 3713 922 3314 415 
Q 2916 -91 2278 -91 
Q 1894 -91 1617 61 
Q 1341 213 1159 525 
z
M 3116 1747 
Q 3116 2381 2855 2742 
Q 2594 3103 2138 3103 
Q 1681 3103 1420 2742 
Q 1159 2381 1159 1747 
Q 1159 1113 1420 752 
Q 1681 391 2138 391 
Q 2594 391 2855 752 
Q 3116 1113 3116 1747 
z
" transform="scale(0.015625)"/>
      </defs>
      <use xlink:href="#DejaVuSans-45"/>
      <use xlink:href="#DejaVuSans-6e" x="63.183594"/>
      <use xlink:href="#DejaVuSans-76" x="126.5625"/>
      <use xlink:href="#DejaVuSans-20" x="185.742188"/>
      <use xlink:href="#DejaVuSans-73" x="217.529297"/>
      <use xlink:href="#DejaVuSans-74" x="269.628906"/>
      <use xlink:href="#DejaVuSans-65" x="308.837891"/>
      <use xlink:href="#DejaVuSans-70" x="370.361328"/>
      <use xlink:href="#DejaVuSans-73" x="433.837891"/>
     </g>
    </g>
   </g>
   <g id="matplotlib.axis_2">
    <g id="ytick_1">
     <g id="line2d_19">
      <path d="M 42.53875 327.145839 
L 600.53875 327.145839 
" clip-path="url(#pf75ca13664)" style="fill: none; stroke: #b0b0b0; stroke-opacity: 0.3; stroke-width: 0.8; stroke-linecap: square"/>
     </g>
     <g id="line2d_20">
      <defs>
       <path id="mba9d3070fb" d="M 0 0 
L -3.5 0 
" style="stroke: #000000; stroke-width: 0.8"/>
      </defs>
      <g>
       <use xlink:href="#mba9d3070fb" x="42.53875" y="327.145839" style="stroke: #000000; stroke-width: 0.8"/>
      </g>
     </g>
     <g id="text_11">
      <!-- 10 -->
      <g transform="translate(22.81375 330.945058) scale(0.1 -0.1)">
       <use xlink:href="#DejaVuSans-31"/>
       <use xlink:href="#DejaVuSans-30" x="63.623047"/>
      </g>
     </g>
    </g>
    <g id="ytick_2">
     <g id="line2d_21">
      <path d="M 42.53875 265.401881 
L 600.53875 265.401881 
" clip-path="url(#pf75ca13664)" style="fill: none; stroke: #b0b0b0; stroke-opacity: 0.3; stroke-width: 0.8; stroke-linecap: square"/>
     </g>
     <g id="line2d_22">
      <g>
       <use xlink:href="#mba9d3070fb" x="42.53875" y="265.401881" style="stroke: #000000; stroke-width: 0.8"/>
      </g>
     </g>
     <g id="text_12">
      <!-- 20 -->
      <g transform="translate(22.81375 269.2011) scale(0.1 -0.1)">
       <use xlink:href="#DejaVuSans-32"/>
       <use xlink:href="#DejaVuSans-30" x="63.623047"/>
      </g>
     </g>
    </g>
    <g id="ytick_3">
     <g id="line2d_23">
      <path d="M 42.53875 203.657923 
L 600.53875 203.657923 
" clip-path="url(#pf75ca13664)" style="fill: none; stroke: #b0b0b0; stroke-opacity: 0.3; stroke-width: 0.8; stroke-linecap: square"/>
     </g>
     <g id="line2d_24">
      <g>
       <use xlink:href="#mba9d3070fb" x="42.53875" y="203.657923" style="stroke: #000000; stroke-width: 0.8"/>
      </g>
     </g>
     <g id="text_13">
      <!-- 30 -->
      <g transform="translate(22.81375 207.457142) scale(0.1 -0.1)">
       <defs>
        <path id="DejaVuSans-33" d="M 2597 2516 
Q 3050 2419 3304 2112 
Q 3559 1806 3559 1356 
Q 3559 666 3084 287 
Q 2609 -91 1734 -91 
Q 1441 -91 1130 -33 
Q 819 25 488 141 
L 488 750 
Q 750 597 1062 519 
Q 1375 441 1716 441 
Q 2309 441 2620 675 
Q 2931 909 2931 1356 
Q 2931 1769 2642 2001 
Q 2353 2234 1838 2234 
L 1294 2234 
L 1294 2753 
L 1863 2753 
Q 2328 2753 2575 2939 
Q 2822 3125 2822 3475 
Q 2822 3834 2567 4026 
Q 2313 4219 1838 4219 
Q 1578 4219 1281 4162 
Q 984 4106 628 3988 
L 628 4550 
Q 988 4650 1302 4700 
Q 1616 4750 1894 4750 
Q 2613 4750 3031 4423 
Q 3450 4097 3450 3541 
Q 3450 3153 3228 2886 
Q 3006 2619 2597 2516 
z
" transform="scale(0.015625)"/>
       </defs>
       <use xlink:href="#DejaVuSans-33"/>
       <use xlink:href="#DejaVuSans-30" x="63.623047"/>
      </g>
     </g>
    </g>
    <g id="ytick_4">
     <g id="line2d_25">
      <path d="M 42.53875 141.913965 
L 600.53875 141.913965 
" clip-path="url(#pf75ca13664)" style="fill: none; stroke: #b0b0b0; stroke-opacity: 0.3; stroke-width: 0.8; stroke-linecap: square"/>
     </g>
     <g id="line2d_26">
      <g>
       <use xlink:href="#mba9d3070fb" x="42.53875" y="141.913965" style="stroke: #000000; stroke-width: 0.8"/>
      </g>
     </g>
     <g id="text_14">
      <!-- 40 -->
      <g transform="translate(22.81375 145.713184) scale(0.1 -0.1)">
       <defs>
        <path id="DejaVuSans-34" d="M 2419 4116 
L 825 1625 
L 2419 1625 
L 2419 4116 
z
M 2253 4666 
L 3047 4666 
L 3047 1625 
L 3713 1625 
L 3713 1100 
L 3047 1100 
L 3047 0 
L 2419 0 
L 2419 1100 
L 313 1100 
L 313 1709 
L 2253 4666 
z
" transform="scale(0.015625)"/>
       </defs>
       <use xlink:href="#DejaVuSans-34"/>
       <use xlink:href="#DejaVuSans-30" x="63.623047"/>
      </g>
     </g>
    </g>
    <g id="ytick_5">
     <g id="line2d_27">
      <path d="M 42.53875 80.170007 
L 600.53875 80.170007 
" clip-path="url(#pf75ca13664)" style="fill: none; stroke: #b0b0b0; stroke-opacity: 0.3; stroke-width: 0.8; stroke-linecap: square"/>
     </g>
     <g id="line2d_28">
      <g>
       <use xlink:href="#mba9d3070fb" x="42.53875" y="80.170007" style="stroke: #000000; stroke-width: 0.8"/>
      </g>
     </g>
     <g id="text_15">
      <!-- 50 -->
      <g transform="translate(22.81375 83.969226) scale(0.1 -0.1)">
       <use xlink:href="#DejaVuSans-35"/>
       <use xlink:href="#DejaVuSans-30" x="63.623047"/>
      </g>
     </g>
    </g>
    <g id="text_16">
     <!-- Episode return (smoothed) -->
     <g transform="translate(16.318125 269.768906) rotate(-90) scale(0.12 -0.12)">
      <defs>
       <path id="DejaVuSans-69" d="M 603 3500 
L 1178 3500 
L 1178 0 
L 603 0 
L 603 3500 
z
M 603 4863 
L 1178 4863 
L 1178 4134 
L 603 4134 
L 603 4863 
z
" transform="scale(0.015625)"/>
       <path id="DejaVuSans-6f" d="M 1959 3097 
Q 1497 3097 1228 2736 
Q 959 2375 959 1747 
Q 959 1119 1226 758 
Q 1494 397 1959 397 
Q 2419 397 2687 759 
Q 2956 1122 2956 1747 
Q 2956 2369 2687 2733 
Q 2419 3097 1959 3097 
z
M 1959 3584 
Q 2709 3584 3137 3096 
Q 3566 2609 3566 1747 
Q 3566 888 3137 398 
Q 2709 -91 1959 -91 
Q 1206 -91 779 398 
Q 353 888 353 1747 
Q 353 2609 779 3096 
Q 1206 3584 1959 3584 
z
" transform="scale(0.015625)"/>
       <path id="DejaVuSans-64" d="M 2906 2969 
L 2906 4863 
L 3481 4863 
L 3481 0 
L 2906 0 
L 2906 525 
Q 2725 213 2448 61 
Q 2172 -91 1784 -91 
Q 1150 -91 751 415 
Q 353 922 353 1747 
Q 353 2572 751 3078 
Q 1150 3584 1784 3584 
Q 2172 3584 2448 3432 
Q 2725 3281 2906 2969 
z
M 947 1747 
Q 947 1113 1208 752 
Q 1469 391 1925 391 
Q 2381 391 2643 752 
Q 2906 1113 2906 1747 
Q 2906 2381 2643 2742 
Q 2381 3103 1925 3103 
Q 1469 3103 1208 2742 
Q 947 2381 947 1747 
z
" transform="scale(0.015625)"/>
       <path id="DejaVuSans-72" d="M 2631 2963 
Q 2534 3019 2420 3045 
Q 2306 3072 2169 3072 
Q 1681 3072 1420 2755 
Q 1159 2438 1159 1844 
L 1159 0 
L 581 0 
L 581 3500 
L 1159 3500 
L 1159 2956 
Q 1341 3275 1631 3429 
Q 1922 3584 2338 3584 
Q 2397 3584 2469 3576 
Q 2541 3569 2628 3553 
L 2631 2963 
z
" transform="scale(0.015625)"/>
       <path id="DejaVuSans-75" d="M 544 1381 
L 544 3500 
L 1119 3500 
L 1119 1403 
Q 1119 906 1312 657 
Q 1506 409 1894 409 
Q 2359 409 2629 706 
Q 2900 1003 2900 1516 
L 2900 3500 
L 3475 3500 
L 3475 0 
L 2900 0 
L 2900 538 
Q 2691 219 2414 64 
Q 2138 -91 1772 -91 
Q 1169 -91 856 284 
Q 544 659 544 1381 
z
M 1991 3584 
L 1991 3584 
z
" transform="scale(0.015625)"/>
       <path id="DejaVuSans-28" d="M 1984 4856 
Q 1566 4138 1362 3434 
Q 1159 2731 1159 2009 
Q 1159 1288 1364 580 
Q 1569 -128 1984 -844 
L 1484 -844 
Q 1016 -109 783 600 
Q 550 1309 550 2009 
Q 550 2706 781 3412 
Q 1013 4119 1484 4856 
L 1984 4856 
z
" transform="scale(0.015625)"/>
       <path id="DejaVuSans-6d" d="M 3328 2828 
Q 3544 3216 3844 3400 
Q 4144 3584 4550 3584 
Q 5097 3584 5394 3201 
Q 5691 2819 5691 2113 
L 5691 0 
L 5113 0 
L 5113 2094 
Q 5113 2597 4934 2840 
Q 4756 3084 4391 3084 
Q 3944 3084 3684 2787 
Q 3425 2491 3425 1978 
L 3425 0 
L 2847 0 
L 2847 2094 
Q 2847 2600 2669 2842 
Q 2491 3084 2119 3084 
Q 1678 3084 1418 2786 
Q 1159 2488 1159 1978 
L 1159 0 
L 581 0 
L 581 3500 
L 1159 3500 
L 1159 2956 
Q 1356 3278 1631 3431 
Q 1906 3584 2284 3584 
Q 2666 3584 2933 3390 
Q 3200 3197 3328 2828 
z
" transform="scale(0.015625)"/>
       <path id="DejaVuSans-68" d="M 3513 2113 
L 3513 0 
L 2938 0 
L 2938 2094 
Q 2938 2591 2744 2837 
Q 2550 3084 2163 3084 
Q 1697 3084 1428 2787 
Q 1159 2491 1159 1978 
L 1159 0 
L 581 0 
L 581 4863 
L 1159 4863 
L 1159 2956 
Q 1366 3272 1645 3428 
Q 1925 3584 2291 3584 
Q 2894 3584 3203 3211 
Q 3513 2838 3513 2113 
z
" transform="scale(0.015625)"/>
       <path id="DejaVuSans-29" d="M 513 4856 
L 1013 4856 
Q 1481 4119 1714 3412 
Q 1947 2706 1947 2009 
Q 1947 1309 1714 600 
Q 1481 -109 1013 -844 
L 513 -844 
Q 928 -128 1133 580 
Q 1338 1288 1338 2009 
Q 1338 2731 1133 3434 
Q 928 4138 513 4856 
z
" transform="scale(0.015625)"/>
      </defs>
      <use xlink:href="#DejaVuSans-45"/>
      <use xlink:href="#DejaVuSans-70" x="63.183594"/>
      <use xlink:href="#DejaVuSans-69" x="126.660156"/>
      <use xlink:href="#DejaVuSans-73" x="154.443359"/>
      <use xlink:href="#DejaVuSans-6f" x="206.542969"/>
      <use xlink:href="#DejaVuSans-64" x="267.724609"/>
      <use xlink:href="#DejaVuSans-65" x="331.201172"/>
      <use xlink:href="#DejaVuSans-20" x="392.724609"/>
      <use xlink:href="#DejaVuSans-72" x="424.511719"/>
      <use xlink:href="#DejaVuSans-65" x="463.375"/>
      <use xlink:href="#DejaVuSans-74" x="524.898438"/>
      <use xlink:href="#DejaVuSans-75" x="564.107422"/>
      <use xlink:href="#DejaVuSans-72" x="627.486328"/>
      <use xlink:href="#DejaVuSans-6e" x="666.849609"/>
      <use xlink:href="#DejaVuSans-20" x="730.228516"/>
      <use xlink:href="#DejaVuSans-28" x="762.015625"/>
      <use xlink:href="#DejaVuSans-73" x="801.029297"/>
      <use xlink:href="#DejaVuSans-6d" x="853.128906"/>
      <use xlink:href="#DejaVuSans-6f" x="950.541016"/>
      <use xlink:href="#DejaVuSans-6f" x="1011.722656"/>
      <use xlink:href="#DejaVuSans-74" x="1072.904297"/>
      <use xlink:href="#DejaVuSans-68" x="1112.113281"/>
      <use xlink:href="#DejaVuSans-65" x="1175.492188"/>
      <use xlink:href="#DejaVuSans-64" x="1237.015625"/>
      <use xlink:href="#DejaVuSans-29" x="1300.492188"/>
     </g>
    </g>
   </g>
   <g id="line2d_29">
    <path d="M 67.902386 171.443013 
L 76.801908 171.443013 
L 78.073268 172.154538 
L 79.344628 180.0426 
L 80.615989 197.602992 
L 81.887349 184.101143 
L 83.158709 183.020933 
L 84.430069 178.970785 
L 85.701429 172.23431 
L 86.97279 176.159694 
L 88.24415 178.448669 
L 89.51551 170.797293 
L 90.78687 160.805295 
L 92.058231 169.042349 
L 94.600951 189.489309 
L 95.872311 194.597384 
L 97.143671 208.615738 
L 98.415032 201.719604 
L 99.686392 210.847032 
L 100.957752 207.551506 
L 102.229112 196.902414 
L 103.500472 194.65847 
L 104.771833 188.226111 
L 106.043193 186.888751 
L 107.314553 175.079175 
L 108.585913 171.315927 
L 109.857274 172.154925 
L 111.128634 179.799802 
L 112.399994 190.58364 
L 114.942714 178.206491 
L 116.214075 172.869004 
L 117.485435 171.982808 
L 118.756795 182.522649 
L 121.299516 191.543921 
L 122.570876 183.008631 
L 123.842236 185.644433 
L 125.113596 191.094304 
L 126.384956 204.134698 
L 127.656317 203.568479 
L 128.927677 202.830298 
L 130.199037 190.531645 
L 131.470397 186.12968 
L 132.741758 186.753425 
L 134.013118 182.328287 
L 135.284478 175.505309 
L 136.555838 175.367932 
L 137.827198 179.430925 
L 139.098559 182.300742 
L 140.369919 184.459962 
L 141.641279 182.424075 
L 142.912639 177.472256 
L 144.183999 177.67451 
L 145.45536 186.309379 
L 146.72672 188.335401 
L 147.99808 175.30201 
L 149.26944 174.871543 
L 150.540801 177.487615 
L 151.812161 177.007977 
L 153.083521 178.613281 
L 154.354881 182.052799 
L 155.626241 181.876001 
L 156.897602 172.350216 
L 158.168962 183.192586 
L 159.440322 184.773556 
L 160.711682 189.190648 
L 161.983043 190.307842 
L 163.254403 191.668105 
L 164.525763 185.951373 
L 165.797123 182.487057 
L 167.068483 191.252726 
L 169.611204 174.535859 
L 170.882564 170.661928 
L 172.153924 164.534111 
L 173.425285 173.73516 
L 174.696645 186.706769 
L 175.968005 186.301836 
L 177.239365 171.606967 
L 178.510725 169.769891 
L 179.782086 171.822065 
L 181.053446 167.948947 
L 182.324806 167.173859 
L 183.596166 160.870443 
L 184.867526 152.06926 
L 186.138887 151.748315 
L 187.410247 162.963006 
L 188.681607 162.290941 
L 191.224328 155.149687 
L 192.495688 151.320169 
L 193.767048 146.289662 
L 195.038408 145.528965 
L 196.309768 140.700673 
L 197.581129 136.756603 
L 198.852489 141.211879 
L 200.123849 144.52462 
L 201.395209 143.245522 
L 202.66657 146.883077 
L 203.93793 146.129228 
L 205.20929 145.073352 
L 206.48065 142.555235 
L 207.75201 142.608081 
L 209.023371 138.321557 
L 210.294731 135.311153 
L 211.566091 137.400659 
L 212.837451 131.810007 
L 214.108812 131.723968 
L 215.380172 131.864362 
L 216.651532 139.833704 
L 217.922892 137.58682 
L 219.194252 132.689742 
L 220.465613 139.618413 
L 221.736973 139.555779 
L 223.008333 151.967669 
L 224.279693 157.201862 
L 225.551053 154.510119 
L 226.822414 158.074324 
L 228.093774 160.757246 
L 229.365134 163.865489 
L 230.636494 150.772675 
L 231.907855 154.756128 
L 233.179215 147.197986 
L 234.450575 147.039255 
L 235.721935 153.883124 
L 236.993295 146.256623 
L 238.264656 137.694678 
L 239.536016 141.391462 
L 240.807376 146.765624 
L 242.078736 147.074073 
L 243.350097 150.582027 
L 244.621457 142.35008 
L 245.892817 136.849606 
L 247.164177 132.543275 
L 248.435537 138.976639 
L 249.706898 139.362655 
L 250.978258 141.49847 
L 252.249618 136.237892 
L 253.520978 133.449201 
L 254.792339 134.300772 
L 256.063699 137.576258 
L 257.335059 141.763667 
L 258.606419 136.351206 
L 259.877779 128.492507 
L 261.14914 126.913858 
L 262.4205 131.89624 
L 263.69186 136.088368 
L 264.96322 143.613897 
L 266.23458 143.933526 
L 267.505941 144.576692 
L 268.777301 147.60675 
L 270.048661 147.036624 
L 271.320021 150.062465 
L 272.591382 146.465415 
L 273.862742 139.851693 
L 275.134102 135.588304 
L 276.405462 135.585673 
L 277.676822 134.751085 
L 278.948183 143.74489 
L 280.219543 155.07773 
L 281.490903 155.42533 
L 282.762263 157.895205 
L 284.033624 159.937668 
L 285.304984 164.055789 
L 286.576344 161.027859 
L 287.847704 154.663512 
L 289.119064 151.393868 
L 290.390425 151.462072 
L 291.661785 148.404818 
L 292.933145 147.400473 
L 294.204505 138.796282 
L 295.475866 139.028673 
L 296.747226 143.801218 
L 298.018586 157.963138 
L 299.289946 150.462253 
L 300.561306 144.344959 
L 301.832667 144.528218 
L 303.104027 139.723718 
L 304.375387 153.937324 
L 305.646747 159.574284 
L 306.918107 155.211277 
L 308.189468 151.983105 
L 309.460828 155.706389 
L 310.732188 164.18214 
L 312.003548 166.1393 
L 313.274909 165.838859 
L 314.546269 154.070213 
L 317.088989 147.649654 
L 318.360349 147.53193 
L 319.63171 153.138831 
L 320.90307 143.189929 
L 322.17443 143.408896 
L 323.44579 153.432579 
L 324.717151 160.779994 
L 325.988511 156.082037 
L 327.259871 152.810613 
L 328.531231 146.068799 
L 331.073952 139.095794 
L 332.345312 141.552438 
L 333.616672 135.29413 
L 334.888032 137.907107 
L 336.159393 138.604744 
L 337.430753 140.53579 
L 338.702113 160.203175 
L 339.973473 161.899393 
L 341.244833 175.165137 
L 342.516194 179.507331 
L 343.787554 182.067036 
L 345.058914 177.783684 
L 347.601634 183.705262 
L 348.872995 168.40073 
L 350.144355 165.255154 
L 351.415715 168.919403 
L 352.687075 160.61426 
L 353.958436 160.419163 
L 355.229796 162.349281 
L 356.501156 168.068682 
L 357.772516 167.687657 
L 359.043876 159.720907 
L 360.315237 158.833395 
L 361.586597 147.846259 
L 362.857957 149.822956 
L 364.129317 148.617169 
L 365.400678 138.43402 
L 366.672038 129.198849 
L 367.943398 126.856215 
L 369.214758 129.854279 
L 370.486118 126.88229 
L 371.757479 122.773609 
L 373.028839 117.46359 
L 374.300199 109.821227 
L 375.571559 107.603745 
L 376.84292 108.212325 
L 378.11428 109.107264 
L 379.38564 112.908928 
L 380.657 122.053533 
L 381.92836 125.327627 
L 383.199721 125.769119 
L 384.471081 131.305146 
L 385.742441 134.717235 
L 387.013801 137.671853 
L 388.285161 142.420915 
L 389.556522 137.998253 
L 390.827882 131.144828 
L 392.099242 134.433777 
L 393.370602 126.553917 
L 394.641963 119.821853 
L 395.913323 117.361805 
L 397.184683 120.623944 
L 398.456043 106.401633 
L 399.727403 103.248784 
L 400.998764 100.979423 
L 402.270124 99.077546 
L 403.541484 109.728534 
L 404.812844 112.565468 
L 406.084205 114.509938 
L 407.355565 109.316289 
L 408.626925 114.396199 
L 409.898285 127.473345 
L 411.169645 131.464961 
L 412.441006 126.46281 
L 413.712366 118.905984 
L 414.983726 123.00244 
L 416.255086 123.533725 
L 417.526447 115.567903 
L 418.797807 125.246346 
L 420.069167 120.738843 
L 421.340527 118.375319 
L 422.611887 132.44149 
L 423.883248 132.277574 
L 425.154608 132.912733 
L 426.425968 131.201272 
L 427.697328 141.637897 
L 430.240049 124.654323 
L 431.511409 124.925556 
L 432.782769 118.329939 
L 434.054129 128.502875 
L 435.32549 131.458887 
L 436.59685 143.909773 
L 437.86821 138.814 
L 439.13957 140.575135 
L 440.41093 142.582045 
L 441.682291 147.52779 
L 442.953651 140.611384 
L 444.225011 135.643897 
L 445.496371 129.11486 
L 446.767732 118.963163 
L 449.310452 123.405865 
L 450.581812 126.378589 
L 451.853172 128.326503 
L 453.124533 136.263928 
L 454.395893 137.830043 
L 455.667253 137.834685 
L 456.938613 141.1388 
L 458.209974 130.380302 
L 459.481334 126.846814 
L 460.752694 123.74743 
L 462.024054 127.307147 
L 463.295414 123.608003 
L 464.566775 117.354029 
L 465.838135 124.970316 
L 467.109495 120.744105 
L 468.380855 129.147589 
L 469.652215 129.420021 
L 470.923576 133.478255 
L 472.194936 121.967765 
L 473.466296 121.802418 
L 474.737656 122.438466 
L 476.009017 117.117963 
L 477.280377 126.753386 
L 478.551737 126.336111 
L 479.823097 136.347376 
L 481.094457 136.284781 
L 482.365818 147.07593 
L 483.637178 151.366593 
L 484.908538 156.675026 
L 486.179898 164.044841 
L 488.722619 159.117549 
L 489.993979 159.240225 
L 491.265339 155.96118 
L 492.536699 150.596109 
L 493.80806 152.452645 
L 495.07942 149.517408 
L 496.35078 142.250849 
L 497.62214 140.051355 
L 498.893501 135.66854 
L 500.164861 136.038037 
L 501.436221 135.011408 
L 502.707581 134.789153 
L 503.978941 132.140005 
L 505.250302 144.608957 
L 506.521662 152.825585 
L 507.793022 153.355205 
L 509.064382 157.379782 
L 510.335742 154.491859 
L 511.607103 156.167728 
L 512.878463 150.486626 
L 514.149823 141.980583 
L 515.421183 136.783529 
L 516.692544 126.981792 
L 517.963904 128.773063 
L 519.235264 123.969685 
L 520.506624 124.130041 
L 521.777984 122.381751 
L 523.049345 132.09447 
L 524.320705 143.164203 
L 525.592065 140.16169 
L 526.863425 147.547366 
L 528.134786 147.097827 
L 529.406146 151.366942 
L 530.677506 151.845805 
L 531.948866 149.693549 
L 533.220226 142.722439 
L 534.491587 145.98365 
L 535.762947 138.467522 
L 537.034307 126.861902 
L 539.577028 128.617079 
L 540.848388 121.148613 
L 542.119748 120.454999 
L 543.391108 121.687132 
L 544.662468 115.148539 
L 545.933829 122.524505 
L 547.205189 131.05639 
L 548.476549 131.274506 
L 551.019269 134.171714 
L 552.29063 127.987801 
L 553.56199 132.636161 
L 554.83335 134.801146 
L 556.10471 137.526662 
L 557.376071 141.308982 
L 558.647431 141.943986 
L 559.918791 143.792861 
L 561.190151 140.523952 
L 562.461511 147.386004 
L 563.732872 152.186558 
L 565.004232 147.875893 
L 566.275592 148.988793 
L 567.546952 151.265737 
L 568.818313 144.901274 
L 570.089673 150.039021 
L 572.632393 148.193666 
L 573.903753 142.814746 
L 575.175114 146.575634 
L 575.175114 146.575634 
" clip-path="url(#pf75ca13664)" style="fill: none; stroke: #0000ff; stroke-width: 2; stroke-linecap: square"/>
   </g>
   <g id="line2d_30">
    <path d="M 67.902386 198.641226 
L 76.801908 198.641226 
L 78.073268 198.991882 
L 79.344628 198.417462 
L 80.615989 206.600974 
L 81.887349 205.969259 
L 83.158709 219.716691 
L 84.430069 216.975352 
L 85.701429 218.081907 
L 86.97279 207.881465 
L 88.24415 202.627812 
L 89.51551 203.617882 
L 90.78687 192.35019 
L 92.058231 186.809173 
L 93.329591 186.242761 
L 94.600951 186.726267 
L 95.872311 182.290993 
L 97.143671 184.419419 
L 98.415032 199.700739 
L 99.686392 211.764912 
L 100.957752 219.880451 
L 102.229112 215.745695 
L 103.500472 212.419065 
L 104.771833 217.521337 
L 106.043193 208.06159 
L 107.314553 215.883459 
L 108.585913 203.197164 
L 109.857274 193.762293 
L 111.128634 190.095375 
L 112.399994 198.731947 
L 113.671354 192.940239 
L 114.942714 190.734402 
L 116.214075 206.047561 
L 117.485435 217.777211 
L 118.756795 225.386264 
L 120.028155 223.718945 
L 121.299516 221.662786 
L 122.570876 219.035728 
L 123.842236 218.461733 
L 125.113596 207.515876 
L 126.384956 204.221085 
L 127.656317 198.954782 
L 128.927677 190.500773 
L 130.199037 199.587425 
L 131.470397 197.152137 
L 132.741758 195.045337 
L 134.013118 190.149885 
L 135.284478 198.233043 
L 136.555838 202.882061 
L 137.827198 193.49698 
L 139.098559 197.983166 
L 140.369919 193.545145 
L 141.641279 193.572187 
L 142.912639 195.271732 
L 144.183999 208.579566 
L 145.45536 212.369276 
L 146.72672 209.667359 
L 147.99808 217.311462 
L 149.26944 214.372859 
L 150.540801 219.047063 
L 151.812161 217.907082 
L 153.083521 223.951297 
L 154.354881 227.424163 
L 155.626241 227.053196 
L 156.897602 230.418242 
L 158.168962 214.454179 
L 159.440322 204.460826 
L 160.711682 202.865968 
L 161.983043 207.110749 
L 163.254403 204.776278 
L 164.525763 200.521477 
L 165.797123 206.949038 
L 167.068483 204.135046 
L 168.339844 212.201066 
L 169.611204 237.350974 
L 170.882564 228.088684 
L 172.153924 231.723105 
L 173.425285 229.243211 
L 174.696645 226.032796 
L 175.968005 224.377083 
L 177.239365 223.299388 
L 178.510725 221.900477 
L 179.782086 213.326152 
L 181.053446 220.013688 
L 182.324806 217.386088 
L 183.596166 221.94605 
L 184.867526 223.1653 
L 186.138887 226.180424 
L 187.410247 233.382803 
L 188.681607 244.274421 
L 189.952967 241.09983 
L 191.224328 236.105765 
L 192.495688 233.192387 
L 193.767048 231.198049 
L 195.038408 229.93725 
L 196.309768 232.563573 
L 197.581129 231.8611 
L 198.852489 235.80192 
L 200.123849 236.978963 
L 201.395209 243.853239 
L 202.66657 241.776925 
L 203.93793 231.825509 
L 205.20929 235.958253 
L 206.48065 233.523274 
L 207.75201 219.608174 
L 209.023371 209.909499 
L 210.294731 211.445244 
L 211.566091 210.291607 
L 212.837451 215.140094 
L 214.108812 228.173756 
L 215.380172 226.878139 
L 216.651532 223.710086 
L 217.922892 235.016387 
L 219.194252 227.741316 
L 220.465613 231.0864 
L 221.736973 231.134255 
L 223.008333 230.453601 
L 224.279693 225.173255 
L 225.551053 227.382961 
L 226.822414 222.121339 
L 228.093774 217.872032 
L 229.365134 230.545598 
L 230.636494 227.509196 
L 231.907855 230.100933 
L 233.179215 221.785964 
L 234.450575 219.521555 
L 235.721935 215.480498 
L 236.993295 221.465909 
L 238.264656 232.180923 
L 239.536016 229.782465 
L 240.807376 224.443469 
L 242.078736 222.695256 
L 243.350097 223.423649 
L 244.621457 223.098642 
L 245.892817 228.085241 
L 247.164177 219.357717 
L 248.435537 205.491401 
L 249.706898 211.164108 
L 250.978258 215.493149 
L 252.249618 221.681897 
L 253.520978 230.06774 
L 254.792339 227.729942 
L 256.063699 221.863106 
L 257.335059 233.111145 
L 258.606419 241.427352 
L 259.877779 244.186912 
L 261.14914 237.399526 
L 262.4205 234.853709 
L 263.69186 239.425819 
L 264.96322 242.370495 
L 266.23458 244.358913 
L 267.505941 243.240326 
L 268.777301 238.734797 
L 270.048661 235.374703 
L 271.320021 236.33746 
L 273.862742 229.715614 
L 275.134102 235.040876 
L 276.405462 238.735106 
L 277.676822 236.860156 
L 278.948183 239.750632 
L 280.219543 234.554004 
L 281.490903 242.474562 
L 282.762263 243.158736 
L 284.033624 239.821932 
L 285.304984 232.452659 
L 286.576344 231.586734 
L 287.847704 229.060571 
L 289.119064 232.984562 
L 290.390425 230.02151 
L 291.661785 228.770808 
L 292.933145 229.811364 
L 294.204505 239.303453 
L 295.475866 245.406201 
L 296.747226 238.756694 
L 298.018586 246.299708 
L 299.289946 240.511754 
L 300.561306 240.392792 
L 301.832667 240.392522 
L 303.104027 234.251745 
L 304.375387 224.349577 
L 305.646747 217.226661 
L 306.918107 218.997621 
L 308.189468 213.44434 
L 309.460828 215.679618 
L 310.732188 220.813613 
L 312.003548 215.258243 
L 313.274909 216.094611 
L 315.817629 225.942037 
L 317.088989 226.479356 
L 318.360349 228.928301 
L 319.63171 230.347677 
L 320.90307 228.208187 
L 322.17443 234.014827 
L 323.44579 242.745794 
L 324.717151 240.205704 
L 325.988511 241.577379 
L 327.259871 242.619057 
L 328.531231 243.475425 
L 329.802591 232.536996 
L 331.073952 238.794065 
L 332.345312 237.45214 
L 333.616672 236.829129 
L 334.888032 233.871029 
L 336.159393 227.135521 
L 337.430753 224.992936 
L 338.702113 218.558759 
L 339.973473 225.837931 
L 341.244833 220.697127 
L 342.516194 221.422658 
L 343.787554 214.813269 
L 345.058914 220.419357 
L 346.330274 221.4432 
L 347.601634 218.690101 
L 348.872995 220.095201 
L 350.144355 218.55609 
L 351.415715 217.939695 
L 352.687075 211.624247 
L 353.958436 209.604957 
L 355.229796 206.711889 
L 357.772516 222.174495 
L 359.043876 221.072079 
L 360.315237 224.021165 
L 361.586597 218.140943 
L 362.857957 222.465535 
L 364.129317 219.435709 
L 365.400678 222.573974 
L 366.672038 215.095643 
L 367.943398 211.588578 
L 369.214758 213.732401 
L 370.486118 205.95599 
L 371.757479 205.782905 
L 373.028839 203.678465 
L 374.300199 212.36119 
L 375.571559 210.593557 
L 376.84292 211.736284 
L 378.11428 206.819902 
L 379.38564 207.126417 
L 380.657 212.77479 
L 383.199721 225.883194 
L 384.471081 221.006814 
L 387.013801 219.928771 
L 388.285161 225.681018 
L 389.556522 219.179023 
L 390.827882 217.621226 
L 392.099242 224.610712 
L 393.370602 213.906801 
L 394.641963 208.628002 
L 395.913323 207.859994 
L 397.184683 212.356509 
L 398.456043 215.720665 
L 399.727403 221.381456 
L 400.998764 219.13523 
L 402.270124 207.311339 
L 403.541484 212.963851 
L 404.812844 217.993702 
L 406.084205 215.965552 
L 407.355565 214.367598 
L 408.626925 204.446087 
L 409.898285 210.495718 
L 411.169645 218.760472 
L 412.441006 217.487989 
L 413.712366 214.802436 
L 414.983726 215.737803 
L 416.255086 214.970453 
L 417.526447 219.44012 
L 418.797807 233.196952 
L 420.069167 223.696661 
L 421.340527 220.61898 
L 422.611887 218.945471 
L 423.883248 220.183639 
L 425.154608 223.611435 
L 426.425968 222.733556 
L 427.697328 219.655218 
L 428.968688 205.849949 
L 430.240049 202.019503 
L 431.511409 196.685498 
L 432.782769 194.517921 
L 434.054129 194.646323 
L 435.32549 191.896202 
L 436.59685 197.598736 
L 437.86821 192.433173 
L 439.13957 197.514206 
L 440.41093 204.201742 
L 441.682291 209.22869 
L 442.953651 213.174887 
L 444.225011 211.136795 
L 445.496371 207.88692 
L 446.767732 205.904962 
L 448.039092 204.858951 
L 449.310452 202.312787 
L 450.581812 202.104846 
L 451.853172 195.455609 
L 453.124533 195.637476 
L 454.395893 200.670691 
L 455.667253 199.983925 
L 456.938613 194.47525 
L 458.209974 203.952251 
L 459.481334 202.019 
L 460.752694 198.387751 
L 462.024054 196.641124 
L 463.295414 194.10378 
L 464.566775 187.875726 
L 465.838135 185.669308 
L 467.109495 186.669669 
L 468.380855 173.48625 
L 469.652215 174.842025 
L 470.923576 175.435131 
L 472.194936 186.235101 
L 473.466296 187.228227 
L 474.737656 191.228663 
L 476.009017 197.545851 
L 477.280377 197.849929 
L 478.551737 204.118062 
L 479.823097 206.105978 
L 481.094457 203.259643 
L 482.365818 197.249975 
L 483.637178 204.098139 
L 484.908538 199.854944 
L 486.179898 198.463577 
L 487.451259 203.30069 
L 488.722619 205.956686 
L 489.993979 207.359195 
L 491.265339 208.363578 
L 492.536699 216.996784 
L 493.80806 221.04318 
L 495.07942 220.803245 
L 496.35078 216.78451 
L 497.62214 208.466446 
L 498.893501 203.562754 
L 501.436221 201.960235 
L 502.707581 195.315873 
L 503.978941 183.382074 
L 505.250302 184.278947 
L 506.521662 182.617044 
L 507.793022 186.100703 
L 509.064382 188.525624 
L 510.335742 185.172919 
L 511.607103 184.910546 
L 512.878463 185.296949 
L 514.149823 190.66523 
L 515.421183 187.294845 
L 516.692544 198.953699 
L 517.963904 198.700069 
L 519.235264 196.292751 
L 520.506624 197.28402 
L 521.777984 200.681214 
L 523.049345 199.49392 
L 524.320705 198.625365 
L 525.592065 205.776367 
L 526.863425 198.527294 
L 528.134786 196.821017 
L 529.406146 194.103045 
L 530.677506 192.411044 
L 531.948866 191.795926 
L 533.220226 191.649419 
L 534.491587 194.963244 
L 535.762947 189.361643 
L 537.034307 188.303175 
L 538.305667 190.708327 
L 539.577028 192.79884 
L 542.119748 195.240241 
L 543.391108 194.971832 
L 544.662468 192.879308 
L 545.933829 194.754258 
L 547.205189 195.408682 
L 548.476549 198.234204 
L 549.747909 200.534514 
L 551.019269 207.325808 
L 552.29063 200.046946 
L 553.56199 196.759738 
L 554.83335 192.305662 
L 556.10471 194.541056 
L 557.376071 198.264534 
L 558.647431 203.72164 
L 559.918791 205.629667 
L 561.190151 197.79039 
L 562.461511 202.23197 
L 563.732872 208.219084 
L 565.004232 209.561164 
L 566.275592 206.048064 
L 567.546952 201.510347 
L 568.818313 187.490407 
L 570.089673 190.347883 
L 571.361033 189.932427 
L 572.632393 188.383644 
L 573.903753 185.724514 
L 575.175114 183.606572 
L 575.175114 183.606572 
" clip-path="url(#pf75ca13664)" style="fill: none; stroke: #ffa500; stroke-width: 2; stroke-linecap: square"/>
   </g>
   <g id="patch_3">
    <path d="M 42.53875 355.717969 
L 42.53875 23.077969 
" style="fill: none; stroke: #000000; stroke-width: 0.8; stroke-linejoin: miter; stroke-linecap: square"/>
   </g>
   <g id="patch_4">
    <path d="M 600.53875 355.717969 
L 600.53875 23.077969 
" style="fill: none; stroke: #000000; stroke-width: 0.8; stroke-linejoin: miter; stroke-linecap: square"/>
   </g>
   <g id="patch_5">
    <path d="M 42.53875 355.717969 
L 600.53875 355.717969 
" style="fill: none; stroke: #000000; stroke-width: 0.8; stroke-linejoin: miter; stroke-linecap: square"/>
   </g>
   <g id="patch_6">
    <path d="M 42.53875 23.077969 
L 600.53875 23.077969 
" style="fill: none; stroke: #000000; stroke-width: 0.8; stroke-linejoin: miter; stroke-linecap: square"/>
   </g>
   <g id="text_17">
    <!-- Ablation: Observation Window Size (PPO) -->
    <g transform="translate(187.695625 17.077969) scale(0.13 -0.13)">
     <defs>
      <path id="DejaVuSans-41" d="M 2188 4044 
L 1331 1722 
L 3047 1722 
L 2188 4044 
z
M 1831 4666 
L 2547 4666 
L 4325 0 
L 3669 0 
L 3244 1197 
L 1141 1197 
L 716 0 
L 50 0 
L 1831 4666 
z
" transform="scale(0.015625)"/>
      <path id="DejaVuSans-62" d="M 3116 1747 
Q 3116 2381 2855 2742 
Q 2594 3103 2138 3103 
Q 1681 3103 1420 2742 
Q 1159 2381 1159 1747 
Q 1159 1113 1420 752 
Q 1681 391 2138 391 
Q 2594 391 2855 752 
Q 3116 1113 3116 1747 
z
M 1159 2969 
Q 1341 3281 1617 3432 
Q 1894 3584 2278 3584 
Q 2916 3584 3314 3078 
Q 3713 2572 3713 1747 
Q 3713 922 3314 415 
Q 2916 -91 2278 -91 
Q 1894 -91 1617 61 
Q 1341 213 1159 525 
L 1159 0 
L 581 0 
L 581 4863 
L 1159 4863 
L 1159 2969 
z
" transform="scale(0.015625)"/>
      <path id="DejaVuSans-6c" d="M 603 4863 
L 1178 4863 
L 1178 0 
L 603 0 
L 603 4863 
z
" transform="scale(0.015625)"/>
      <path id="DejaVuSans-61" d="M 2194 1759 
Q 1497 1759 1228 1600 
Q 959 1441 959 1056 
Q 959 750 1161 570 
Q 1363 391 1709 391 
Q 2188 391 2477 730 
Q 2766 1069 2766 1631 
L 2766 1759 
L 2194 1759 
z
M 3341 1997 
L 3341 0 
L 2766 0 
L 2766 531 
Q 2569 213 2275 61 
Q 1981 -91 1556 -91 
Q 1019 -91 701 211 
Q 384 513 384 1019 
Q 384 1609 779 1909 
Q 1175 2209 1959 2209 
L 2766 2209 
L 2766 2266 
Q 2766 2663 2505 2880 
Q 2244 3097 1772 3097 
Q 1472 3097 1187 3025 
Q 903 2953 641 2809 
L 641 3341 
Q 956 3463 1253 3523 
Q 1550 3584 1831 3584 
Q 2591 3584 2966 3190 
Q 3341 2797 3341 1997 
z
" transform="scale(0.015625)"/>
      <path id="DejaVuSans-3a" d="M 750 794 
L 1409 794 
L 1409 0 
L 750 0 
L 750 794 
z
M 750 3309 
L 1409 3309 
L 1409 2516 
L 750 2516 
L 750 3309 
z
" transform="scale(0.015625)"/>
      <path id="DejaVuSans-4f" d="M 2522 4238 
Q 1834 4238 1429 3725 
Q 1025 3213 1025 2328 
Q 1025 1447 1429 934 
Q 1834 422 2522 422 
Q 3209 422 3611 934 
Q 4013 1447 4013 2328 
Q 4013 3213 3611 3725 
Q 3209 4238 2522 4238 
z
M 2522 4750 
Q 3503 4750 4090 4092 
Q 4678 3434 4678 2328 
Q 4678 1225 4090 567 
Q 3503 -91 2522 -91 
Q 1538 -91 948 565 
Q 359 1222 359 2328 
Q 359 3434 948 4092 
Q 1538 4750 2522 4750 
z
" transform="scale(0.015625)"/>
      <path id="DejaVuSans-57" d="M 213 4666 
L 850 4666 
L 1831 722 
L 2809 4666 
L 3519 4666 
L 4500 722 
L 5478 4666 
L 6119 4666 
L 4947 0 
L 4153 0 
L 3169 4050 
L 2175 0 
L 1381 0 
L 213 4666 
z
" transform="scale(0.015625)"/>
      <path id="DejaVuSans-77" d="M 269 3500 
L 844 3500 
L 1563 769 
L 2278 3500 
L 2956 3500 
L 3675 769 
L 4391 3500 
L 4966 3500 
L 4050 0 
L 3372 0 
L 2619 2869 
L 1863 0 
L 1184 0 
L 269 3500 
z
" transform="scale(0.015625)"/>
      <path id="DejaVuSans-53" d="M 3425 4513 
L 3425 3897 
Q 3066 4069 2747 4153 
Q 2428 4238 2131 4238 
Q 1616 4238 1336 4038 
Q 1056 3838 1056 3469 
Q 1056 3159 1242 3001 
Q 1428 2844 1947 2747 
L 2328 2669 
Q 3034 2534 3370 2195 
Q 3706 1856 3706 1288 
Q 3706 609 3251 259 
Q 2797 -91 1919 -91 
Q 1588 -91 1214 -16 
Q 841 59 441 206 
L 441 856 
Q 825 641 1194 531 
Q 1563 422 1919 422 
Q 2459 422 2753 634 
Q 3047 847 3047 1241 
Q 3047 1584 2836 1778 
Q 2625 1972 2144 2069 
L 1759 2144 
Q 1053 2284 737 2584 
Q 422 2884 422 3419 
Q 422 4038 858 4394 
Q 1294 4750 2059 4750 
Q 2388 4750 2728 4690 
Q 3069 4631 3425 4513 
z
" transform="scale(0.015625)"/>
      <path id="DejaVuSans-7a" d="M 353 3500 
L 3084 3500 
L 3084 2975 
L 922 459 
L 3084 459 
L 3084 0 
L 275 0 
L 275 525 
L 2438 3041 
L 353 3041 
L 353 3500 
z
" transform="scale(0.015625)"/>
      <path id="DejaVuSans-50" d="M 1259 4147 
L 1259 2394 
L 2053 2394 
Q 2494 2394 2734 2622 
Q 2975 2850 2975 3272 
Q 2975 3691 2734 3919 
Q 2494 4147 2053 4147 
L 1259 4147 
z
M 628 4666 
L 2053 4666 
Q 2838 4666 3239 4311 
Q 3641 3956 3641 3272 
Q 3641 2581 3239 2228 
Q 2838 1875 2053 1875 
L 1259 1875 
L 1259 0 
L 628 0 
L 628 4666 
z
" transform="scale(0.015625)"/>
     </defs>
     <use xlink:href="#DejaVuSans-41"/>
     <use xlink:href="#DejaVuSans-62" x="68.408203"/>
     <use xlink:href="#DejaVuSans-6c" x="131.884766"/>
     <use xlink:href="#DejaVuSans-61" x="159.667969"/>
     <use xlink:href="#DejaVuSans-74" x="220.947266"/>
     <use xlink:href="#DejaVuSans-69" x="260.15625"/>
     <use xlink:href="#DejaVuSans-6f" x="287.939453"/>
     <use xlink:href="#DejaVuSans-6e" x="349.121094"/>
     <use xlink:href="#DejaVuSans-3a" x="412.5"/>
     <use xlink:href="#DejaVuSans-20" x="446.191406"/>
     <use xlink:href="#DejaVuSans-4f" x="477.978516"/>
     <use xlink:href="#DejaVuSans-62" x="556.689453"/>
     <use xlink:href="#DejaVuSans-73" x="620.166016"/>
     <use xlink:href="#DejaVuSans-65" x="672.265625"/>
     <use xlink:href="#DejaVuSans-72" x="733.789062"/>
     <use xlink:href="#DejaVuSans-76" x="774.902344"/>
     <use xlink:href="#DejaVuSans-61" x="834.082031"/>
     <use xlink:href="#DejaVuSans-74" x="895.361328"/>
     <use xlink:href="#DejaVuSans-69" x="934.570312"/>
     <use xlink:href="#DejaVuSans-6f" x="962.353516"/>
     <use xlink:href="#DejaVuSans-6e" x="1023.535156"/>
     <use xlink:href="#DejaVuSans-20" x="1086.914062"/>
     <use xlink:href="#DejaVuSans-57" x="1118.701172"/>
     <use xlink:href="#DejaVuSans-69" x="1215.328125"/>
     <use xlink:href="#DejaVuSans-6e" x="1243.111328"/>
     <use xlink:href="#DejaVuSans-64" x="1306.490234"/>
     <use xlink:href="#DejaVuSans-6f" x="1369.966797"/>
     <use xlink:href="#DejaVuSans-77" x="1431.148438"/>
     <use xlink:href="#DejaVuSans-20" x="1512.935547"/>
     <use xlink:href="#DejaVuSans-53" x="1544.722656"/>
     <use xlink:href="#DejaVuSans-69" x="1608.199219"/>
     <use xlink:href="#DejaVuSans-7a" x="1635.982422"/>
     <use xlink:href="#DejaVuSans-65" x="1688.472656"/>
     <use xlink:href="#DejaVuSans-20" x="1749.996094"/>
     <use xlink:href="#DejaVuSans-28" x="1781.783203"/>
     <use xlink:href="#DejaVuSans-50" x="1820.796875"/>
     <use xlink:href="#DejaVuSans-50" x="1881.099609"/>
     <use xlink:href="#DejaVuSans-4f" x="1941.402344"/>
     <use xlink:href="#DejaVuSans-29" x="2020.113281"/>
    </g>
   </g>
   <g id="legend_1">
    <g id="patch_7">
     <path d="M 50.23875 64.781719 
L 168.332344 64.781719 
Q 170.532344 64.781719 170.532344 62.581719 
L 170.532344 30.777969 
Q 170.532344 28.577969 168.332344 28.577969 
L 50.23875 28.577969 
Q 48.03875 28.577969 48.03875 30.777969 
L 48.03875 62.581719 
Q 48.03875 64.781719 50.23875 64.781719 
z
" style="fill: #ffffff; opacity: 0.8; stroke: #cccccc; stroke-linejoin: miter"/>
    </g>
    <g id="line2d_31">
     <path d="M 52.43875 37.48625 
L 63.43875 37.48625 
L 74.43875 37.48625 
" style="fill: none; stroke: #0000ff; stroke-width: 2; stroke-linecap: square"/>
    </g>
    <g id="text_18">
     <!-- obs_window=5 -->
     <g transform="translate(83.23875 41.33625) scale(0.11 -0.11)">
      <defs>
       <path id="DejaVuSans-5f" d="M 3263 -1063 
L 3263 -1509 
L -63 -1509 
L -63 -1063 
L 3263 -1063 
z
" transform="scale(0.015625)"/>
       <path id="DejaVuSans-3d" d="M 678 2906 
L 4684 2906 
L 4684 2381 
L 678 2381 
L 678 2906 
z
M 678 1631 
L 4684 1631 
L 4684 1100 
L 678 1100 
L 678 1631 
z
" transform="scale(0.015625)"/>
      </defs>
      <use xlink:href="#DejaVuSans-6f"/>
      <use xlink:href="#DejaVuSans-62" x="61.181641"/>
      <use xlink:href="#DejaVuSans-73" x="124.658203"/>
      <use xlink:href="#DejaVuSans-5f" x="176.757812"/>
      <use xlink:href="#DejaVuSans-77" x="226.757812"/>
      <use xlink:href="#DejaVuSans-69" x="308.544922"/>
      <use xlink:href="#DejaVuSans-6e" x="336.328125"/>
      <use xlink:href="#DejaVuSans-64" x="399.707031"/>
      <use xlink:href="#DejaVuSans-6f" x="463.183594"/>
      <use xlink:href="#DejaVuSans-77" x="524.365234"/>
      <use xlink:href="#DejaVuSans-3d" x="606.152344"/>
      <use xlink:href="#DejaVuSans-35" x="689.941406"/>
     </g>
    </g>
    <g id="line2d_32">
     <path d="M 52.43875 53.938125 
L 63.43875 53.938125 
L 74.43875 53.938125 
" style="fill: none; stroke: #ffa500; stroke-width: 2; stroke-linecap: square"/>
    </g>
    <g id="text_19">
     <!-- obs_window=3 -->
     <g transform="translate(83.23875 57.788125) scale(0.11 -0.11)">
      <use xlink:href="#DejaVuSans-6f"/>
      <use xlink:href="#DejaVuSans-62" x="61.181641"/>
      <use xlink:href="#DejaVuSans-73" x="124.658203"/>
      <use xlink:href="#DejaVuSans-5f" x="176.757812"/>
      <use xlink:href="#DejaVuSans-77" x="226.757812"/>
      <use xlink:href="#DejaVuSans-69" x="308.544922"/>
      <use xlink:href="#DejaVuSans-6e" x="336.328125"/>
      <use xlink:href="#DejaVuSans-64" x="399.707031"/>
      <use xlink:href="#DejaVuSans-6f" x="463.183594"/>
      <use xlink:href="#DejaVuSans-77" x="524.365234"/>
      <use xlink:href="#DejaVuSans-3d" x="606.152344"/>
      <use xlink:href="#DejaVuSans-33" x="689.941406"/>
     </g>
    </g>
   </g>
  </g>
 </g>
 <defs>
  <clipPath id="pf75ca13664">
   <rect x="42.53875" y="23.077969" width="558" height="332.64"/>
  </clipPath>
 </defs>
</svg>
