<?xml version="1.0" encoding="utf-8" standalone="no"?>
<!DOCTYPE svg PUBLIC "-//W3C//DTD SVG 1.1//EN"
  "http://www.w3.org/Graphics/SVG/1.1/DTD/svg11.dtd">
<svg xmlns:xlink="http://www.w3.org/1999/xlink" width="407.777898pt" height="311.750671pt" viewBox="0 0 407.777898 311.750671" xmlns="http://www.w3.org/2000/svg" version="1.1">
 <metadata>
  <rdf:RDF xmlns:dc="http://purl.org/dc/elements/1.1/" xmlns:cc="http://creativecommons.org/ns#" xmlns:rdf="http://www.w3.org/1999/02/22-rdf-syntax-ns#">
   <cc:Work>
    <dc:type rdf:resource="http://purl.org/dc/dcmitype/StillImage"/>
    <dc:date>2025-11-06T17:54:46.856247</dc:date>
    <dc:format>image/svg+xml</dc:format>
    <dc:creator>
     <cc:Agent>
      <dc:title>Matplotlib v3.9.4, https://matplotlib.org/</dc:title>
     </cc:Agent>
    </dc:creator>
   </cc:Work>
  </rdf:RDF>
 </metadata>
 <defs>
  <style type="text/css">*{stroke-linejoin: round; stroke-linecap: butt}</style>
 </defs>
 <g id="figure_1">
  <g id="patch_1">
   <path d="M 0 311.750671 
L 407.777898 311.750671 
L 407.777898 0 
L 0 0 
z
" style="fill: #ffffff"/>
  </g>
  <g id="axes_1">
   <g id="patch_2">
    <path d="M 40.603125 274.194421 
L 397.723125 274.194421 
L 397.723125 8.082421 
L 40.603125 8.082421 
z
" style="fill: #ffffff"/>
   </g>
   <g id="PolyCollection_1">
    <path d="M 56.835852 157.450596 
L 56.835852 190.247677 
L 57.649523 190.247677 
L 58.463193 190.247677 
L 59.276864 190.247677 
L 60.090534 190.247677 
L 60.904205 190.247677 
L 61.717876 190.247677 
L 62.531546 190.247677 
L 63.345217 189.882949 
L 64.158887 179.84984 
L 64.972558 169.905354 
L 65.786228 174.296846 
L 66.599899 172.330982 
L 67.413569 186.918248 
L 68.22724 196.826311 
L 69.04091 195.629278 
L 69.854581 202.669029 
L 70.668251 211.028659 
L 71.481922 222.767353 
L 72.295593 220.9883 
L 73.109263 217.998979 
L 73.922934 228.14077 
L 74.736604 226.838973 
L 75.550275 224.408854 
L 76.363945 226.503518 
L 77.177616 225.478763 
L 77.991286 251.835939 
L 78.804957 262.098421 
L 79.618627 247.132403 
L 80.432298 238.478943 
L 81.245968 224.52654 
L 82.059639 212.942192 
L 82.87331 210.895429 
L 83.68698 207.077319 
L 84.500651 211.836407 
L 85.314321 205.283197 
L 86.127992 203.96204 
L 86.941662 218.829853 
L 87.755333 215.532109 
L 88.569003 214.105509 
L 89.382674 193.841681 
L 90.196344 183.556281 
L 91.010015 174.84464 
L 91.823685 171.912881 
L 92.637356 172.984104 
L 93.451027 150.704863 
L 94.264697 144.752215 
L 95.078368 134.992177 
L 95.892038 143.679006 
L 96.705709 147.220226 
L 97.519379 146.032124 
L 98.33305 153.965644 
L 99.14672 169.133254 
L 99.960391 180.444222 
L 100.774061 175.822153 
L 101.587732 155.212264 
L 102.401403 146.173344 
L 103.215073 151.764414 
L 104.028744 150.142441 
L 104.842414 134.658491 
L 105.656085 127.994644 
L 106.469755 130.163621 
L 107.283426 136.659902 
L 108.097096 165.375017 
L 108.910767 171.395844 
L 109.724437 167.970796 
L 110.538108 185.324313 
L 111.351778 204.15357 
L 112.165449 197.517433 
L 112.97912 197.762269 
L 113.79279 209.454503 
L 114.606461 201.613116 
L 115.420131 192.397793 
L 116.233802 194.504987 
L 117.047472 192.268221 
L 117.861143 175.474375 
L 118.674813 177.690375 
L 119.488484 156.008638 
L 120.302154 156.963131 
L 121.115825 139.249359 
L 121.929495 129.686627 
L 122.743166 129.014674 
L 123.556837 121.178551 
L 124.370507 121.100819 
L 125.184178 127.194781 
L 125.997848 130.511025 
L 126.811519 148.880075 
L 127.625189 167.641321 
L 128.43886 166.339324 
L 129.25253 151.417295 
L 130.066201 153.947889 
L 130.879871 163.649624 
L 131.693542 167.234569 
L 132.507212 170.309532 
L 133.320883 160.278342 
L 134.134554 150.920523 
L 134.948224 152.727153 
L 135.761895 167.859825 
L 136.575565 183.518722 
L 137.389236 184.868063 
L 138.202906 192.961951 
L 139.016577 190.75068 
L 139.830247 196.957869 
L 140.643918 195.921917 
L 141.457588 187.878015 
L 142.271259 173.015053 
L 143.08493 182.407282 
L 143.8986 193.441323 
L 144.712271 191.886366 
L 145.525941 185.577164 
L 146.339612 188.81781 
L 147.153282 198.589175 
L 147.966953 211.947591 
L 148.780623 205.744395 
L 149.594294 188.488748 
L 150.407964 170.995855 
L 151.221635 159.567929 
L 152.035305 177.218908 
L 152.848976 181.256041 
L 153.662647 175.744961 
L 154.476317 174.543011 
L 155.289988 181.593541 
L 156.103658 179.924046 
L 156.917329 172.308219 
L 157.730999 175.229796 
L 158.54467 163.794159 
L 159.35834 156.584897 
L 160.172011 175.50752 
L 160.985681 160.658299 
L 161.799352 164.889809 
L 162.613022 168.284879 
L 163.426693 175.204981 
L 164.240364 174.559408 
L 165.054034 181.029107 
L 165.867705 188.751067 
L 166.681375 194.293255 
L 167.495046 203.09491 
L 168.308716 193.752675 
L 169.122387 182.380629 
L 169.936057 183.627183 
L 170.749728 176.941424 
L 171.563398 167.093251 
L 172.377069 170.750463 
L 173.190739 177.077673 
L 174.00441 172.722602 
L 174.818081 164.396919 
L 175.631751 164.992539 
L 176.445422 162.981732 
L 177.259092 164.495748 
L 178.072763 164.854908 
L 178.886433 140.477803 
L 179.700104 111.501595 
L 180.513774 115.184524 
L 181.327445 107.408402 
L 182.141115 112.317766 
L 182.954786 108.295158 
L 183.768457 132.61746 
L 184.582127 113.073779 
L 185.395798 146.87749 
L 186.209468 141.947603 
L 187.023139 138.221365 
L 187.836809 139.029292 
L 188.65048 130.157224 
L 189.46415 137.333444 
L 190.277821 125.469386 
L 191.091491 129.309512 
L 191.905162 115.174595 
L 192.718832 138.972808 
L 193.532503 163.048068 
L 194.346174 147.455636 
L 195.159844 126.609905 
L 195.973515 131.244982 
L 196.787185 163.527313 
L 197.600856 181.138012 
L 198.414526 187.707231 
L 199.228197 161.743289 
L 200.041867 160.149329 
L 200.855538 152.361427 
L 201.669208 158.388304 
L 202.482879 179.557797 
L 203.296549 171.97713 
L 204.11022 148.164093 
L 204.923891 144.274723 
L 205.737561 142.445701 
L 206.551232 143.351758 
L 207.364902 135.779808 
L 208.178573 143.768783 
L 208.992243 128.302645 
L 209.805914 115.787297 
L 210.619584 129.230988 
L 211.433255 157.770405 
L 212.246925 177.096697 
L 213.060596 169.586804 
L 213.874266 177.748087 
L 214.687937 188.430123 
L 215.501608 215.717057 
L 216.315278 222.455995 
L 217.128949 235.194971 
L 217.942619 216.165336 
L 218.75629 198.820121 
L 219.56996 193.973696 
L 220.383631 190.585196 
L 221.197301 164.611188 
L 222.010972 147.314796 
L 222.824642 130.816409 
L 223.638313 110.64799 
L 224.451984 126.196461 
L 225.265654 125.649226 
L 226.079325 132.266425 
L 226.892995 129.507834 
L 227.706666 128.117212 
L 228.520336 119.126048 
L 229.334007 142.238056 
L 230.147677 150.380538 
L 230.961348 164.291192 
L 231.775018 143.466323 
L 232.588689 140.551975 
L 233.402359 134.829663 
L 234.21603 135.317248 
L 235.029701 142.454702 
L 235.843371 129.6988 
L 236.657042 149.330699 
L 237.470712 145.123175 
L 238.284383 164.107164 
L 239.098053 163.54599 
L 239.911724 150.15445 
L 240.725394 143.191422 
L 241.539065 142.342762 
L 242.352735 129.731724 
L 243.166406 132.205643 
L 243.980076 111.760672 
L 244.793747 122.259386 
L 245.607418 119.385569 
L 246.421088 127.895541 
L 247.234759 120.446263 
L 248.048429 120.441298 
L 248.8621 129.208253 
L 249.67577 142.587848 
L 250.489441 142.209985 
L 251.303111 143.476732 
L 252.116782 147.292703 
L 252.930452 130.939524 
L 253.744123 117.933525 
L 254.557793 124.371412 
L 255.371464 130.18742 
L 256.185135 133.222059 
L 256.998805 136.487938 
L 257.812476 140.158078 
L 258.626146 147.05574 
L 259.439817 154.129066 
L 260.253487 163.316541 
L 261.067158 162.797341 
L 261.880828 172.950277 
L 262.694499 176.792537 
L 263.508169 161.809838 
L 264.32184 149.255659 
L 265.135511 141.510346 
L 265.949181 159.484662 
L 266.762852 136.543053 
L 267.576522 126.18793 
L 268.390193 120.092767 
L 269.203863 115.872487 
L 270.017534 117.747905 
L 270.831204 134.747444 
L 271.644875 155.759783 
L 272.458545 163.380624 
L 273.272216 176.16258 
L 274.085886 176.176468 
L 274.899557 172.556699 
L 275.713228 164.4552 
L 276.526898 179.763134 
L 277.340569 154.983905 
L 278.154239 140.034599 
L 278.96791 116.629145 
L 279.78158 125.243657 
L 280.595251 144.385136 
L 281.408921 139.79443 
L 282.222592 131.065655 
L 283.036262 140.100575 
L 283.849933 145.265541 
L 284.663603 140.964061 
L 285.477274 143.132607 
L 286.290945 114.458846 
L 287.104615 101.224037 
L 287.918286 106.610779 
L 288.731956 97.751829 
L 289.545627 89.797189 
L 290.359297 89.84484 
L 291.172968 91.160778 
L 291.986638 80.382706 
L 292.800309 100.963549 
L 293.613979 99.575245 
L 294.42765 92.669276 
L 295.24132 94.632219 
L 296.054991 99.259358 
L 296.868662 99.588527 
L 297.682332 121.907084 
L 298.496003 118.588721 
L 299.309673 116.214136 
L 300.123344 96.786254 
L 300.937014 113.296533 
L 301.750685 123.099814 
L 302.564355 113.94757 
L 303.378026 108.488043 
L 304.191696 119.872386 
L 305.005367 137.532409 
L 305.819038 134.595091 
L 306.632708 154.164072 
L 307.446379 148.639579 
L 308.260049 144.795469 
L 309.07372 136.295881 
L 309.88739 134.725297 
L 310.701061 120.450871 
L 311.514731 119.408133 
L 312.328402 116.151313 
L 313.142072 114.494792 
L 313.955743 130.685301 
L 314.769413 113.530898 
L 315.583084 126.298796 
L 316.396755 124.371671 
L 317.210425 127.743683 
L 318.024096 129.490071 
L 318.837766 133.754443 
L 319.651437 118.412159 
L 320.465107 127.654082 
L 321.278778 143.986244 
L 322.092448 126.898382 
L 322.906119 135.976262 
L 323.719789 137.75124 
L 324.53346 137.098573 
L 325.34713 125.290395 
L 326.160801 122.984772 
L 326.974472 100.962772 
L 327.788142 97.319914 
L 328.601813 92.802981 
L 329.415483 95.893952 
L 330.229154 100.08973 
L 331.042824 90.92591 
L 331.856495 97.218193 
L 332.670165 89.670062 
L 333.483836 92.279062 
L 334.297506 97.121396 
L 335.111177 98.212993 
L 335.924847 91.525484 
L 336.738518 95.483575 
L 337.552189 101.175204 
L 338.365859 114.059604 
L 339.17953 129.375033 
L 339.9932 119.142582 
L 340.806871 135.690627 
L 341.620541 132.189304 
L 342.434212 127.433908 
L 343.247882 139.151434 
L 344.061553 142.419089 
L 344.875223 136.888502 
L 345.688894 149.122948 
L 346.502565 156.404177 
L 347.316235 156.405237 
L 348.129906 151.780128 
L 348.943576 165.044444 
L 349.757247 132.042733 
L 350.570917 139.043124 
L 351.384588 127.808724 
L 352.198258 132.904872 
L 353.011929 129.114904 
L 353.825599 119.333229 
L 354.63927 112.951248 
L 355.45294 121.559443 
L 356.266611 116.835242 
L 357.080282 102.042194 
L 357.893952 101.25506 
L 358.707623 88.805988 
L 359.521293 92.920608 
L 360.334964 101.022498 
L 361.148634 103.640542 
L 361.962305 104.613996 
L 362.775975 100.371315 
L 363.589646 85.309274 
L 364.403316 87.86755 
L 365.216987 96.701075 
L 366.030657 94.524126 
L 366.844328 93.760809 
L 367.657999 90.767539 
L 368.471669 88.143675 
L 369.28534 104.107532 
L 370.09901 100.315984 
L 370.912681 113.242937 
L 371.726351 118.946482 
L 372.540022 126.736811 
L 373.353692 113.737279 
L 374.167363 122.781387 
L 374.981033 123.822175 
L 375.794704 129.239371 
L 376.608374 137.053537 
L 377.422045 120.252556 
L 378.235716 138.652664 
L 379.049386 147.485699 
L 379.863057 165.565939 
L 380.676727 162.55911 
L 381.490398 150.927272 
L 381.490398 80.623814 
L 381.490398 80.623814 
L 380.676727 82.113189 
L 379.863057 71.85156 
L 379.049386 62.024725 
L 378.235716 52.570508 
L 377.422045 58.649968 
L 376.608374 60.118796 
L 375.794704 61.828949 
L 374.981033 65.372255 
L 374.167363 71.107724 
L 373.353692 78.333497 
L 372.540022 84.873705 
L 371.726351 89.511423 
L 370.912681 83.686507 
L 370.09901 90.951825 
L 369.28534 80.365777 
L 368.471669 79.183349 
L 367.657999 75.255357 
L 366.844328 71.530262 
L 366.030657 74.793185 
L 365.216987 65.440407 
L 364.403316 60.655337 
L 363.589646 44.677361 
L 362.775975 35.378726 
L 361.962305 43.275402 
L 361.148634 51.73645 
L 360.334964 52.13828 
L 359.521293 53.678121 
L 358.707623 48.836346 
L 357.893952 47.178829 
L 357.080282 45.09361 
L 356.266611 40.801845 
L 355.45294 20.178421 
L 354.63927 27.124507 
L 353.825599 36.110786 
L 353.011929 27.228425 
L 352.198258 41.279966 
L 351.384588 72.874749 
L 350.570917 85.932043 
L 349.757247 98.274132 
L 348.943576 89.0668 
L 348.129906 83.476918 
L 347.316235 93.918947 
L 346.502565 107.05928 
L 345.688894 101.36014 
L 344.875223 102.407007 
L 344.061553 92.07104 
L 343.247882 96.963585 
L 342.434212 109.467323 
L 341.620541 115.246378 
L 340.806871 92.300769 
L 339.9932 84.353924 
L 339.17953 88.405901 
L 338.365859 78.591029 
L 337.552189 81.092329 
L 336.738518 73.905702 
L 335.924847 79.077688 
L 335.111177 78.339134 
L 334.297506 66.461487 
L 333.483836 80.611605 
L 332.670165 68.175304 
L 331.856495 75.499011 
L 331.042824 81.631565 
L 330.229154 80.639301 
L 329.415483 64.701819 
L 328.601813 65.979123 
L 327.788142 63.81403 
L 326.974472 61.520417 
L 326.160801 77.480259 
L 325.34713 80.58226 
L 324.53346 80.239297 
L 323.719789 86.773171 
L 322.906119 95.186078 
L 322.092448 100.297874 
L 321.278778 111.416011 
L 320.465107 113.846379 
L 319.651437 87.190138 
L 318.837766 66.59996 
L 318.024096 57.335283 
L 317.210425 70.010086 
L 316.396755 58.467272 
L 315.583084 54.780456 
L 314.769413 53.62596 
L 313.955743 55.293204 
L 313.142072 82.016447 
L 312.328402 113.958166 
L 311.514731 108.130516 
L 310.701061 108.103351 
L 309.88739 99.131 
L 309.07372 89.200566 
L 308.260049 82.107357 
L 307.446379 74.931956 
L 306.632708 70.856211 
L 305.819038 58.036314 
L 305.005367 69.708993 
L 304.191696 49.36664 
L 303.378026 77.399954 
L 302.564355 83.569285 
L 301.750685 85.594182 
L 300.937014 91.811197 
L 300.123344 93.245959 
L 299.309673 79.685796 
L 298.496003 79.806915 
L 297.682332 84.357269 
L 296.868662 81.624222 
L 296.054991 77.518353 
L 295.24132 83.033681 
L 294.42765 77.868933 
L 293.613979 74.066955 
L 292.800309 70.95412 
L 291.986638 68.644431 
L 291.172968 78.384451 
L 290.359297 83.914101 
L 289.545627 73.424417 
L 288.731956 63.068975 
L 287.918286 66.558348 
L 287.104615 71.466042 
L 286.290945 75.807535 
L 285.477274 75.197008 
L 284.663603 72.957022 
L 283.849933 75.571452 
L 283.036262 90.841057 
L 282.222592 97.560054 
L 281.408921 98.817118 
L 280.595251 104.504583 
L 279.78158 98.908351 
L 278.96791 104.103399 
L 278.154239 82.642841 
L 277.340569 89.711948 
L 276.526898 80.645981 
L 275.713228 74.725629 
L 274.899557 58.637161 
L 274.085886 65.627861 
L 273.272216 63.142612 
L 272.458545 53.529632 
L 271.644875 55.863918 
L 270.831204 54.964558 
L 270.017534 64.611029 
L 269.203863 81.683854 
L 268.390193 83.289814 
L 267.576522 84.340882 
L 266.762852 78.539804 
L 265.949181 80.378687 
L 265.135511 90.779501 
L 264.32184 100.871989 
L 263.508169 82.439242 
L 262.694499 68.345694 
L 261.880828 74.414743 
L 261.067158 58.509429 
L 260.253487 69.069514 
L 259.439817 69.533801 
L 258.626146 81.619343 
L 257.812476 79.047501 
L 256.998805 81.779254 
L 256.185135 81.922396 
L 255.371464 80.962657 
L 254.557793 110.389143 
L 253.744123 111.442 
L 252.930452 96.828073 
L 252.116782 87.26287 
L 251.303111 88.102578 
L 250.489441 88.776764 
L 249.67577 63.786035 
L 248.8621 71.219422 
L 248.048429 58.86659 
L 247.234759 62.601646 
L 246.421088 61.416591 
L 245.607418 73.011806 
L 244.793747 75.874202 
L 243.980076 99.292442 
L 243.166406 113.315771 
L 242.352735 119.409948 
L 241.539065 122.575968 
L 240.725394 116.134892 
L 239.911724 102.965324 
L 239.098053 97.333314 
L 238.284383 95.576925 
L 237.470712 84.265398 
L 236.657042 85.649192 
L 235.843371 119.259247 
L 235.029701 101.673244 
L 234.21603 103.327605 
L 233.402359 92.544656 
L 232.588689 74.02986 
L 231.775018 73.58258 
L 230.961348 82.232611 
L 230.147677 78.766176 
L 229.334007 69.554368 
L 228.520336 80.456907 
L 227.706666 88.353963 
L 226.892995 85.384255 
L 226.079325 85.702186 
L 225.265654 85.900104 
L 224.451984 74.442926 
L 223.638313 86.636758 
L 222.824642 106.76693 
L 222.010972 109.685773 
L 221.197301 103.592343 
L 220.383631 94.594042 
L 219.56996 85.119108 
L 218.75629 94.261964 
L 217.942619 93.404961 
L 217.128949 110.824093 
L 216.315278 103.258131 
L 215.501608 104.264496 
L 214.687937 96.029719 
L 213.874266 108.080571 
L 213.060596 107.719047 
L 212.246925 94.65121 
L 211.433255 89.221045 
L 210.619584 86.710941 
L 209.805914 71.126573 
L 208.992243 70.060715 
L 208.178573 87.762526 
L 207.364902 98.129367 
L 206.551232 109.589815 
L 205.737561 118.274905 
L 204.923891 120.482836 
L 204.11022 129.35038 
L 203.296549 125.397431 
L 202.482879 131.443875 
L 201.669208 138.186105 
L 200.855538 127.991967 
L 200.041867 116.098167 
L 199.228197 124.201903 
L 198.414526 122.282508 
L 197.600856 107.679133 
L 196.787185 118.417047 
L 195.973515 117.673579 
L 195.159844 122.600987 
L 194.346174 114.576995 
L 193.532503 93.340095 
L 192.718832 78.857432 
L 191.905162 85.285149 
L 191.091491 93.758802 
L 190.277821 96.39039 
L 189.46415 95.786565 
L 188.65048 94.443824 
L 187.836809 79.421389 
L 187.023139 79.901619 
L 186.209468 98.418553 
L 185.395798 99.253034 
L 184.582127 96.579411 
L 183.768457 78.797756 
L 182.954786 87.20401 
L 182.141115 95.950334 
L 181.327445 100.969158 
L 180.513774 94.044968 
L 179.700104 95.828529 
L 178.886433 93.679548 
L 178.072763 104.502636 
L 177.259092 102.141745 
L 176.445422 101.955127 
L 175.631751 100.256291 
L 174.818081 90.402064 
L 174.00441 81.822779 
L 173.190739 84.526589 
L 172.377069 70.671851 
L 171.563398 71.085258 
L 170.749728 71.98105 
L 169.936057 81.242653 
L 169.122387 78.573802 
L 168.308716 90.51276 
L 167.495046 97.106074 
L 166.681375 104.396696 
L 165.867705 94.304937 
L 165.054034 95.67663 
L 164.240364 107.13451 
L 163.426693 96.889989 
L 162.613022 81.248492 
L 161.799352 73.088663 
L 160.985681 70.621606 
L 160.172011 53.696053 
L 159.35834 62.626244 
L 158.54467 72.3245 
L 157.730999 71.105917 
L 156.917329 79.633163 
L 156.103658 93.565697 
L 155.289988 91.919001 
L 154.476317 89.066303 
L 153.662647 93.140815 
L 152.848976 118.283231 
L 152.035305 114.453226 
L 151.221635 108.41455 
L 150.407964 95.645277 
L 149.594294 95.896724 
L 148.780623 113.298976 
L 147.966953 126.531414 
L 147.153282 138.6964 
L 146.339612 122.412948 
L 145.525941 127.067183 
L 144.712271 124.878712 
L 143.8986 146.500028 
L 143.08493 145.889829 
L 142.271259 140.181271 
L 141.457588 136.161092 
L 140.643918 128.991987 
L 139.830247 138.075989 
L 139.016577 132.70136 
L 138.202906 136.072272 
L 137.389236 135.12482 
L 136.575565 138.251775 
L 135.761895 151.327756 
L 134.948224 145.000926 
L 134.134554 144.456129 
L 133.320883 143.539536 
L 132.507212 155.500321 
L 131.693542 152.770194 
L 130.879871 146.327479 
L 130.066201 143.609406 
L 129.25253 134.706991 
L 128.43886 120.89743 
L 127.625189 124.452315 
L 126.811519 112.732977 
L 125.997848 101.944937 
L 125.184178 97.52802 
L 124.370507 94.225407 
L 123.556837 102.891053 
L 122.743166 108.124914 
L 121.929495 98.356752 
L 121.115825 93.166568 
L 120.302154 128.542225 
L 119.488484 141.134365 
L 118.674813 138.859695 
L 117.861143 146.605003 
L 117.047472 149.967492 
L 116.233802 163.092942 
L 115.420131 164.588348 
L 114.606461 151.36567 
L 113.79279 131.628913 
L 112.97912 156.244725 
L 112.165449 139.883715 
L 111.351778 150.946115 
L 110.538108 133.863885 
L 109.724437 109.32908 
L 108.910767 131.652234 
L 108.097096 130.604222 
L 107.283426 112.690872 
L 106.469755 103.700573 
L 105.656085 114.623023 
L 104.842414 105.865128 
L 104.028744 114.593144 
L 103.215073 111.578113 
L 102.401403 98.524775 
L 101.587732 104.50307 
L 100.774061 110.179487 
L 99.960391 101.951718 
L 99.14672 105.982066 
L 98.33305 104.22451 
L 97.519379 103.270581 
L 96.705709 103.106842 
L 95.892038 104.051274 
L 95.078368 96.731342 
L 94.264697 111.312714 
L 93.451027 107.257236 
L 92.637356 103.722732 
L 91.823685 107.78814 
L 91.010015 100.874708 
L 90.196344 115.744155 
L 89.382674 134.909138 
L 88.569003 150.465807 
L 87.755333 143.479616 
L 86.941662 167.412265 
L 86.127992 168.910551 
L 85.314321 168.961987 
L 84.500651 191.29606 
L 83.68698 199.670119 
L 82.87331 187.353511 
L 82.059639 174.062241 
L 81.245968 177.192338 
L 80.432298 173.149686 
L 79.618627 186.287888 
L 78.804957 175.311304 
L 77.991286 168.348323 
L 77.177616 177.399622 
L 76.363945 173.960743 
L 75.550275 165.172796 
L 74.736604 148.449252 
L 73.922934 124.440411 
L 73.109263 126.988443 
L 72.295593 125.059469 
L 71.481922 128.980714 
L 70.668251 141.631906 
L 69.854581 138.294488 
L 69.04091 130.891318 
L 68.22724 110.759811 
L 67.413569 132.088591 
L 66.599899 146.941681 
L 65.786228 148.923979 
L 64.972558 150.88569 
L 64.158887 156.614569 
L 63.345217 157.87026 
L 62.531546 157.450596 
L 61.717876 157.450596 
L 60.904205 157.450596 
L 60.090534 157.450596 
L 59.276864 157.450596 
L 58.463193 157.450596 
L 57.649523 157.450596 
L 56.835852 157.450596 
z
" clip-path="url(#pf69223285e)" style="fill: #1f77b4; fill-opacity: 0.2"/>
   </g>
   <g id="matplotlib.axis_1">
    <g id="xtick_1">
     <g id="line2d_1">
      <defs>
       <path id="m46cac3e00e" d="M 0 0 
L 0 3.5 
" style="stroke: #000000; stroke-width: 0.8"/>
      </defs>
      <g>
       <use xlink:href="#m46cac3e00e" x="56.835852" y="274.194421" style="stroke: #000000; stroke-width: 0.8"/>
      </g>
     </g>
     <g id="text_1">
      <!-- 0 -->
      <g transform="translate(53.654602 288.792858) scale(0.1 -0.1)">
       <defs>
        <path id="DejaVuSans-30" d="M 2034 4250 
Q 1547 4250 1301 3770 
Q 1056 3291 1056 2328 
Q 1056 1369 1301 889 
Q 1547 409 2034 409 
Q 2525 409 2770 889 
Q 3016 1369 3016 2328 
Q 3016 3291 2770 3770 
Q 2525 4250 2034 4250 
z
M 2034 4750 
Q 2819 4750 3233 4129 
Q 3647 3509 3647 2328 
Q 3647 1150 3233 529 
Q 2819 -91 2034 -91 
Q 1250 -91 836 529 
Q 422 1150 422 2328 
Q 422 3509 836 4129 
Q 1250 4750 2034 4750 
z
" transform="scale(0.015625)"/>
       </defs>
       <use xlink:href="#DejaVuSans-30"/>
      </g>
     </g>
    </g>
    <g id="xtick_2">
     <g id="line2d_2">
      <g>
       <use xlink:href="#m46cac3e00e" x="97.41767" y="274.194421" style="stroke: #000000; stroke-width: 0.8"/>
      </g>
     </g>
     <g id="text_2">
      <!-- 25000 -->
      <g transform="translate(81.51142 288.792858) scale(0.1 -0.1)">
       <defs>
        <path id="DejaVuSans-32" d="M 1228 531 
L 3431 531 
L 3431 0 
L 469 0 
L 469 531 
Q 828 903 1448 1529 
Q 2069 2156 2228 2338 
Q 2531 2678 2651 2914 
Q 2772 3150 2772 3378 
Q 2772 3750 2511 3984 
Q 2250 4219 1831 4219 
Q 1534 4219 1204 4116 
Q 875 4013 500 3803 
L 500 4441 
Q 881 4594 1212 4672 
Q 1544 4750 1819 4750 
Q 2544 4750 2975 4387 
Q 3406 4025 3406 3419 
Q 3406 3131 3298 2873 
Q 3191 2616 2906 2266 
Q 2828 2175 2409 1742 
Q 1991 1309 1228 531 
z
" transform="scale(0.015625)"/>
        <path id="DejaVuSans-35" d="M 691 4666 
L 3169 4666 
L 3169 4134 
L 1269 4134 
L 1269 2991 
Q 1406 3038 1543 3061 
Q 1681 3084 1819 3084 
Q 2600 3084 3056 2656 
Q 3513 2228 3513 1497 
Q 3513 744 3044 326 
Q 2575 -91 1722 -91 
Q 1428 -91 1123 -41 
Q 819 9 494 109 
L 494 744 
Q 775 591 1075 516 
Q 1375 441 1709 441 
Q 2250 441 2565 725 
Q 2881 1009 2881 1497 
Q 2881 1984 2565 2268 
Q 2250 2553 1709 2553 
Q 1456 2553 1204 2497 
Q 953 2441 691 2322 
L 691 4666 
z
" transform="scale(0.015625)"/>
       </defs>
       <use xlink:href="#DejaVuSans-32"/>
       <use xlink:href="#DejaVuSans-35" x="63.623047"/>
       <use xlink:href="#DejaVuSans-30" x="127.246094"/>
       <use xlink:href="#DejaVuSans-30" x="190.869141"/>
       <use xlink:href="#DejaVuSans-30" x="254.492188"/>
      </g>
     </g>
    </g>
    <g id="xtick_3">
     <g id="line2d_3">
      <g>
       <use xlink:href="#m46cac3e00e" x="137.999489" y="274.194421" style="stroke: #000000; stroke-width: 0.8"/>
      </g>
     </g>
     <g id="text_3">
      <!-- 50000 -->
      <g transform="translate(122.093239 288.792858) scale(0.1 -0.1)">
       <use xlink:href="#DejaVuSans-35"/>
       <use xlink:href="#DejaVuSans-30" x="63.623047"/>
       <use xlink:href="#DejaVuSans-30" x="127.246094"/>
       <use xlink:href="#DejaVuSans-30" x="190.869141"/>
       <use xlink:href="#DejaVuSans-30" x="254.492188"/>
      </g>
     </g>
    </g>
    <g id="xtick_4">
     <g id="line2d_4">
      <g>
       <use xlink:href="#m46cac3e00e" x="178.581307" y="274.194421" style="stroke: #000000; stroke-width: 0.8"/>
      </g>
     </g>
     <g id="text_4">
      <!-- 75000 -->
      <g transform="translate(162.675057 288.792858) scale(0.1 -0.1)">
       <defs>
        <path id="DejaVuSans-37" d="M 525 4666 
L 3525 4666 
L 3525 4397 
L 1831 0 
L 1172 0 
L 2766 4134 
L 525 4134 
L 525 4666 
z
" transform="scale(0.015625)"/>
       </defs>
       <use xlink:href="#DejaVuSans-37"/>
       <use xlink:href="#DejaVuSans-35" x="63.623047"/>
       <use xlink:href="#DejaVuSans-30" x="127.246094"/>
       <use xlink:href="#DejaVuSans-30" x="190.869141"/>
       <use xlink:href="#DejaVuSans-30" x="254.492188"/>
      </g>
     </g>
    </g>
    <g id="xtick_5">
     <g id="line2d_5">
      <g>
       <use xlink:href="#m46cac3e00e" x="219.163125" y="274.194421" style="stroke: #000000; stroke-width: 0.8"/>
      </g>
     </g>
     <g id="text_5">
      <!-- 100000 -->
      <g transform="translate(200.075625 288.792858) scale(0.1 -0.1)">
       <defs>
        <path id="DejaVuSans-31" d="M 794 531 
L 1825 531 
L 1825 4091 
L 703 3866 
L 703 4441 
L 1819 4666 
L 2450 4666 
L 2450 531 
L 3481 531 
L 3481 0 
L 794 0 
L 794 531 
z
" transform="scale(0.015625)"/>
       </defs>
       <use xlink:href="#DejaVuSans-31"/>
       <use xlink:href="#DejaVuSans-30" x="63.623047"/>
       <use xlink:href="#DejaVuSans-30" x="127.246094"/>
       <use xlink:href="#DejaVuSans-30" x="190.869141"/>
       <use xlink:href="#DejaVuSans-30" x="254.492188"/>
       <use xlink:href="#DejaVuSans-30" x="318.115234"/>
      </g>
     </g>
    </g>
    <g id="xtick_6">
     <g id="line2d_6">
      <g>
       <use xlink:href="#m46cac3e00e" x="259.744943" y="274.194421" style="stroke: #000000; stroke-width: 0.8"/>
      </g>
     </g>
     <g id="text_6">
      <!-- 125000 -->
      <g transform="translate(240.657443 288.792858) scale(0.1 -0.1)">
       <use xlink:href="#DejaVuSans-31"/>
       <use xlink:href="#DejaVuSans-32" x="63.623047"/>
       <use xlink:href="#DejaVuSans-35" x="127.246094"/>
       <use xlink:href="#DejaVuSans-30" x="190.869141"/>
       <use xlink:href="#DejaVuSans-30" x="254.492188"/>
       <use xlink:href="#DejaVuSans-30" x="318.115234"/>
      </g>
     </g>
    </g>
    <g id="xtick_7">
     <g id="line2d_7">
      <g>
       <use xlink:href="#m46cac3e00e" x="300.326761" y="274.194421" style="stroke: #000000; stroke-width: 0.8"/>
      </g>
     </g>
     <g id="text_7">
      <!-- 150000 -->
      <g transform="translate(281.239261 288.792858) scale(0.1 -0.1)">
       <use xlink:href="#DejaVuSans-31"/>
       <use xlink:href="#DejaVuSans-35" x="63.623047"/>
       <use xlink:href="#DejaVuSans-30" x="127.246094"/>
       <use xlink:href="#DejaVuSans-30" x="190.869141"/>
       <use xlink:href="#DejaVuSans-30" x="254.492188"/>
       <use xlink:href="#DejaVuSans-30" x="318.115234"/>
      </g>
     </g>
    </g>
    <g id="xtick_8">
     <g id="line2d_8">
      <g>
       <use xlink:href="#m46cac3e00e" x="340.90858" y="274.194421" style="stroke: #000000; stroke-width: 0.8"/>
      </g>
     </g>
     <g id="text_8">
      <!-- 175000 -->
      <g transform="translate(321.82108 288.792858) scale(0.1 -0.1)">
       <use xlink:href="#DejaVuSans-31"/>
       <use xlink:href="#DejaVuSans-37" x="63.623047"/>
       <use xlink:href="#DejaVuSans-35" x="127.246094"/>
       <use xlink:href="#DejaVuSans-30" x="190.869141"/>
       <use xlink:href="#DejaVuSans-30" x="254.492188"/>
       <use xlink:href="#DejaVuSans-30" x="318.115234"/>
      </g>
     </g>
    </g>
    <g id="xtick_9">
     <g id="line2d_9">
      <g>
       <use xlink:href="#m46cac3e00e" x="381.490398" y="274.194421" style="stroke: #000000; stroke-width: 0.8"/>
      </g>
     </g>
     <g id="text_9">
      <!-- 200000 -->
      <g transform="translate(362.402898 288.792858) scale(0.1 -0.1)">
       <use xlink:href="#DejaVuSans-32"/>
       <use xlink:href="#DejaVuSans-30" x="63.623047"/>
       <use xlink:href="#DejaVuSans-30" x="127.246094"/>
       <use xlink:href="#DejaVuSans-30" x="190.869141"/>
       <use xlink:href="#DejaVuSans-30" x="254.492188"/>
       <use xlink:href="#DejaVuSans-30" x="318.115234"/>
      </g>
     </g>
    </g>
    <g id="text_10">
     <!-- Env steps -->
     <g transform="translate(194.86625 302.470983) scale(0.1 -0.1)">
      <defs>
       <path id="DejaVuSans-45" d="M 628 4666 
L 3578 4666 
L 3578 4134 
L 1259 4134 
L 1259 2753 
L 3481 2753 
L 3481 2222 
L 1259 2222 
L 1259 531 
L 3634 531 
L 3634 0 
L 628 0 
L 628 4666 
z
" transform="scale(0.015625)"/>
       <path id="DejaVuSans-6e" d="M 3513 2113 
L 3513 0 
L 2938 0 
L 2938 2094 
Q 2938 2591 2744 2837 
Q 2550 3084 2163 3084 
Q 1697 3084 1428 2787 
Q 1159 2491 1159 1978 
L 1159 0 
L 581 0 
L 581 3500 
L 1159 3500 
L 1159 2956 
Q 1366 3272 1645 3428 
Q 1925 3584 2291 3584 
Q 2894 3584 3203 3211 
Q 3513 2838 3513 2113 
z
" transform="scale(0.015625)"/>
       <path id="DejaVuSans-76" d="M 191 3500 
L 800 3500 
L 1894 563 
L 2988 3500 
L 3597 3500 
L 2284 0 
L 1503 0 
L 191 3500 
z
" transform="scale(0.015625)"/>
       <path id="DejaVuSans-20" transform="scale(0.015625)"/>
       <path id="DejaVuSans-73" d="M 2834 3397 
L 2834 2853 
Q 2591 2978 2328 3040 
Q 2066 3103 1784 3103 
Q 1356 3103 1142 2972 
Q 928 2841 928 2578 
Q 928 2378 1081 2264 
Q 1234 2150 1697 2047 
L 1894 2003 
Q 2506 1872 2764 1633 
Q 3022 1394 3022 966 
Q 3022 478 2636 193 
Q 2250 -91 1575 -91 
Q 1294 -91 989 -36 
Q 684 19 347 128 
L 347 722 
Q 666 556 975 473 
Q 1284 391 1588 391 
Q 1994 391 2212 530 
Q 2431 669 2431 922 
Q 2431 1156 2273 1281 
Q 2116 1406 1581 1522 
L 1381 1569 
Q 847 1681 609 1914 
Q 372 2147 372 2553 
Q 372 3047 722 3315 
Q 1072 3584 1716 3584 
Q 2034 3584 2315 3537 
Q 2597 3491 2834 3397 
z
" transform="scale(0.015625)"/>
       <path id="DejaVuSans-74" d="M 1172 4494 
L 1172 3500 
L 2356 3500 
L 2356 3053 
L 1172 3053 
L 1172 1153 
Q 1172 725 1289 603 
Q 1406 481 1766 481 
L 2356 481 
L 2356 0 
L 1766 0 
Q 1100 0 847 248 
Q 594 497 594 1153 
L 594 3053 
L 172 3053 
L 172 3500 
L 594 3500 
L 594 4494 
L 1172 4494 
z
" transform="scale(0.015625)"/>
       <path id="DejaVuSans-65" d="M 3597 1894 
L 3597 1613 
L 953 1613 
Q 991 1019 1311 708 
Q 1631 397 2203 397 
Q 2534 397 2845 478 
Q 3156 559 3463 722 
L 3463 178 
Q 3153 47 2828 -22 
Q 2503 -91 2169 -91 
Q 1331 -91 842 396 
Q 353 884 353 1716 
Q 353 2575 817 3079 
Q 1281 3584 2069 3584 
Q 2775 3584 3186 3129 
Q 3597 2675 3597 1894 
z
M 3022 2063 
Q 3016 2534 2758 2815 
Q 2500 3097 2075 3097 
Q 1594 3097 1305 2825 
Q 1016 2553 972 2059 
L 3022 2063 
z
" transform="scale(0.015625)"/>
       <path id="DejaVuSans-70" d="M 1159 525 
L 1159 -1331 
L 581 -1331 
L 581 3500 
L 1159 3500 
L 1159 2969 
Q 1341 3281 1617 3432 
Q 1894 3584 2278 3584 
Q 2916 3584 3314 3078 
Q 3713 2572 3713 1747 
Q 3713 922 3314 415 
Q 2916 -91 2278 -91 
Q 1894 -91 1617 61 
Q 1341 213 1159 525 
z
M 3116 1747 
Q 3116 2381 2855 2742 
Q 2594 3103 2138 3103 
Q 1681 3103 1420 2742 
Q 1159 2381 1159 1747 
Q 1159 1113 1420 752 
Q 1681 391 2138 391 
Q 2594 391 2855 752 
Q 3116 1113 3116 1747 
z
" transform="scale(0.015625)"/>
      </defs>
      <use xlink:href="#DejaVuSans-45"/>
      <use xlink:href="#DejaVuSans-6e" x="63.183594"/>
      <use xlink:href="#DejaVuSans-76" x="126.5625"/>
      <use xlink:href="#DejaVuSans-20" x="185.742188"/>
      <use xlink:href="#DejaVuSans-73" x="217.529297"/>
      <use xlink:href="#DejaVuSans-74" x="269.628906"/>
      <use xlink:href="#DejaVuSans-65" x="308.837891"/>
      <use xlink:href="#DejaVuSans-70" x="370.361328"/>
      <use xlink:href="#DejaVuSans-73" x="433.837891"/>
     </g>
    </g>
   </g>
   <g id="matplotlib.axis_2">
    <g id="ytick_1">
     <g id="line2d_10">
      <defs>
       <path id="m36fa49f7e9" d="M 0 0 
L -3.5 0 
" style="stroke: #000000; stroke-width: 0.8"/>
      </defs>
      <g>
       <use xlink:href="#m36fa49f7e9" x="40.603125" y="257.596216" style="stroke: #000000; stroke-width: 0.8"/>
      </g>
     </g>
     <g id="text_11">
      <!-- 20 -->
      <g transform="translate(20.878125 261.395435) scale(0.1 -0.1)">
       <use xlink:href="#DejaVuSans-32"/>
       <use xlink:href="#DejaVuSans-30" x="63.623047"/>
      </g>
     </g>
    </g>
    <g id="ytick_2">
     <g id="line2d_11">
      <g>
       <use xlink:href="#m36fa49f7e9" x="40.603125" y="216.496717" style="stroke: #000000; stroke-width: 0.8"/>
      </g>
     </g>
     <g id="text_12">
      <!-- 25 -->
      <g transform="translate(20.878125 220.295936) scale(0.1 -0.1)">
       <use xlink:href="#DejaVuSans-32"/>
       <use xlink:href="#DejaVuSans-35" x="63.623047"/>
      </g>
     </g>
    </g>
    <g id="ytick_3">
     <g id="line2d_12">
      <g>
       <use xlink:href="#m36fa49f7e9" x="40.603125" y="175.397217" style="stroke: #000000; stroke-width: 0.8"/>
      </g>
     </g>
     <g id="text_13">
      <!-- 30 -->
      <g transform="translate(20.878125 179.196436) scale(0.1 -0.1)">
       <defs>
        <path id="DejaVuSans-33" d="M 2597 2516 
Q 3050 2419 3304 2112 
Q 3559 1806 3559 1356 
Q 3559 666 3084 287 
Q 2609 -91 1734 -91 
Q 1441 -91 1130 -33 
Q 819 25 488 141 
L 488 750 
Q 750 597 1062 519 
Q 1375 441 1716 441 
Q 2309 441 2620 675 
Q 2931 909 2931 1356 
Q 2931 1769 2642 2001 
Q 2353 2234 1838 2234 
L 1294 2234 
L 1294 2753 
L 1863 2753 
Q 2328 2753 2575 2939 
Q 2822 3125 2822 3475 
Q 2822 3834 2567 4026 
Q 2313 4219 1838 4219 
Q 1578 4219 1281 4162 
Q 984 4106 628 3988 
L 628 4550 
Q 988 4650 1302 4700 
Q 1616 4750 1894 4750 
Q 2613 4750 3031 4423 
Q 3450 4097 3450 3541 
Q 3450 3153 3228 2886 
Q 3006 2619 2597 2516 
z
" transform="scale(0.015625)"/>
       </defs>
       <use xlink:href="#DejaVuSans-33"/>
       <use xlink:href="#DejaVuSans-30" x="63.623047"/>
      </g>
     </g>
    </g>
    <g id="ytick_4">
     <g id="line2d_13">
      <g>
       <use xlink:href="#m36fa49f7e9" x="40.603125" y="134.297718" style="stroke: #000000; stroke-width: 0.8"/>
      </g>
     </g>
     <g id="text_14">
      <!-- 35 -->
      <g transform="translate(20.878125 138.096936) scale(0.1 -0.1)">
       <use xlink:href="#DejaVuSans-33"/>
       <use xlink:href="#DejaVuSans-35" x="63.623047"/>
      </g>
     </g>
    </g>
    <g id="ytick_5">
     <g id="line2d_14">
      <g>
       <use xlink:href="#m36fa49f7e9" x="40.603125" y="93.198218" style="stroke: #000000; stroke-width: 0.8"/>
      </g>
     </g>
     <g id="text_15">
      <!-- 40 -->
      <g transform="translate(20.878125 96.997437) scale(0.1 -0.1)">
       <defs>
        <path id="DejaVuSans-34" d="M 2419 4116 
L 825 1625 
L 2419 1625 
L 2419 4116 
z
M 2253 4666 
L 3047 4666 
L 3047 1625 
L 3713 1625 
L 3713 1100 
L 3047 1100 
L 3047 0 
L 2419 0 
L 2419 1100 
L 313 1100 
L 313 1709 
L 2253 4666 
z
" transform="scale(0.015625)"/>
       </defs>
       <use xlink:href="#DejaVuSans-34"/>
       <use xlink:href="#DejaVuSans-30" x="63.623047"/>
      </g>
     </g>
    </g>
    <g id="ytick_6">
     <g id="line2d_15">
      <g>
       <use xlink:href="#m36fa49f7e9" x="40.603125" y="52.098718" style="stroke: #000000; stroke-width: 0.8"/>
      </g>
     </g>
     <g id="text_16">
      <!-- 45 -->
      <g transform="translate(20.878125 55.897937) scale(0.1 -0.1)">
       <use xlink:href="#DejaVuSans-34"/>
       <use xlink:href="#DejaVuSans-35" x="63.623047"/>
      </g>
     </g>
    </g>
    <g id="ytick_7">
     <g id="line2d_16">
      <g>
       <use xlink:href="#m36fa49f7e9" x="40.603125" y="10.999219" style="stroke: #000000; stroke-width: 0.8"/>
      </g>
     </g>
     <g id="text_17">
      <!-- 50 -->
      <g transform="translate(20.878125 14.798438) scale(0.1 -0.1)">
       <use xlink:href="#DejaVuSans-35"/>
       <use xlink:href="#DejaVuSans-30" x="63.623047"/>
      </g>
     </g>
    </g>
    <g id="text_18">
     <!-- Episode return (smoothed) -->
     <g transform="translate(14.798438 208.114202) rotate(-90) scale(0.1 -0.1)">
      <defs>
       <path id="DejaVuSans-69" d="M 603 3500 
L 1178 3500 
L 1178 0 
L 603 0 
L 603 3500 
z
M 603 4863 
L 1178 4863 
L 1178 4134 
L 603 4134 
L 603 4863 
z
" transform="scale(0.015625)"/>
       <path id="DejaVuSans-6f" d="M 1959 3097 
Q 1497 3097 1228 2736 
Q 959 2375 959 1747 
Q 959 1119 1226 758 
Q 1494 397 1959 397 
Q 2419 397 2687 759 
Q 2956 1122 2956 1747 
Q 2956 2369 2687 2733 
Q 2419 3097 1959 3097 
z
M 1959 3584 
Q 2709 3584 3137 3096 
Q 3566 2609 3566 1747 
Q 3566 888 3137 398 
Q 2709 -91 1959 -91 
Q 1206 -91 779 398 
Q 353 888 353 1747 
Q 353 2609 779 3096 
Q 1206 3584 1959 3584 
z
" transform="scale(0.015625)"/>
       <path id="DejaVuSans-64" d="M 2906 2969 
L 2906 4863 
L 3481 4863 
L 3481 0 
L 2906 0 
L 2906 525 
Q 2725 213 2448 61 
Q 2172 -91 1784 -91 
Q 1150 -91 751 415 
Q 353 922 353 1747 
Q 353 2572 751 3078 
Q 1150 3584 1784 3584 
Q 2172 3584 2448 3432 
Q 2725 3281 2906 2969 
z
M 947 1747 
Q 947 1113 1208 752 
Q 1469 391 1925 391 
Q 2381 391 2643 752 
Q 2906 1113 2906 1747 
Q 2906 2381 2643 2742 
Q 2381 3103 1925 3103 
Q 1469 3103 1208 2742 
Q 947 2381 947 1747 
z
" transform="scale(0.015625)"/>
       <path id="DejaVuSans-72" d="M 2631 2963 
Q 2534 3019 2420 3045 
Q 2306 3072 2169 3072 
Q 1681 3072 1420 2755 
Q 1159 2438 1159 1844 
L 1159 0 
L 581 0 
L 581 3500 
L 1159 3500 
L 1159 2956 
Q 1341 3275 1631 3429 
Q 1922 3584 2338 3584 
Q 2397 3584 2469 3576 
Q 2541 3569 2628 3553 
L 2631 2963 
z
" transform="scale(0.015625)"/>
       <path id="DejaVuSans-75" d="M 544 1381 
L 544 3500 
L 1119 3500 
L 1119 1403 
Q 1119 906 1312 657 
Q 1506 409 1894 409 
Q 2359 409 2629 706 
Q 2900 1003 2900 1516 
L 2900 3500 
L 3475 3500 
L 3475 0 
L 2900 0 
L 2900 538 
Q 2691 219 2414 64 
Q 2138 -91 1772 -91 
Q 1169 -91 856 284 
Q 544 659 544 1381 
z
M 1991 3584 
L 1991 3584 
z
" transform="scale(0.015625)"/>
       <path id="DejaVuSans-28" d="M 1984 4856 
Q 1566 4138 1362 3434 
Q 1159 2731 1159 2009 
Q 1159 1288 1364 580 
Q 1569 -128 1984 -844 
L 1484 -844 
Q 1016 -109 783 600 
Q 550 1309 550 2009 
Q 550 2706 781 3412 
Q 1013 4119 1484 4856 
L 1984 4856 
z
" transform="scale(0.015625)"/>
       <path id="DejaVuSans-6d" d="M 3328 2828 
Q 3544 3216 3844 3400 
Q 4144 3584 4550 3584 
Q 5097 3584 5394 3201 
Q 5691 2819 5691 2113 
L 5691 0 
L 5113 0 
L 5113 2094 
Q 5113 2597 4934 2840 
Q 4756 3084 4391 3084 
Q 3944 3084 3684 2787 
Q 3425 2491 3425 1978 
L 3425 0 
L 2847 0 
L 2847 2094 
Q 2847 2600 2669 2842 
Q 2491 3084 2119 3084 
Q 1678 3084 1418 2786 
Q 1159 2488 1159 1978 
L 1159 0 
L 581 0 
L 581 3500 
L 1159 3500 
L 1159 2956 
Q 1356 3278 1631 3431 
Q 1906 3584 2284 3584 
Q 2666 3584 2933 3390 
Q 3200 3197 3328 2828 
z
" transform="scale(0.015625)"/>
       <path id="DejaVuSans-68" d="M 3513 2113 
L 3513 0 
L 2938 0 
L 2938 2094 
Q 2938 2591 2744 2837 
Q 2550 3084 2163 3084 
Q 1697 3084 1428 2787 
Q 1159 2491 1159 1978 
L 1159 0 
L 581 0 
L 581 4863 
L 1159 4863 
L 1159 2956 
Q 1366 3272 1645 3428 
Q 1925 3584 2291 3584 
Q 2894 3584 3203 3211 
Q 3513 2838 3513 2113 
z
" transform="scale(0.015625)"/>
       <path id="DejaVuSans-29" d="M 513 4856 
L 1013 4856 
Q 1481 4119 1714 3412 
Q 1947 2706 1947 2009 
Q 1947 1309 1714 600 
Q 1481 -109 1013 -844 
L 513 -844 
Q 928 -128 1133 580 
Q 1338 1288 1338 2009 
Q 1338 2731 1133 3434 
Q 928 4138 513 4856 
z
" transform="scale(0.015625)"/>
      </defs>
      <use xlink:href="#DejaVuSans-45"/>
      <use xlink:href="#DejaVuSans-70" x="63.183594"/>
      <use xlink:href="#DejaVuSans-69" x="126.660156"/>
      <use xlink:href="#DejaVuSans-73" x="154.443359"/>
      <use xlink:href="#DejaVuSans-6f" x="206.542969"/>
      <use xlink:href="#DejaVuSans-64" x="267.724609"/>
      <use xlink:href="#DejaVuSans-65" x="331.201172"/>
      <use xlink:href="#DejaVuSans-20" x="392.724609"/>
      <use xlink:href="#DejaVuSans-72" x="424.511719"/>
      <use xlink:href="#DejaVuSans-65" x="463.375"/>
      <use xlink:href="#DejaVuSans-74" x="524.898438"/>
      <use xlink:href="#DejaVuSans-75" x="564.107422"/>
      <use xlink:href="#DejaVuSans-72" x="627.486328"/>
      <use xlink:href="#DejaVuSans-6e" x="666.849609"/>
      <use xlink:href="#DejaVuSans-20" x="730.228516"/>
      <use xlink:href="#DejaVuSans-28" x="762.015625"/>
      <use xlink:href="#DejaVuSans-73" x="801.029297"/>
      <use xlink:href="#DejaVuSans-6d" x="853.128906"/>
      <use xlink:href="#DejaVuSans-6f" x="950.541016"/>
      <use xlink:href="#DejaVuSans-6f" x="1011.722656"/>
      <use xlink:href="#DejaVuSans-74" x="1072.904297"/>
      <use xlink:href="#DejaVuSans-68" x="1112.113281"/>
      <use xlink:href="#DejaVuSans-65" x="1175.492188"/>
      <use xlink:href="#DejaVuSans-64" x="1237.015625"/>
      <use xlink:href="#DejaVuSans-29" x="1300.492188"/>
     </g>
    </g>
   </g>
   <g id="line2d_17">
    <path d="M 56.835852 173.849136 
L 63.345217 173.876604 
L 64.158887 168.232204 
L 64.972558 160.395522 
L 65.786228 161.610412 
L 66.599899 159.636332 
L 67.413569 159.503419 
L 68.22724 153.793061 
L 69.04091 163.260298 
L 69.854581 170.481758 
L 70.668251 176.330282 
L 71.481922 175.874033 
L 72.295593 173.023884 
L 73.109263 172.493711 
L 73.922934 176.290591 
L 74.736604 187.644113 
L 75.550275 194.790825 
L 76.363945 200.232131 
L 77.177616 201.439192 
L 78.804957 218.704862 
L 79.618627 216.710146 
L 80.432298 205.814315 
L 81.245968 200.859439 
L 82.059639 193.502216 
L 82.87331 199.12447 
L 83.68698 203.373719 
L 84.500651 201.566233 
L 85.314321 187.122592 
L 86.127992 186.436296 
L 86.941662 193.121059 
L 87.755333 179.505862 
L 88.569003 182.285658 
L 89.382674 164.37541 
L 90.196344 149.650218 
L 91.010015 137.859674 
L 91.823685 139.850511 
L 92.637356 138.353418 
L 93.451027 128.981049 
L 94.264697 128.032465 
L 95.078368 115.861759 
L 95.892038 123.86514 
L 96.705709 125.163534 
L 97.519379 124.651353 
L 98.33305 129.095077 
L 99.14672 137.55766 
L 99.960391 141.19797 
L 100.774061 143.00082 
L 101.587732 129.857667 
L 102.401403 122.34906 
L 103.215073 131.671264 
L 104.028744 132.367792 
L 104.842414 120.261809 
L 105.656085 121.308834 
L 106.469755 116.932097 
L 107.283426 124.675387 
L 108.097096 147.989619 
L 108.910767 151.524039 
L 109.724437 138.649938 
L 110.538108 159.594099 
L 111.351778 177.549842 
L 112.165449 168.700574 
L 112.97912 177.003497 
L 113.79279 170.541708 
L 114.606461 176.489393 
L 115.420131 178.493071 
L 116.233802 178.798965 
L 117.047472 171.117856 
L 117.861143 161.039689 
L 118.674813 158.275035 
L 119.488484 148.571502 
L 120.302154 142.752678 
L 121.115825 116.207963 
L 121.929495 114.02169 
L 122.743166 118.569794 
L 123.556837 112.034802 
L 124.370507 107.663113 
L 125.184178 112.3614 
L 125.997848 116.227981 
L 127.625189 146.046818 
L 128.43886 143.618377 
L 129.25253 143.062143 
L 131.693542 160.002382 
L 132.507212 162.904926 
L 133.320883 151.908939 
L 134.134554 147.688326 
L 134.948224 148.86404 
L 135.761895 159.59379 
L 136.575565 160.885248 
L 137.389236 159.996442 
L 138.202906 164.517112 
L 139.016577 161.72602 
L 139.830247 167.516929 
L 140.643918 162.456952 
L 141.457588 162.019553 
L 142.271259 156.598162 
L 143.08493 164.148555 
L 143.8986 169.970676 
L 144.712271 158.382539 
L 145.525941 156.322174 
L 146.339612 155.615379 
L 147.153282 168.642787 
L 147.966953 169.239503 
L 148.780623 159.521686 
L 149.594294 142.192736 
L 150.407964 133.320566 
L 151.221635 133.99124 
L 152.035305 145.836067 
L 152.848976 149.769636 
L 153.662647 134.442888 
L 154.476317 131.804657 
L 155.289988 136.756271 
L 156.103658 136.744872 
L 156.917329 125.970691 
L 157.730999 123.167856 
L 158.54467 118.059329 
L 159.35834 109.605571 
L 160.172011 114.601787 
L 160.985681 115.639953 
L 161.799352 118.989236 
L 162.613022 124.766685 
L 163.426693 136.047485 
L 164.240364 140.846959 
L 165.054034 138.352868 
L 165.867705 141.528002 
L 166.681375 149.344976 
L 167.495046 150.100492 
L 168.308716 142.132717 
L 169.122387 130.477215 
L 169.936057 132.434918 
L 170.749728 124.461237 
L 171.563398 119.089255 
L 172.377069 120.711157 
L 173.190739 130.802131 
L 174.00441 127.27269 
L 174.818081 127.399491 
L 175.631751 132.624415 
L 176.445422 132.468429 
L 177.259092 133.318746 
L 178.072763 134.678772 
L 178.886433 117.078675 
L 179.700104 103.665062 
L 180.513774 104.614746 
L 181.327445 104.18878 
L 182.141115 104.13405 
L 182.954786 97.749584 
L 183.768457 105.707608 
L 184.582127 104.826595 
L 185.395798 123.065262 
L 186.209468 120.183078 
L 187.023139 109.061492 
L 187.836809 109.22534 
L 188.65048 112.300524 
L 189.46415 116.560004 
L 190.277821 110.929888 
L 191.091491 111.534157 
L 191.905162 100.229872 
L 192.718832 108.91512 
L 193.532503 128.194081 
L 194.346174 131.016316 
L 195.159844 124.605446 
L 195.973515 124.45928 
L 196.787185 140.97218 
L 197.600856 144.408572 
L 198.414526 154.994869 
L 199.228197 142.972596 
L 200.041867 138.123748 
L 200.855538 140.176697 
L 202.482879 155.500836 
L 203.296549 148.687281 
L 204.11022 138.757236 
L 204.923891 132.37878 
L 205.737561 130.360303 
L 206.551232 126.470787 
L 207.364902 116.954587 
L 208.178573 115.765655 
L 208.992243 99.18168 
L 209.805914 93.456935 
L 212.246925 135.873954 
L 213.060596 138.652925 
L 213.874266 142.914329 
L 214.687937 142.229921 
L 215.501608 159.990776 
L 216.315278 162.857063 
L 217.128949 173.009532 
L 217.942619 154.785149 
L 218.75629 146.541042 
L 219.56996 139.546402 
L 220.383631 142.589619 
L 221.197301 134.101765 
L 222.010972 128.500285 
L 222.824642 118.79167 
L 223.638313 98.642374 
L 224.451984 100.319693 
L 225.265654 105.774665 
L 226.079325 108.984306 
L 226.892995 107.446045 
L 227.706666 108.235588 
L 228.520336 99.791477 
L 229.334007 105.896212 
L 230.961348 123.261901 
L 231.775018 108.524451 
L 232.588689 107.290917 
L 234.21603 119.322426 
L 235.843371 124.479023 
L 236.657042 117.489945 
L 237.470712 114.694286 
L 238.284383 129.842044 
L 239.098053 130.439652 
L 239.911724 126.559887 
L 241.539065 132.459365 
L 242.352735 124.570836 
L 243.166406 122.760707 
L 243.980076 105.526557 
L 244.793747 99.066794 
L 245.607418 96.198687 
L 246.421088 94.656066 
L 247.234759 91.523954 
L 248.048429 89.653944 
L 248.8621 100.213837 
L 249.67577 103.186941 
L 250.489441 115.493375 
L 251.303111 115.789655 
L 252.116782 117.277786 
L 252.930452 113.883799 
L 253.744123 114.687763 
L 254.557793 117.380278 
L 255.371464 105.575039 
L 256.185135 107.572227 
L 256.998805 109.133596 
L 257.812476 109.60279 
L 258.626146 114.337541 
L 259.439817 111.831433 
L 260.253487 116.193028 
L 261.067158 110.653385 
L 261.880828 123.68251 
L 262.694499 122.569115 
L 263.508169 122.12454 
L 264.32184 125.063824 
L 265.135511 116.144924 
L 265.949181 119.931674 
L 266.762852 107.541428 
L 267.576522 105.264406 
L 268.390193 101.691291 
L 269.203863 98.77817 
L 270.017534 91.179467 
L 270.831204 94.856001 
L 271.644875 105.81185 
L 272.458545 108.455128 
L 273.272216 119.652596 
L 274.085886 120.902165 
L 274.899557 115.59693 
L 275.713228 119.590414 
L 276.526898 130.204558 
L 277.340569 122.347927 
L 278.154239 111.33872 
L 278.96791 110.366272 
L 279.78158 112.076004 
L 280.595251 124.444859 
L 282.222592 114.312854 
L 283.036262 115.470816 
L 283.849933 110.418496 
L 284.663603 106.960542 
L 285.477274 109.164807 
L 286.290945 95.133191 
L 287.104615 86.34504 
L 287.918286 86.584563 
L 288.731956 80.410402 
L 289.545627 81.610803 
L 290.359297 86.87947 
L 291.172968 84.772615 
L 291.986638 74.513568 
L 292.800309 85.958835 
L 293.613979 86.8211 
L 294.42765 85.269105 
L 295.24132 88.83295 
L 296.054991 88.388855 
L 296.868662 90.606374 
L 297.682332 103.132176 
L 298.496003 99.197818 
L 299.309673 97.949966 
L 300.123344 95.016107 
L 300.937014 102.553865 
L 301.750685 104.346998 
L 303.378026 92.943999 
L 304.191696 84.619513 
L 305.005367 103.620701 
L 305.819038 96.315703 
L 306.632708 112.510142 
L 307.446379 111.785767 
L 308.260049 113.451413 
L 309.07372 112.748223 
L 309.88739 116.928149 
L 310.701061 114.277111 
L 311.514731 113.769324 
L 312.328402 115.05474 
L 313.142072 98.25562 
L 313.955743 92.989253 
L 314.769413 83.578429 
L 315.583084 90.539626 
L 316.396755 91.419471 
L 317.210425 98.876885 
L 318.024096 93.412677 
L 318.837766 100.177201 
L 319.651437 102.801149 
L 320.465107 120.750231 
L 321.278778 127.701128 
L 322.092448 113.598128 
L 322.906119 115.58117 
L 324.53346 108.668935 
L 325.34713 102.936327 
L 326.160801 100.232516 
L 326.974472 81.241594 
L 327.788142 80.566972 
L 328.601813 79.391052 
L 329.415483 80.297885 
L 330.229154 90.364516 
L 331.042824 86.278738 
L 331.856495 86.358602 
L 332.670165 78.922683 
L 333.483836 86.445333 
L 334.297506 81.791442 
L 335.111177 88.276064 
L 335.924847 85.301586 
L 336.738518 84.694639 
L 337.552189 91.133766 
L 338.365859 96.325317 
L 339.17953 108.890467 
L 339.9932 101.748253 
L 340.806871 113.995698 
L 341.620541 123.717841 
L 342.434212 118.450616 
L 343.247882 118.05751 
L 344.061553 117.245065 
L 344.875223 119.647755 
L 345.688894 125.241544 
L 346.502565 131.731729 
L 347.316235 125.162092 
L 348.129906 117.628523 
L 348.943576 127.055622 
L 349.757247 115.158433 
L 350.570917 112.487583 
L 352.198258 87.092419 
L 353.011929 78.171664 
L 353.825599 77.722007 
L 354.63927 70.037877 
L 355.45294 70.868932 
L 356.266611 78.818543 
L 357.080282 73.567902 
L 357.893952 74.216945 
L 358.707623 68.821167 
L 359.521293 73.299365 
L 360.334964 76.580389 
L 361.148634 77.688496 
L 361.962305 73.944699 
L 362.775975 67.875021 
L 363.589646 64.993317 
L 364.403316 74.261443 
L 365.216987 81.070741 
L 366.030657 84.658655 
L 366.844328 82.645535 
L 367.657999 83.011448 
L 368.471669 83.663512 
L 369.28534 92.236655 
L 370.09901 95.633904 
L 370.912681 98.464722 
L 371.726351 104.228953 
L 372.540022 105.805258 
L 373.353692 96.035388 
L 374.167363 96.944556 
L 374.981033 94.597215 
L 375.794704 95.53416 
L 376.608374 98.586167 
L 377.422045 89.451262 
L 378.235716 95.611586 
L 379.049386 104.755212 
L 379.863057 118.70875 
L 380.676727 122.336149 
L 381.490398 115.775543 
L 381.490398 115.775543 
" clip-path="url(#pf69223285e)" style="fill: none; stroke: #1f77b4; stroke-width: 1.5; stroke-linecap: square"/>
   </g>
   <g id="patch_3">
    <path d="M 40.603125 274.194421 
L 40.603125 8.082421 
" style="fill: none; stroke: #000000; stroke-width: 0.8; stroke-linejoin: miter; stroke-linecap: square"/>
   </g>
   <g id="patch_4">
    <path d="M 397.723125 274.194421 
L 397.723125 8.082421 
" style="fill: none; stroke: #000000; stroke-width: 0.8; stroke-linejoin: miter; stroke-linecap: square"/>
   </g>
   <g id="patch_5">
    <path d="M 40.603125 274.194421 
L 397.723125 274.194421 
" style="fill: none; stroke: #000000; stroke-width: 0.8; stroke-linejoin: miter; stroke-linecap: square"/>
   </g>
   <g id="patch_6">
    <path d="M 40.603125 8.082421 
L 397.723125 8.082421 
" style="fill: none; stroke: #000000; stroke-width: 0.8; stroke-linejoin: miter; stroke-linecap: square"/>
   </g>
   <g id="legend_1">
    <g id="patch_7">
     <path d="M 47.603125 30.760546 
L 102.65625 30.760546 
Q 104.65625 30.760546 104.65625 28.760546 
L 104.65625 15.082421 
Q 104.65625 13.082421 102.65625 13.082421 
L 47.603125 13.082421 
Q 45.603125 13.082421 45.603125 15.082421 
L 45.603125 28.760546 
Q 45.603125 30.760546 47.603125 30.760546 
z
" style="fill: #ffffff; opacity: 0.8; stroke: #cccccc; stroke-linejoin: miter"/>
    </g>
    <g id="line2d_18">
     <path d="M 49.603125 21.180858 
L 59.603125 21.180858 
L 69.603125 21.180858 
" style="fill: none; stroke: #1f77b4; stroke-width: 1.5; stroke-linecap: square"/>
    </g>
    <g id="text_19">
     <!-- DQN -->
     <g transform="translate(77.603125 24.680858) scale(0.1 -0.1)">
      <defs>
       <path id="DejaVuSans-44" d="M 1259 4147 
L 1259 519 
L 2022 519 
Q 2988 519 3436 956 
Q 3884 1394 3884 2338 
Q 3884 3275 3436 3711 
Q 2988 4147 2022 4147 
L 1259 4147 
z
M 628 4666 
L 1925 4666 
Q 3281 4666 3915 4102 
Q 4550 3538 4550 2338 
Q 4550 1131 3912 565 
Q 3275 0 1925 0 
L 628 0 
L 628 4666 
z
" transform="scale(0.015625)"/>
       <path id="DejaVuSans-51" d="M 2522 4238 
Q 1834 4238 1429 3725 
Q 1025 3213 1025 2328 
Q 1025 1447 1429 934 
Q 1834 422 2522 422 
Q 3209 422 3611 934 
Q 4013 1447 4013 2328 
Q 4013 3213 3611 3725 
Q 3209 4238 2522 4238 
z
M 3406 84 
L 4238 -825 
L 3475 -825 
L 2784 -78 
Q 2681 -84 2626 -87 
Q 2572 -91 2522 -91 
Q 1538 -91 948 567 
Q 359 1225 359 2328 
Q 359 3434 948 4092 
Q 1538 4750 2522 4750 
Q 3503 4750 4090 4092 
Q 4678 3434 4678 2328 
Q 4678 1516 4351 937 
Q 4025 359 3406 84 
z
" transform="scale(0.015625)"/>
       <path id="DejaVuSans-4e" d="M 628 4666 
L 1478 4666 
L 3547 763 
L 3547 4666 
L 4159 4666 
L 4159 0 
L 3309 0 
L 1241 3903 
L 1241 0 
L 628 0 
L 628 4666 
z
" transform="scale(0.015625)"/>
      </defs>
      <use xlink:href="#DejaVuSans-44"/>
      <use xlink:href="#DejaVuSans-51" x="77.001953"/>
      <use xlink:href="#DejaVuSans-4e" x="155.712891"/>
     </g>
    </g>
   </g>
  </g>
 </g>
 <defs>
  <clipPath id="pf69223285e">
   <rect x="40.603125" y="8.082421" width="357.12" height="266.112"/>
  </clipPath>
 </defs>
</svg>
