<?xml version="1.0" encoding="utf-8" standalone="no"?>
<!DOCTYPE svg PUBLIC "-//W3C//DTD SVG 1.1//EN"
  "http://www.w3.org/Graphics/SVG/1.1/DTD/svg11.dtd">
<svg xmlns:xlink="http://www.w3.org/1999/xlink" width="407.777898pt" height="310.86825pt" viewBox="0 0 407.777898 310.86825" xmlns="http://www.w3.org/2000/svg" version="1.1">
 <metadata>
  <rdf:RDF xmlns:dc="http://purl.org/dc/elements/1.1/" xmlns:cc="http://creativecommons.org/ns#" xmlns:rdf="http://www.w3.org/1999/02/22-rdf-syntax-ns#">
   <cc:Work>
    <dc:type rdf:resource="http://purl.org/dc/dcmitype/StillImage"/>
    <dc:date>2025-11-06T17:54:46.938062</dc:date>
    <dc:format>image/svg+xml</dc:format>
    <dc:creator>
     <cc:Agent>
      <dc:title>Matplotlib v3.9.4, https://matplotlib.org/</dc:title>
     </cc:Agent>
    </dc:creator>
   </cc:Work>
  </rdf:RDF>
 </metadata>
 <defs>
  <style type="text/css">*{stroke-linejoin: round; stroke-linecap: butt}</style>
 </defs>
 <g id="figure_1">
  <g id="patch_1">
   <path d="M 0 310.86825 
L 407.777898 310.86825 
L 407.777898 0 
L 0 0 
z
" style="fill: #ffffff"/>
  </g>
  <g id="axes_1">
   <g id="patch_2">
    <path d="M 40.603125 273.312 
L 397.723125 273.312 
L 397.723125 7.2 
L 40.603125 7.2 
z
" style="fill: #ffffff"/>
   </g>
   <g id="PolyCollection_1">
    <path d="M 56.835852 147.950786 
L 56.835852 201.76029 
L 57.649523 201.76029 
L 58.463193 201.76029 
L 59.276864 201.76029 
L 60.090534 201.76029 
L 60.904205 201.76029 
L 61.717876 201.76029 
L 62.531546 201.76029 
L 63.345217 201.908334 
L 64.158887 207.676715 
L 64.972558 221.407898 
L 65.786228 220.477164 
L 66.599899 221.676819 
L 67.413569 213.694944 
L 68.22724 213.511811 
L 69.04091 213.959724 
L 69.854581 219.910647 
L 70.668251 212.54521 
L 71.481922 213.25189 
L 72.295593 209.421741 
L 73.109263 215.128958 
L 73.922934 221.013474 
L 74.736604 224.983606 
L 75.550275 238.975859 
L 76.363945 236.924435 
L 77.177616 243.655982 
L 77.991286 260.060955 
L 78.804957 261.216 
L 79.618627 255.723566 
L 80.432298 249.219333 
L 81.245968 240.289192 
L 82.059639 228.855813 
L 82.87331 234.423677 
L 83.68698 230.821082 
L 84.500651 230.561037 
L 85.314321 217.862188 
L 86.127992 218.303134 
L 86.941662 229.982579 
L 87.755333 224.06168 
L 88.569003 218.729722 
L 89.382674 201.991037 
L 90.196344 195.220263 
L 91.010015 192.793995 
L 91.823685 186.793073 
L 92.637356 185.086817 
L 93.451027 181.09519 
L 94.264697 198.531546 
L 95.078368 198.731803 
L 95.892038 195.007863 
L 96.705709 178.84409 
L 97.519379 174.847264 
L 98.33305 170.284999 
L 99.14672 175.168939 
L 99.960391 176.611122 
L 100.774061 174.189895 
L 101.587732 164.488027 
L 102.401403 170.663455 
L 103.215073 176.93178 
L 104.028744 171.113491 
L 104.842414 170.130193 
L 105.656085 167.83992 
L 106.469755 185.075355 
L 107.283426 190.890958 
L 108.097096 194.808062 
L 108.910767 189.206956 
L 109.724437 180.206152 
L 110.538108 194.596807 
L 111.351778 204.640511 
L 112.165449 208.994512 
L 112.97912 210.040116 
L 113.79279 201.873874 
L 114.606461 201.19872 
L 115.420131 212.251443 
L 116.233802 227.723326 
L 117.047472 228.585852 
L 117.861143 224.944142 
L 118.674813 213.986865 
L 119.488484 199.13106 
L 120.302154 206.936321 
L 121.115825 212.855398 
L 121.929495 192.778367 
L 122.743166 171.514797 
L 123.556837 167.598497 
L 124.370507 179.220686 
L 125.184178 197.30223 
L 125.997848 200.318206 
L 126.811519 185.034937 
L 127.625189 185.797294 
L 128.43886 185.862917 
L 129.25253 174.874415 
L 130.066201 175.174684 
L 130.879871 171.565483 
L 131.693542 176.812495 
L 132.507212 176.089693 
L 133.320883 171.442855 
L 134.134554 172.101922 
L 134.948224 167.75722 
L 135.761895 182.707415 
L 136.575565 185.081562 
L 137.389236 181.022019 
L 138.202906 178.726729 
L 139.016577 178.117451 
L 139.830247 180.989544 
L 140.643918 177.083945 
L 141.457588 177.673575 
L 142.271259 176.45235 
L 143.08493 184.86568 
L 143.8986 196.401565 
L 144.712271 187.239755 
L 145.525941 176.644136 
L 146.339612 181.475793 
L 147.153282 191.645663 
L 147.966953 194.180121 
L 148.780623 187.470996 
L 149.594294 172.742977 
L 150.407964 163.617607 
L 151.221635 160.151979 
L 152.035305 174.400236 
L 152.848976 172.230037 
L 153.662647 163.489485 
L 154.476317 163.757987 
L 155.289988 169.161336 
L 156.103658 177.184912 
L 156.917329 174.326646 
L 157.730999 184.987458 
L 158.54467 183.245138 
L 159.35834 179.172242 
L 160.172011 188.901059 
L 160.985681 169.055529 
L 161.799352 152.003586 
L 162.613022 145.386357 
L 163.426693 150.651469 
L 164.240364 155.521171 
L 165.054034 154.655206 
L 165.867705 153.462153 
L 166.681375 157.940262 
L 167.495046 166.986954 
L 168.308716 167.435244 
L 169.122387 156.375366 
L 169.936057 160.138925 
L 170.749728 151.020293 
L 171.563398 142.620874 
L 172.377069 148.802457 
L 173.190739 161.843787 
L 174.00441 152.890586 
L 174.818081 147.71153 
L 175.631751 148.511548 
L 176.445422 147.967215 
L 177.259092 148.623631 
L 178.072763 152.506985 
L 178.886433 133.979439 
L 179.700104 109.88903 
L 180.513774 110.529586 
L 181.327445 108.246308 
L 182.141115 118.762555 
L 182.954786 123.793314 
L 183.768457 139.555064 
L 184.582127 125.690587 
L 185.395798 140.648874 
L 186.209468 135.047255 
L 187.023139 122.802879 
L 187.836809 126.190886 
L 188.65048 118.359056 
L 189.46415 119.316929 
L 190.277821 109.698269 
L 191.091491 114.28159 
L 191.905162 104.001549 
L 192.718832 127.932461 
L 193.532503 151.890536 
L 194.346174 151.179152 
L 195.159844 144.597855 
L 195.973515 139.484235 
L 196.787185 164.961481 
L 197.600856 165.192896 
L 198.414526 174.492497 
L 199.228197 158.693672 
L 200.041867 156.922395 
L 200.855538 152.850126 
L 201.669208 158.39959 
L 202.482879 165.519242 
L 203.296549 159.762035 
L 204.11022 156.01971 
L 204.923891 154.934888 
L 205.737561 147.183457 
L 206.551232 144.365259 
L 207.364902 137.966692 
L 208.178573 142.068127 
L 208.992243 141.238429 
L 209.805914 136.969092 
L 210.619584 150.220494 
L 211.433255 156.701787 
L 212.246925 173.171593 
L 213.060596 172.843286 
L 213.874266 177.222504 
L 214.687937 174.500427 
L 215.501608 188.508689 
L 216.315278 194.227647 
L 217.128949 199.796992 
L 217.942619 187.655058 
L 218.75629 174.469774 
L 219.56996 162.937364 
L 220.383631 165.726624 
L 221.197301 156.244713 
L 222.010972 155.336624 
L 222.824642 140.424185 
L 223.638313 122.833311 
L 224.451984 119.209835 
L 225.265654 123.631466 
L 226.079325 125.639328 
L 226.892995 133.715194 
L 227.706666 131.777827 
L 228.520336 125.851377 
L 229.334007 132.046394 
L 230.147677 146.797357 
L 230.961348 175.01202 
L 231.775018 172.796583 
L 232.588689 192.105002 
L 233.402359 178.779312 
L 234.21603 188.111445 
L 235.029701 186.716459 
L 235.843371 185.712687 
L 236.657042 190.070265 
L 237.470712 159.69267 
L 238.284383 170.344196 
L 239.098053 165.117742 
L 239.911724 151.522389 
L 240.725394 147.634205 
L 241.539065 155.191332 
L 242.352735 157.414619 
L 243.166406 144.892236 
L 243.980076 140.901067 
L 244.793747 126.634679 
L 245.607418 118.797191 
L 246.421088 137.617239 
L 247.234759 132.720095 
L 248.048429 126.923529 
L 248.8621 121.789267 
L 249.67577 127.859266 
L 250.489441 134.975792 
L 251.303111 132.16868 
L 252.116782 124.452715 
L 252.930452 113.40925 
L 253.744123 109.749675 
L 254.557793 108.755787 
L 255.371464 97.605078 
L 256.185135 98.699505 
L 256.998805 101.56585 
L 257.812476 111.424999 
L 258.626146 120.212369 
L 259.439817 127.610988 
L 260.253487 134.442009 
L 261.067158 132.222162 
L 261.880828 145.40674 
L 262.694499 150.176257 
L 263.508169 139.551839 
L 264.32184 130.89108 
L 265.135511 122.293038 
L 265.949181 124.784413 
L 266.762852 107.929401 
L 267.576522 103.588959 
L 268.390193 96.388101 
L 269.203863 86.989741 
L 270.017534 80.116403 
L 270.831204 91.102639 
L 271.644875 106.142577 
L 272.458545 113.153999 
L 273.272216 123.326556 
L 274.085886 127.581332 
L 274.899557 123.030412 
L 275.713228 132.48231 
L 276.526898 144.795422 
L 277.340569 128.941015 
L 278.154239 110.975383 
L 278.96791 102.759831 
L 279.78158 106.924838 
L 280.595251 119.736334 
L 281.408921 114.400818 
L 282.222592 112.687288 
L 283.036262 114.191813 
L 283.849933 112.645022 
L 284.663603 115.158079 
L 285.477274 122.682943 
L 286.290945 111.200409 
L 287.104615 116.993256 
L 287.918286 110.060874 
L 288.731956 90.704211 
L 289.545627 85.843225 
L 290.359297 80.423736 
L 291.172968 77.234893 
L 291.986638 71.492544 
L 292.800309 85.078137 
L 293.613979 98.424786 
L 294.42765 88.911914 
L 295.24132 98.078602 
L 296.054991 96.763953 
L 296.868662 100.368982 
L 297.682332 108.739323 
L 298.496003 100.399277 
L 299.309673 99.779052 
L 300.123344 93.679322 
L 300.937014 100.33265 
L 301.750685 101.350635 
L 302.564355 99.35943 
L 303.378026 101.838265 
L 304.191696 112.723784 
L 305.005367 122.660113 
L 305.819038 114.450718 
L 306.632708 128.583059 
L 307.446379 119.644184 
L 308.260049 121.753128 
L 309.07372 116.731403 
L 309.88739 114.096499 
L 310.701061 107.167426 
L 311.514731 105.386224 
L 312.328402 111.099684 
L 313.142072 90.940263 
L 313.955743 99.398214 
L 314.769413 89.748662 
L 315.583084 101.735038 
L 316.396755 91.430901 
L 317.210425 96.466023 
L 318.024096 92.657291 
L 318.837766 96.121458 
L 319.651437 98.264277 
L 320.465107 115.659541 
L 321.278778 128.097198 
L 322.092448 112.950682 
L 322.906119 122.716516 
L 323.719789 128.907185 
L 324.53346 134.89981 
L 325.34713 137.545331 
L 326.160801 133.724078 
L 326.974472 122.921948 
L 327.788142 123.46219 
L 328.601813 119.966992 
L 329.415483 115.071169 
L 330.229154 115.948524 
L 331.042824 111.708715 
L 331.856495 106.87758 
L 332.670165 100.32448 
L 333.483836 96.318675 
L 334.297506 90.495616 
L 335.111177 89.125434 
L 335.924847 84.427837 
L 336.738518 81.535073 
L 337.552189 97.50828 
L 338.365859 111.827386 
L 339.17953 124.47447 
L 339.9932 125.037998 
L 340.806871 134.186294 
L 341.620541 147.69746 
L 342.434212 143.516275 
L 343.247882 143.345774 
L 344.061553 139.372413 
L 344.875223 128.006247 
L 345.688894 133.24473 
L 346.502565 136.177412 
L 347.316235 126.123948 
L 348.129906 116.859938 
L 348.943576 130.089593 
L 349.757247 121.923227 
L 350.570917 123.151962 
L 351.384588 115.589669 
L 352.198258 116.758919 
L 353.011929 116.799345 
L 353.825599 113.479677 
L 354.63927 104.779131 
L 355.45294 107.156127 
L 356.266611 103.306517 
L 357.080282 90.092397 
L 357.893952 79.475974 
L 358.707623 75.534485 
L 359.521293 84.896559 
L 360.334964 82.974877 
L 361.148634 84.083632 
L 361.962305 81.832746 
L 362.775975 75.527644 
L 363.589646 70.916603 
L 364.403316 78.135243 
L 365.216987 80.20806 
L 366.030657 84.6431 
L 366.844328 85.454409 
L 367.657999 80.144495 
L 368.471669 84.366169 
L 369.28534 90.314752 
L 370.09901 99.076221 
L 370.912681 102.723075 
L 371.726351 109.190689 
L 372.540022 117.885402 
L 373.353692 107.497238 
L 374.167363 114.820228 
L 374.981033 130.319861 
L 375.794704 122.148413 
L 376.608374 122.845259 
L 377.422045 120.480948 
L 378.235716 118.450221 
L 379.049386 129.873574 
L 379.863057 138.975035 
L 380.676727 142.581406 
L 381.490398 130.263617 
L 381.490398 57.566459 
L 381.490398 57.566459 
L 380.676727 62.413087 
L 379.863057 64.86848 
L 379.049386 65.187471 
L 378.235716 56.545085 
L 377.422045 62.793212 
L 376.608374 53.424079 
L 375.794704 55.61238 
L 374.981033 57.514556 
L 374.167363 62.510708 
L 373.353692 56.556657 
L 372.540022 57.201881 
L 371.726351 60.738148 
L 370.912681 51.927928 
L 370.09901 52.508131 
L 369.28534 52.2792 
L 368.471669 40.727514 
L 367.657999 48.405733 
L 366.844328 53.48371 
L 366.030657 56.265382 
L 365.216987 56.070464 
L 364.403316 57.065616 
L 363.589646 42.534874 
L 362.775975 33.019245 
L 361.962305 44.147347 
L 361.148634 47.597431 
L 360.334964 47.664994 
L 359.521293 50.756106 
L 358.707623 49.12934 
L 357.893952 46.740855 
L 357.080282 49.437865 
L 356.266611 48.925603 
L 355.45294 40.677901 
L 354.63927 42.692186 
L 353.825599 54.092473 
L 353.011929 47.523338 
L 352.198258 55.974476 
L 351.384588 72.74455 
L 350.570917 67.195749 
L 349.757247 77.711138 
L 348.943576 55.8113 
L 348.129906 50.214032 
L 347.316235 59.205493 
L 346.502565 68.741658 
L 345.688894 76.240683 
L 344.875223 75.65932 
L 344.061553 84.696165 
L 343.247882 85.114283 
L 342.434212 96.387389 
L 341.620541 103.281258 
L 340.806871 86.837177 
L 339.9932 81.546175 
L 339.17953 79.864628 
L 338.365859 77.260412 
L 337.552189 69.939761 
L 336.738518 59.024047 
L 335.924847 57.91169 
L 335.111177 54.233619 
L 334.297506 52.844734 
L 333.483836 47.464717 
L 332.670165 39.688992 
L 331.856495 47.398378 
L 331.042824 49.336871 
L 330.229154 55.491527 
L 329.415483 55.072414 
L 328.601813 62.452526 
L 327.788142 66.078104 
L 326.974472 69.929766 
L 326.160801 79.836841 
L 325.34713 78.666014 
L 324.53346 81.703335 
L 323.719789 78.756437 
L 322.906119 84.711751 
L 322.092448 78.581235 
L 321.278778 71.141066 
L 320.465107 55.586982 
L 319.651437 55.058936 
L 318.837766 28.097905 
L 318.024096 25.339147 
L 317.210425 31.46366 
L 316.396755 19.56392 
L 315.583084 19.296 
L 314.769413 22.705319 
L 313.955743 38.427551 
L 313.142072 39.088072 
L 312.328402 52.177994 
L 311.514731 53.260805 
L 310.701061 58.990314 
L 309.88739 64.901609 
L 309.07372 64.64384 
L 308.260049 69.631271 
L 307.446379 63.846913 
L 306.632708 75.327642 
L 305.819038 67.821484 
L 305.005367 72.537861 
L 304.191696 63.012239 
L 303.378026 65.853936 
L 302.564355 70.297333 
L 301.750685 60.329411 
L 300.937014 59.114453 
L 300.123344 52.209294 
L 299.309673 62.558621 
L 298.496003 67.961626 
L 297.682332 68.97457 
L 296.868662 74.649369 
L 296.054991 53.220901 
L 295.24132 55.846371 
L 294.42765 54.926898 
L 293.613979 54.713583 
L 292.800309 56.375264 
L 291.986638 52.364635 
L 291.172968 56.89463 
L 290.359297 59.205562 
L 289.545627 58.364263 
L 288.731956 64.742727 
L 287.918286 74.9984 
L 287.104615 66.325777 
L 286.290945 71.870123 
L 285.477274 70.265251 
L 284.663603 62.491955 
L 283.849933 46.386424 
L 283.036262 49.339438 
L 282.222592 54.137085 
L 281.408921 52.798194 
L 280.595251 52.158038 
L 279.78158 62.07937 
L 278.96791 55.976821 
L 278.154239 55.465629 
L 277.340569 70.113947 
L 276.526898 63.758465 
L 275.713228 45.319542 
L 274.899557 27.907471 
L 274.085886 31.053931 
L 273.272216 25.619704 
L 272.458545 24.460713 
L 271.644875 22.050539 
L 270.831204 19.313021 
L 270.017534 23.2479 
L 269.203863 28.609763 
L 268.390193 50.67194 
L 267.576522 45.873047 
L 266.762852 51.81846 
L 265.949181 53.565644 
L 265.135511 61.700661 
L 264.32184 65.112526 
L 263.508169 63.74546 
L 262.694499 58.230558 
L 261.880828 53.603349 
L 261.067158 44.134973 
L 260.253487 37.74383 
L 259.439817 36.016662 
L 258.626146 45.062896 
L 257.812476 40.175339 
L 256.998805 33.835838 
L 256.185135 33.411131 
L 255.371464 31.523296 
L 254.557793 37.096841 
L 253.744123 48.114159 
L 252.930452 55.262433 
L 252.116782 67.933763 
L 251.303111 76.922011 
L 250.489441 75.627817 
L 249.67577 62.961714 
L 248.8621 64.56753 
L 248.048429 65.935609 
L 247.234759 74.907662 
L 246.421088 86.886389 
L 245.607418 84.627583 
L 244.793747 91.460328 
L 243.980076 95.011764 
L 243.166406 113.104125 
L 242.352735 118.2544 
L 241.539065 112.190313 
L 240.725394 106.048615 
L 239.911724 102.739389 
L 239.098053 112.621609 
L 238.284383 104.513431 
L 237.470712 96.92892 
L 236.657042 98.242188 
L 235.843371 108.672494 
L 235.029701 106.265794 
L 234.21603 110.04674 
L 233.402359 94.702569 
L 232.588689 79.187023 
L 231.775018 77.218963 
L 230.961348 86.303388 
L 230.147677 75.346257 
L 229.334007 64.896446 
L 228.520336 64.73096 
L 227.706666 63.589088 
L 226.892995 70.127226 
L 226.079325 70.597241 
L 225.265654 72.936533 
L 224.451984 69.251455 
L 223.638313 84.179015 
L 222.824642 94.965555 
L 222.010972 101.512411 
L 221.197301 101.312703 
L 220.383631 89.28638 
L 219.56996 80.079811 
L 218.75629 98.008851 
L 217.942619 99.403689 
L 217.128949 93.244049 
L 216.315278 100.932372 
L 215.501608 99.503939 
L 214.687937 97.609726 
L 213.874266 99.545115 
L 213.060596 101.691958 
L 212.246925 79.467237 
L 211.433255 69.648258 
L 210.619584 66.990131 
L 209.805914 58.210503 
L 208.992243 56.225554 
L 208.178573 60.451494 
L 207.364902 57.627099 
L 206.551232 59.365507 
L 205.737561 67.20265 
L 204.923891 70.570009 
L 204.11022 67.977015 
L 203.296549 63.106514 
L 202.482879 61.141137 
L 201.669208 80.902842 
L 200.855538 84.58467 
L 200.041867 85.041702 
L 199.228197 90.794321 
L 198.414526 102.454408 
L 197.600856 99.207583 
L 196.787185 109.478175 
L 195.973515 111.338363 
L 195.159844 97.89842 
L 194.346174 101.408517 
L 193.532503 99.442049 
L 192.718832 83.563279 
L 191.905162 71.813265 
L 191.091491 78.622299 
L 190.277821 73.134391 
L 189.46415 79.01326 
L 188.65048 88.714168 
L 187.836809 89.277957 
L 187.023139 86.233648 
L 186.209468 101.489893 
L 185.395798 104.684295 
L 184.582127 92.157257 
L 183.768457 89.802722 
L 182.954786 87.656661 
L 182.141115 84.762594 
L 181.327445 80.480199 
L 180.513774 80.128011 
L 179.700104 74.492088 
L 178.886433 87.024679 
L 178.072763 95.266692 
L 177.259092 82.799132 
L 176.445422 86.664362 
L 175.631751 86.120151 
L 174.818081 88.451262 
L 174.00441 82.935259 
L 173.190739 88.725442 
L 172.377069 76.825655 
L 171.563398 73.14122 
L 170.749728 74.840742 
L 169.936057 86.354229 
L 169.122387 86.231345 
L 168.308716 79.561729 
L 167.495046 76.140779 
L 166.681375 64.253377 
L 165.867705 65.610875 
L 165.054034 77.999719 
L 164.240364 86.552185 
L 163.426693 86.504559 
L 162.613022 88.296492 
L 161.799352 92.229603 
L 160.985681 88.943429 
L 160.172011 85.81558 
L 159.35834 79.099073 
L 158.54467 75.211144 
L 157.730999 83.93944 
L 156.917329 81.596543 
L 156.103658 88.730959 
L 155.289988 83.358579 
L 154.476317 86.724905 
L 153.662647 82.831321 
L 152.848976 97.641776 
L 152.035305 98.493437 
L 151.221635 83.558525 
L 150.407964 82.321581 
L 149.594294 87.510346 
L 148.780623 94.88878 
L 147.966953 94.633879 
L 147.153282 110.792387 
L 146.339612 107.606182 
L 145.525941 108.004289 
L 144.712271 112.424045 
L 143.8986 122.009962 
L 143.08493 115.996973 
L 142.271259 116.148813 
L 141.457588 108.256346 
L 140.643918 98.149659 
L 139.830247 99.218107 
L 139.016577 102.756468 
L 138.202906 105.308252 
L 137.389236 112.566131 
L 136.575565 111.301085 
L 135.761895 120.047542 
L 134.948224 121.004685 
L 134.134554 133.657692 
L 133.320883 130.716387 
L 132.507212 114.059521 
L 131.693542 114.126771 
L 130.879871 119.803964 
L 130.066201 128.032606 
L 129.25253 116.635086 
L 128.43886 115.701464 
L 127.625189 102.969724 
L 126.811519 112.377216 
L 125.997848 106.509741 
L 125.184178 106.861497 
L 124.370507 103.238328 
L 123.556837 107.632227 
L 122.743166 115.695242 
L 121.929495 107.172681 
L 121.115825 113.907119 
L 120.302154 134.938011 
L 119.488484 144.804557 
L 118.674813 147.554629 
L 117.861143 141.447006 
L 117.047472 144.079017 
L 116.233802 152.328469 
L 115.420131 156.43659 
L 114.606461 141.847605 
L 113.79279 141.531511 
L 112.97912 158.300421 
L 112.165449 153.384949 
L 111.351778 152.769528 
L 110.538108 151.983758 
L 109.724437 138.396102 
L 108.910767 146.913135 
L 108.097096 147.982175 
L 107.283426 131.049858 
L 106.469755 123.065167 
L 105.656085 124.504302 
L 104.842414 122.728194 
L 104.028744 128.265415 
L 103.215073 133.594844 
L 102.401403 123.872612 
L 101.587732 130.756097 
L 100.774061 131.711679 
L 99.960391 127.082866 
L 99.14672 130.824651 
L 98.33305 132.917787 
L 97.519379 136.003163 
L 96.705709 137.187218 
L 95.892038 142.465009 
L 95.078368 134.361438 
L 94.264697 143.279413 
L 93.451027 141.259092 
L 92.637356 141.941972 
L 91.823685 145.50119 
L 91.010015 144.364488 
L 90.196344 153.746363 
L 89.382674 144.759158 
L 88.569003 136.751012 
L 87.755333 134.505057 
L 86.941662 150.694385 
L 86.127992 162.95514 
L 85.314321 184.053522 
L 84.500651 172.446092 
L 83.68698 165.279125 
L 82.87331 169.451848 
L 82.059639 170.377703 
L 81.245968 187.815132 
L 80.432298 187.360374 
L 79.618627 194.860957 
L 78.804957 189.222059 
L 77.991286 192.310954 
L 77.177616 195.669698 
L 76.363945 179.214692 
L 75.550275 184.63292 
L 74.736604 162.94583 
L 73.922934 155.002412 
L 73.109263 154.670495 
L 72.295593 139.029746 
L 71.481922 131.904853 
L 70.668251 151.333334 
L 69.854581 156.513675 
L 69.04091 147.035188 
L 68.22724 129.367319 
L 67.413569 145.259537 
L 66.599899 134.924911 
L 65.786228 140.78544 
L 64.972558 155.555783 
L 64.158887 155.638938 
L 63.345217 148.472175 
L 62.531546 147.950786 
L 61.717876 147.950786 
L 60.904205 147.950786 
L 60.090534 147.950786 
L 59.276864 147.950786 
L 58.463193 147.950786 
L 57.649523 147.950786 
L 56.835852 147.950786 
z
" clip-path="url(#p5dbd05a473)" style="fill: #1f77b4; fill-opacity: 0.2"/>
   </g>
   <g id="matplotlib.axis_1">
    <g id="xtick_1">
     <g id="line2d_1">
      <defs>
       <path id="ma148ce90fa" d="M 0 0 
L 0 3.5 
" style="stroke: #000000; stroke-width: 0.8"/>
      </defs>
      <g>
       <use xlink:href="#ma148ce90fa" x="56.835852" y="273.312" style="stroke: #000000; stroke-width: 0.8"/>
      </g>
     </g>
     <g id="text_1">
      <!-- 0 -->
      <g transform="translate(53.654602 287.910437) scale(0.1 -0.1)">
       <defs>
        <path id="DejaVuSans-30" d="M 2034 4250 
Q 1547 4250 1301 3770 
Q 1056 3291 1056 2328 
Q 1056 1369 1301 889 
Q 1547 409 2034 409 
Q 2525 409 2770 889 
Q 3016 1369 3016 2328 
Q 3016 3291 2770 3770 
Q 2525 4250 2034 4250 
z
M 2034 4750 
Q 2819 4750 3233 4129 
Q 3647 3509 3647 2328 
Q 3647 1150 3233 529 
Q 2819 -91 2034 -91 
Q 1250 -91 836 529 
Q 422 1150 422 2328 
Q 422 3509 836 4129 
Q 1250 4750 2034 4750 
z
" transform="scale(0.015625)"/>
       </defs>
       <use xlink:href="#DejaVuSans-30"/>
      </g>
     </g>
    </g>
    <g id="xtick_2">
     <g id="line2d_2">
      <g>
       <use xlink:href="#ma148ce90fa" x="97.41767" y="273.312" style="stroke: #000000; stroke-width: 0.8"/>
      </g>
     </g>
     <g id="text_2">
      <!-- 25000 -->
      <g transform="translate(81.51142 287.910437) scale(0.1 -0.1)">
       <defs>
        <path id="DejaVuSans-32" d="M 1228 531 
L 3431 531 
L 3431 0 
L 469 0 
L 469 531 
Q 828 903 1448 1529 
Q 2069 2156 2228 2338 
Q 2531 2678 2651 2914 
Q 2772 3150 2772 3378 
Q 2772 3750 2511 3984 
Q 2250 4219 1831 4219 
Q 1534 4219 1204 4116 
Q 875 4013 500 3803 
L 500 4441 
Q 881 4594 1212 4672 
Q 1544 4750 1819 4750 
Q 2544 4750 2975 4387 
Q 3406 4025 3406 3419 
Q 3406 3131 3298 2873 
Q 3191 2616 2906 2266 
Q 2828 2175 2409 1742 
Q 1991 1309 1228 531 
z
" transform="scale(0.015625)"/>
        <path id="DejaVuSans-35" d="M 691 4666 
L 3169 4666 
L 3169 4134 
L 1269 4134 
L 1269 2991 
Q 1406 3038 1543 3061 
Q 1681 3084 1819 3084 
Q 2600 3084 3056 2656 
Q 3513 2228 3513 1497 
Q 3513 744 3044 326 
Q 2575 -91 1722 -91 
Q 1428 -91 1123 -41 
Q 819 9 494 109 
L 494 744 
Q 775 591 1075 516 
Q 1375 441 1709 441 
Q 2250 441 2565 725 
Q 2881 1009 2881 1497 
Q 2881 1984 2565 2268 
Q 2250 2553 1709 2553 
Q 1456 2553 1204 2497 
Q 953 2441 691 2322 
L 691 4666 
z
" transform="scale(0.015625)"/>
       </defs>
       <use xlink:href="#DejaVuSans-32"/>
       <use xlink:href="#DejaVuSans-35" x="63.623047"/>
       <use xlink:href="#DejaVuSans-30" x="127.246094"/>
       <use xlink:href="#DejaVuSans-30" x="190.869141"/>
       <use xlink:href="#DejaVuSans-30" x="254.492188"/>
      </g>
     </g>
    </g>
    <g id="xtick_3">
     <g id="line2d_3">
      <g>
       <use xlink:href="#ma148ce90fa" x="137.999489" y="273.312" style="stroke: #000000; stroke-width: 0.8"/>
      </g>
     </g>
     <g id="text_3">
      <!-- 50000 -->
      <g transform="translate(122.093239 287.910437) scale(0.1 -0.1)">
       <use xlink:href="#DejaVuSans-35"/>
       <use xlink:href="#DejaVuSans-30" x="63.623047"/>
       <use xlink:href="#DejaVuSans-30" x="127.246094"/>
       <use xlink:href="#DejaVuSans-30" x="190.869141"/>
       <use xlink:href="#DejaVuSans-30" x="254.492188"/>
      </g>
     </g>
    </g>
    <g id="xtick_4">
     <g id="line2d_4">
      <g>
       <use xlink:href="#ma148ce90fa" x="178.581307" y="273.312" style="stroke: #000000; stroke-width: 0.8"/>
      </g>
     </g>
     <g id="text_4">
      <!-- 75000 -->
      <g transform="translate(162.675057 287.910437) scale(0.1 -0.1)">
       <defs>
        <path id="DejaVuSans-37" d="M 525 4666 
L 3525 4666 
L 3525 4397 
L 1831 0 
L 1172 0 
L 2766 4134 
L 525 4134 
L 525 4666 
z
" transform="scale(0.015625)"/>
       </defs>
       <use xlink:href="#DejaVuSans-37"/>
       <use xlink:href="#DejaVuSans-35" x="63.623047"/>
       <use xlink:href="#DejaVuSans-30" x="127.246094"/>
       <use xlink:href="#DejaVuSans-30" x="190.869141"/>
       <use xlink:href="#DejaVuSans-30" x="254.492188"/>
      </g>
     </g>
    </g>
    <g id="xtick_5">
     <g id="line2d_5">
      <g>
       <use xlink:href="#ma148ce90fa" x="219.163125" y="273.312" style="stroke: #000000; stroke-width: 0.8"/>
      </g>
     </g>
     <g id="text_5">
      <!-- 100000 -->
      <g transform="translate(200.075625 287.910437) scale(0.1 -0.1)">
       <defs>
        <path id="DejaVuSans-31" d="M 794 531 
L 1825 531 
L 1825 4091 
L 703 3866 
L 703 4441 
L 1819 4666 
L 2450 4666 
L 2450 531 
L 3481 531 
L 3481 0 
L 794 0 
L 794 531 
z
" transform="scale(0.015625)"/>
       </defs>
       <use xlink:href="#DejaVuSans-31"/>
       <use xlink:href="#DejaVuSans-30" x="63.623047"/>
       <use xlink:href="#DejaVuSans-30" x="127.246094"/>
       <use xlink:href="#DejaVuSans-30" x="190.869141"/>
       <use xlink:href="#DejaVuSans-30" x="254.492188"/>
       <use xlink:href="#DejaVuSans-30" x="318.115234"/>
      </g>
     </g>
    </g>
    <g id="xtick_6">
     <g id="line2d_6">
      <g>
       <use xlink:href="#ma148ce90fa" x="259.744943" y="273.312" style="stroke: #000000; stroke-width: 0.8"/>
      </g>
     </g>
     <g id="text_6">
      <!-- 125000 -->
      <g transform="translate(240.657443 287.910437) scale(0.1 -0.1)">
       <use xlink:href="#DejaVuSans-31"/>
       <use xlink:href="#DejaVuSans-32" x="63.623047"/>
       <use xlink:href="#DejaVuSans-35" x="127.246094"/>
       <use xlink:href="#DejaVuSans-30" x="190.869141"/>
       <use xlink:href="#DejaVuSans-30" x="254.492188"/>
       <use xlink:href="#DejaVuSans-30" x="318.115234"/>
      </g>
     </g>
    </g>
    <g id="xtick_7">
     <g id="line2d_7">
      <g>
       <use xlink:href="#ma148ce90fa" x="300.326761" y="273.312" style="stroke: #000000; stroke-width: 0.8"/>
      </g>
     </g>
     <g id="text_7">
      <!-- 150000 -->
      <g transform="translate(281.239261 287.910437) scale(0.1 -0.1)">
       <use xlink:href="#DejaVuSans-31"/>
       <use xlink:href="#DejaVuSans-35" x="63.623047"/>
       <use xlink:href="#DejaVuSans-30" x="127.246094"/>
       <use xlink:href="#DejaVuSans-30" x="190.869141"/>
       <use xlink:href="#DejaVuSans-30" x="254.492188"/>
       <use xlink:href="#DejaVuSans-30" x="318.115234"/>
      </g>
     </g>
    </g>
    <g id="xtick_8">
     <g id="line2d_8">
      <g>
       <use xlink:href="#ma148ce90fa" x="340.90858" y="273.312" style="stroke: #000000; stroke-width: 0.8"/>
      </g>
     </g>
     <g id="text_8">
      <!-- 175000 -->
      <g transform="translate(321.82108 287.910437) scale(0.1 -0.1)">
       <use xlink:href="#DejaVuSans-31"/>
       <use xlink:href="#DejaVuSans-37" x="63.623047"/>
       <use xlink:href="#DejaVuSans-35" x="127.246094"/>
       <use xlink:href="#DejaVuSans-30" x="190.869141"/>
       <use xlink:href="#DejaVuSans-30" x="254.492188"/>
       <use xlink:href="#DejaVuSans-30" x="318.115234"/>
      </g>
     </g>
    </g>
    <g id="xtick_9">
     <g id="line2d_9">
      <g>
       <use xlink:href="#ma148ce90fa" x="381.490398" y="273.312" style="stroke: #000000; stroke-width: 0.8"/>
      </g>
     </g>
     <g id="text_9">
      <!-- 200000 -->
      <g transform="translate(362.402898 287.910437) scale(0.1 -0.1)">
       <use xlink:href="#DejaVuSans-32"/>
       <use xlink:href="#DejaVuSans-30" x="63.623047"/>
       <use xlink:href="#DejaVuSans-30" x="127.246094"/>
       <use xlink:href="#DejaVuSans-30" x="190.869141"/>
       <use xlink:href="#DejaVuSans-30" x="254.492188"/>
       <use xlink:href="#DejaVuSans-30" x="318.115234"/>
      </g>
     </g>
    </g>
    <g id="text_10">
     <!-- Env steps -->
     <g transform="translate(194.86625 301.588562) scale(0.1 -0.1)">
      <defs>
       <path id="DejaVuSans-45" d="M 628 4666 
L 3578 4666 
L 3578 4134 
L 1259 4134 
L 1259 2753 
L 3481 2753 
L 3481 2222 
L 1259 2222 
L 1259 531 
L 3634 531 
L 3634 0 
L 628 0 
L 628 4666 
z
" transform="scale(0.015625)"/>
       <path id="DejaVuSans-6e" d="M 3513 2113 
L 3513 0 
L 2938 0 
L 2938 2094 
Q 2938 2591 2744 2837 
Q 2550 3084 2163 3084 
Q 1697 3084 1428 2787 
Q 1159 2491 1159 1978 
L 1159 0 
L 581 0 
L 581 3500 
L 1159 3500 
L 1159 2956 
Q 1366 3272 1645 3428 
Q 1925 3584 2291 3584 
Q 2894 3584 3203 3211 
Q 3513 2838 3513 2113 
z
" transform="scale(0.015625)"/>
       <path id="DejaVuSans-76" d="M 191 3500 
L 800 3500 
L 1894 563 
L 2988 3500 
L 3597 3500 
L 2284 0 
L 1503 0 
L 191 3500 
z
" transform="scale(0.015625)"/>
       <path id="DejaVuSans-20" transform="scale(0.015625)"/>
       <path id="DejaVuSans-73" d="M 2834 3397 
L 2834 2853 
Q 2591 2978 2328 3040 
Q 2066 3103 1784 3103 
Q 1356 3103 1142 2972 
Q 928 2841 928 2578 
Q 928 2378 1081 2264 
Q 1234 2150 1697 2047 
L 1894 2003 
Q 2506 1872 2764 1633 
Q 3022 1394 3022 966 
Q 3022 478 2636 193 
Q 2250 -91 1575 -91 
Q 1294 -91 989 -36 
Q 684 19 347 128 
L 347 722 
Q 666 556 975 473 
Q 1284 391 1588 391 
Q 1994 391 2212 530 
Q 2431 669 2431 922 
Q 2431 1156 2273 1281 
Q 2116 1406 1581 1522 
L 1381 1569 
Q 847 1681 609 1914 
Q 372 2147 372 2553 
Q 372 3047 722 3315 
Q 1072 3584 1716 3584 
Q 2034 3584 2315 3537 
Q 2597 3491 2834 3397 
z
" transform="scale(0.015625)"/>
       <path id="DejaVuSans-74" d="M 1172 4494 
L 1172 3500 
L 2356 3500 
L 2356 3053 
L 1172 3053 
L 1172 1153 
Q 1172 725 1289 603 
Q 1406 481 1766 481 
L 2356 481 
L 2356 0 
L 1766 0 
Q 1100 0 847 248 
Q 594 497 594 1153 
L 594 3053 
L 172 3053 
L 172 3500 
L 594 3500 
L 594 4494 
L 1172 4494 
z
" transform="scale(0.015625)"/>
       <path id="DejaVuSans-65" d="M 3597 1894 
L 3597 1613 
L 953 1613 
Q 991 1019 1311 708 
Q 1631 397 2203 397 
Q 2534 397 2845 478 
Q 3156 559 3463 722 
L 3463 178 
Q 3153 47 2828 -22 
Q 2503 -91 2169 -91 
Q 1331 -91 842 396 
Q 353 884 353 1716 
Q 353 2575 817 3079 
Q 1281 3584 2069 3584 
Q 2775 3584 3186 3129 
Q 3597 2675 3597 1894 
z
M 3022 2063 
Q 3016 2534 2758 2815 
Q 2500 3097 2075 3097 
Q 1594 3097 1305 2825 
Q 1016 2553 972 2059 
L 3022 2063 
z
" transform="scale(0.015625)"/>
       <path id="DejaVuSans-70" d="M 1159 525 
L 1159 -1331 
L 581 -1331 
L 581 3500 
L 1159 3500 
L 1159 2969 
Q 1341 3281 1617 3432 
Q 1894 3584 2278 3584 
Q 2916 3584 3314 3078 
Q 3713 2572 3713 1747 
Q 3713 922 3314 415 
Q 2916 -91 2278 -91 
Q 1894 -91 1617 61 
Q 1341 213 1159 525 
z
M 3116 1747 
Q 3116 2381 2855 2742 
Q 2594 3103 2138 3103 
Q 1681 3103 1420 2742 
Q 1159 2381 1159 1747 
Q 1159 1113 1420 752 
Q 1681 391 2138 391 
Q 2594 391 2855 752 
Q 3116 1113 3116 1747 
z
" transform="scale(0.015625)"/>
      </defs>
      <use xlink:href="#DejaVuSans-45"/>
      <use xlink:href="#DejaVuSans-6e" x="63.183594"/>
      <use xlink:href="#DejaVuSans-76" x="126.5625"/>
      <use xlink:href="#DejaVuSans-20" x="185.742188"/>
      <use xlink:href="#DejaVuSans-73" x="217.529297"/>
      <use xlink:href="#DejaVuSans-74" x="269.628906"/>
      <use xlink:href="#DejaVuSans-65" x="308.837891"/>
      <use xlink:href="#DejaVuSans-70" x="370.361328"/>
      <use xlink:href="#DejaVuSans-73" x="433.837891"/>
     </g>
    </g>
   </g>
   <g id="matplotlib.axis_2">
    <g id="ytick_1">
     <g id="line2d_10">
      <defs>
       <path id="m29bcd35883" d="M 0 0 
L -3.5 0 
" style="stroke: #000000; stroke-width: 0.8"/>
      </defs>
      <g>
       <use xlink:href="#m29bcd35883" x="40.603125" y="261.097641" style="stroke: #000000; stroke-width: 0.8"/>
      </g>
     </g>
     <g id="text_11">
      <!-- 25 -->
      <g transform="translate(20.878125 264.89686) scale(0.1 -0.1)">
       <use xlink:href="#DejaVuSans-32"/>
       <use xlink:href="#DejaVuSans-35" x="63.623047"/>
      </g>
     </g>
    </g>
    <g id="ytick_2">
     <g id="line2d_11">
      <g>
       <use xlink:href="#m29bcd35883" x="40.603125" y="204.439291" style="stroke: #000000; stroke-width: 0.8"/>
      </g>
     </g>
     <g id="text_12">
      <!-- 30 -->
      <g transform="translate(20.878125 208.23851) scale(0.1 -0.1)">
       <defs>
        <path id="DejaVuSans-33" d="M 2597 2516 
Q 3050 2419 3304 2112 
Q 3559 1806 3559 1356 
Q 3559 666 3084 287 
Q 2609 -91 1734 -91 
Q 1441 -91 1130 -33 
Q 819 25 488 141 
L 488 750 
Q 750 597 1062 519 
Q 1375 441 1716 441 
Q 2309 441 2620 675 
Q 2931 909 2931 1356 
Q 2931 1769 2642 2001 
Q 2353 2234 1838 2234 
L 1294 2234 
L 1294 2753 
L 1863 2753 
Q 2328 2753 2575 2939 
Q 2822 3125 2822 3475 
Q 2822 3834 2567 4026 
Q 2313 4219 1838 4219 
Q 1578 4219 1281 4162 
Q 984 4106 628 3988 
L 628 4550 
Q 988 4650 1302 4700 
Q 1616 4750 1894 4750 
Q 2613 4750 3031 4423 
Q 3450 4097 3450 3541 
Q 3450 3153 3228 2886 
Q 3006 2619 2597 2516 
z
" transform="scale(0.015625)"/>
       </defs>
       <use xlink:href="#DejaVuSans-33"/>
       <use xlink:href="#DejaVuSans-30" x="63.623047"/>
      </g>
     </g>
    </g>
    <g id="ytick_3">
     <g id="line2d_12">
      <g>
       <use xlink:href="#m29bcd35883" x="40.603125" y="147.780941" style="stroke: #000000; stroke-width: 0.8"/>
      </g>
     </g>
     <g id="text_13">
      <!-- 35 -->
      <g transform="translate(20.878125 151.580159) scale(0.1 -0.1)">
       <use xlink:href="#DejaVuSans-33"/>
       <use xlink:href="#DejaVuSans-35" x="63.623047"/>
      </g>
     </g>
    </g>
    <g id="ytick_4">
     <g id="line2d_13">
      <g>
       <use xlink:href="#m29bcd35883" x="40.603125" y="91.122591" style="stroke: #000000; stroke-width: 0.8"/>
      </g>
     </g>
     <g id="text_14">
      <!-- 40 -->
      <g transform="translate(20.878125 94.921809) scale(0.1 -0.1)">
       <defs>
        <path id="DejaVuSans-34" d="M 2419 4116 
L 825 1625 
L 2419 1625 
L 2419 4116 
z
M 2253 4666 
L 3047 4666 
L 3047 1625 
L 3713 1625 
L 3713 1100 
L 3047 1100 
L 3047 0 
L 2419 0 
L 2419 1100 
L 313 1100 
L 313 1709 
L 2253 4666 
z
" transform="scale(0.015625)"/>
       </defs>
       <use xlink:href="#DejaVuSans-34"/>
       <use xlink:href="#DejaVuSans-30" x="63.623047"/>
      </g>
     </g>
    </g>
    <g id="ytick_5">
     <g id="line2d_14">
      <g>
       <use xlink:href="#m29bcd35883" x="40.603125" y="34.464241" style="stroke: #000000; stroke-width: 0.8"/>
      </g>
     </g>
     <g id="text_15">
      <!-- 45 -->
      <g transform="translate(20.878125 38.263459) scale(0.1 -0.1)">
       <use xlink:href="#DejaVuSans-34"/>
       <use xlink:href="#DejaVuSans-35" x="63.623047"/>
      </g>
     </g>
    </g>
    <g id="text_16">
     <!-- Episode return (smoothed) -->
     <g transform="translate(14.798438 207.231781) rotate(-90) scale(0.1 -0.1)">
      <defs>
       <path id="DejaVuSans-69" d="M 603 3500 
L 1178 3500 
L 1178 0 
L 603 0 
L 603 3500 
z
M 603 4863 
L 1178 4863 
L 1178 4134 
L 603 4134 
L 603 4863 
z
" transform="scale(0.015625)"/>
       <path id="DejaVuSans-6f" d="M 1959 3097 
Q 1497 3097 1228 2736 
Q 959 2375 959 1747 
Q 959 1119 1226 758 
Q 1494 397 1959 397 
Q 2419 397 2687 759 
Q 2956 1122 2956 1747 
Q 2956 2369 2687 2733 
Q 2419 3097 1959 3097 
z
M 1959 3584 
Q 2709 3584 3137 3096 
Q 3566 2609 3566 1747 
Q 3566 888 3137 398 
Q 2709 -91 1959 -91 
Q 1206 -91 779 398 
Q 353 888 353 1747 
Q 353 2609 779 3096 
Q 1206 3584 1959 3584 
z
" transform="scale(0.015625)"/>
       <path id="DejaVuSans-64" d="M 2906 2969 
L 2906 4863 
L 3481 4863 
L 3481 0 
L 2906 0 
L 2906 525 
Q 2725 213 2448 61 
Q 2172 -91 1784 -91 
Q 1150 -91 751 415 
Q 353 922 353 1747 
Q 353 2572 751 3078 
Q 1150 3584 1784 3584 
Q 2172 3584 2448 3432 
Q 2725 3281 2906 2969 
z
M 947 1747 
Q 947 1113 1208 752 
Q 1469 391 1925 391 
Q 2381 391 2643 752 
Q 2906 1113 2906 1747 
Q 2906 2381 2643 2742 
Q 2381 3103 1925 3103 
Q 1469 3103 1208 2742 
Q 947 2381 947 1747 
z
" transform="scale(0.015625)"/>
       <path id="DejaVuSans-72" d="M 2631 2963 
Q 2534 3019 2420 3045 
Q 2306 3072 2169 3072 
Q 1681 3072 1420 2755 
Q 1159 2438 1159 1844 
L 1159 0 
L 581 0 
L 581 3500 
L 1159 3500 
L 1159 2956 
Q 1341 3275 1631 3429 
Q 1922 3584 2338 3584 
Q 2397 3584 2469 3576 
Q 2541 3569 2628 3553 
L 2631 2963 
z
" transform="scale(0.015625)"/>
       <path id="DejaVuSans-75" d="M 544 1381 
L 544 3500 
L 1119 3500 
L 1119 1403 
Q 1119 906 1312 657 
Q 1506 409 1894 409 
Q 2359 409 2629 706 
Q 2900 1003 2900 1516 
L 2900 3500 
L 3475 3500 
L 3475 0 
L 2900 0 
L 2900 538 
Q 2691 219 2414 64 
Q 2138 -91 1772 -91 
Q 1169 -91 856 284 
Q 544 659 544 1381 
z
M 1991 3584 
L 1991 3584 
z
" transform="scale(0.015625)"/>
       <path id="DejaVuSans-28" d="M 1984 4856 
Q 1566 4138 1362 3434 
Q 1159 2731 1159 2009 
Q 1159 1288 1364 580 
Q 1569 -128 1984 -844 
L 1484 -844 
Q 1016 -109 783 600 
Q 550 1309 550 2009 
Q 550 2706 781 3412 
Q 1013 4119 1484 4856 
L 1984 4856 
z
" transform="scale(0.015625)"/>
       <path id="DejaVuSans-6d" d="M 3328 2828 
Q 3544 3216 3844 3400 
Q 4144 3584 4550 3584 
Q 5097 3584 5394 3201 
Q 5691 2819 5691 2113 
L 5691 0 
L 5113 0 
L 5113 2094 
Q 5113 2597 4934 2840 
Q 4756 3084 4391 3084 
Q 3944 3084 3684 2787 
Q 3425 2491 3425 1978 
L 3425 0 
L 2847 0 
L 2847 2094 
Q 2847 2600 2669 2842 
Q 2491 3084 2119 3084 
Q 1678 3084 1418 2786 
Q 1159 2488 1159 1978 
L 1159 0 
L 581 0 
L 581 3500 
L 1159 3500 
L 1159 2956 
Q 1356 3278 1631 3431 
Q 1906 3584 2284 3584 
Q 2666 3584 2933 3390 
Q 3200 3197 3328 2828 
z
" transform="scale(0.015625)"/>
       <path id="DejaVuSans-68" d="M 3513 2113 
L 3513 0 
L 2938 0 
L 2938 2094 
Q 2938 2591 2744 2837 
Q 2550 3084 2163 3084 
Q 1697 3084 1428 2787 
Q 1159 2491 1159 1978 
L 1159 0 
L 581 0 
L 581 4863 
L 1159 4863 
L 1159 2956 
Q 1366 3272 1645 3428 
Q 1925 3584 2291 3584 
Q 2894 3584 3203 3211 
Q 3513 2838 3513 2113 
z
" transform="scale(0.015625)"/>
       <path id="DejaVuSans-29" d="M 513 4856 
L 1013 4856 
Q 1481 4119 1714 3412 
Q 1947 2706 1947 2009 
Q 1947 1309 1714 600 
Q 1481 -109 1013 -844 
L 513 -844 
Q 928 -128 1133 580 
Q 1338 1288 1338 2009 
Q 1338 2731 1133 3434 
Q 928 4138 513 4856 
z
" transform="scale(0.015625)"/>
      </defs>
      <use xlink:href="#DejaVuSans-45"/>
      <use xlink:href="#DejaVuSans-70" x="63.183594"/>
      <use xlink:href="#DejaVuSans-69" x="126.660156"/>
      <use xlink:href="#DejaVuSans-73" x="154.443359"/>
      <use xlink:href="#DejaVuSans-6f" x="206.542969"/>
      <use xlink:href="#DejaVuSans-64" x="267.724609"/>
      <use xlink:href="#DejaVuSans-65" x="331.201172"/>
      <use xlink:href="#DejaVuSans-20" x="392.724609"/>
      <use xlink:href="#DejaVuSans-72" x="424.511719"/>
      <use xlink:href="#DejaVuSans-65" x="463.375"/>
      <use xlink:href="#DejaVuSans-74" x="524.898438"/>
      <use xlink:href="#DejaVuSans-75" x="564.107422"/>
      <use xlink:href="#DejaVuSans-72" x="627.486328"/>
      <use xlink:href="#DejaVuSans-6e" x="666.849609"/>
      <use xlink:href="#DejaVuSans-20" x="730.228516"/>
      <use xlink:href="#DejaVuSans-28" x="762.015625"/>
      <use xlink:href="#DejaVuSans-73" x="801.029297"/>
      <use xlink:href="#DejaVuSans-6d" x="853.128906"/>
      <use xlink:href="#DejaVuSans-6f" x="950.541016"/>
      <use xlink:href="#DejaVuSans-6f" x="1011.722656"/>
      <use xlink:href="#DejaVuSans-74" x="1072.904297"/>
      <use xlink:href="#DejaVuSans-68" x="1112.113281"/>
      <use xlink:href="#DejaVuSans-65" x="1175.492188"/>
      <use xlink:href="#DejaVuSans-64" x="1237.015625"/>
      <use xlink:href="#DejaVuSans-29" x="1300.492188"/>
     </g>
    </g>
   </g>
   <g id="line2d_15">
    <path d="M 56.835852 174.855538 
L 62.531546 174.855538 
L 63.345217 175.190254 
L 64.972558 188.481841 
L 65.786228 180.631302 
L 66.599899 178.300865 
L 67.413569 179.477241 
L 68.22724 171.439565 
L 69.04091 180.497456 
L 69.854581 188.212161 
L 70.668251 181.939272 
L 71.481922 172.578371 
L 72.295593 174.225744 
L 73.109263 184.899727 
L 73.922934 188.007943 
L 74.736604 193.964718 
L 75.550275 211.804389 
L 76.363945 208.069563 
L 77.177616 219.66284 
L 77.991286 226.185954 
L 78.804957 225.21903 
L 79.618627 225.292262 
L 80.432298 218.289853 
L 81.245968 214.052162 
L 82.059639 199.616758 
L 82.87331 201.937763 
L 83.68698 198.050103 
L 84.500651 201.503565 
L 85.314321 200.957855 
L 86.127992 190.629137 
L 86.941662 190.338482 
L 87.755333 179.283369 
L 88.569003 177.740367 
L 89.382674 173.375098 
L 90.196344 174.483313 
L 91.010015 168.579241 
L 93.451027 161.177141 
L 94.264697 170.905479 
L 95.078368 166.54662 
L 95.892038 168.736436 
L 96.705709 158.015654 
L 97.519379 155.425213 
L 98.33305 151.601393 
L 99.14672 152.996795 
L 99.960391 151.846994 
L 100.774061 152.950787 
L 101.587732 147.622062 
L 102.401403 147.268034 
L 103.215073 155.263312 
L 104.028744 149.689453 
L 104.842414 146.429194 
L 105.656085 146.172111 
L 107.283426 160.970408 
L 108.097096 171.395119 
L 108.910767 168.060045 
L 109.724437 159.301127 
L 110.538108 173.290283 
L 111.351778 178.70502 
L 112.165449 181.189731 
L 112.97912 184.170268 
L 113.79279 171.702693 
L 114.606461 171.523163 
L 115.420131 184.344016 
L 116.233802 190.025897 
L 117.047472 186.332434 
L 117.861143 183.195574 
L 118.674813 180.770747 
L 119.488484 171.967808 
L 120.302154 170.937166 
L 121.115825 163.381259 
L 121.929495 149.975524 
L 123.556837 137.615362 
L 124.370507 141.229507 
L 125.184178 152.081863 
L 125.997848 153.413974 
L 127.625189 144.383509 
L 128.43886 150.78219 
L 129.25253 145.754751 
L 130.066201 151.603645 
L 130.879871 145.684724 
L 131.693542 145.469633 
L 132.507212 145.074607 
L 133.320883 151.079621 
L 134.134554 152.879807 
L 134.948224 144.380953 
L 135.761895 151.377478 
L 136.575565 148.191323 
L 137.389236 146.794075 
L 138.202906 142.01749 
L 139.016577 140.43696 
L 139.830247 140.103826 
L 140.643918 137.616802 
L 141.457588 142.964961 
L 142.271259 146.300582 
L 143.08493 150.431326 
L 143.8986 159.205763 
L 144.712271 149.8319 
L 145.525941 142.324212 
L 146.339612 144.540988 
L 147.153282 151.219025 
L 147.966953 144.407 
L 148.780623 141.179888 
L 149.594294 130.126661 
L 150.407964 122.969594 
L 151.221635 121.855252 
L 152.035305 136.446836 
L 152.848976 134.935907 
L 153.662647 123.160403 
L 154.476317 125.241446 
L 155.289988 126.259957 
L 156.103658 132.957936 
L 156.917329 127.961594 
L 157.730999 134.463449 
L 158.54467 129.228141 
L 159.35834 129.135658 
L 160.172011 137.35832 
L 160.985681 128.999479 
L 161.799352 122.116595 
L 162.613022 116.841424 
L 163.426693 118.578014 
L 164.240364 121.036678 
L 165.054034 116.327462 
L 165.867705 109.536514 
L 166.681375 111.09682 
L 167.495046 121.563866 
L 168.308716 123.498486 
L 169.122387 121.303356 
L 169.936057 123.246577 
L 170.749728 112.930517 
L 171.563398 107.881047 
L 172.377069 112.814056 
L 173.190739 125.284614 
L 174.00441 117.912923 
L 174.818081 118.081396 
L 175.631751 117.315849 
L 176.445422 117.315789 
L 177.259092 115.711381 
L 178.072763 123.886839 
L 178.886433 110.502059 
L 179.700104 92.190559 
L 180.513774 95.328799 
L 181.327445 94.363254 
L 182.141115 101.762574 
L 182.954786 105.724987 
L 183.768457 114.678893 
L 184.582127 108.923922 
L 185.395798 122.666584 
L 186.209468 118.268574 
L 187.023139 104.518264 
L 187.836809 107.734421 
L 189.46415 99.165094 
L 190.277821 91.41633 
L 191.091491 96.451945 
L 191.905162 87.907407 
L 193.532503 125.666292 
L 194.346174 126.293835 
L 195.159844 121.248138 
L 195.973515 125.411299 
L 196.787185 137.219828 
L 197.600856 132.200239 
L 198.414526 138.473453 
L 199.228197 124.743996 
L 200.041867 120.982048 
L 200.855538 118.717398 
L 201.669208 119.651216 
L 202.482879 113.330189 
L 203.296549 111.434274 
L 204.11022 111.998363 
L 204.923891 112.752448 
L 206.551232 101.865383 
L 207.364902 97.796896 
L 208.178573 101.25981 
L 208.992243 98.731992 
L 209.805914 97.589798 
L 210.619584 108.605313 
L 211.433255 113.175023 
L 212.246925 126.319415 
L 213.060596 137.267622 
L 213.874266 138.38381 
L 214.687937 136.055076 
L 215.501608 144.006314 
L 216.315278 147.58001 
L 217.128949 146.520521 
L 217.942619 143.529374 
L 218.75629 136.239312 
L 219.56996 121.508588 
L 220.383631 127.506502 
L 221.197301 128.778708 
L 222.010972 128.424517 
L 222.824642 117.69487 
L 223.638313 103.506163 
L 224.451984 94.230645 
L 225.265654 98.283999 
L 226.079325 98.118284 
L 226.892995 101.92121 
L 227.706666 97.683457 
L 228.520336 95.291168 
L 229.334007 98.47142 
L 230.147677 111.071807 
L 230.961348 130.657704 
L 231.775018 125.007773 
L 232.588689 135.646012 
L 233.402359 136.740941 
L 234.21603 149.079092 
L 235.029701 146.491126 
L 235.843371 147.192591 
L 236.657042 144.156226 
L 237.470712 128.310795 
L 238.284383 137.428813 
L 239.098053 138.869676 
L 239.911724 127.130889 
L 240.725394 126.84141 
L 241.539065 133.690823 
L 242.352735 137.83451 
L 243.166406 128.99818 
L 243.980076 117.956415 
L 244.793747 109.047503 
L 245.607418 101.712387 
L 246.421088 112.251814 
L 248.048429 96.429569 
L 248.8621 93.178398 
L 249.67577 95.41049 
L 250.489441 105.301804 
L 251.303111 104.545345 
L 252.116782 96.193239 
L 252.930452 84.335841 
L 254.557793 72.926314 
L 255.371464 64.564187 
L 256.998805 67.700844 
L 257.812476 75.800169 
L 258.626146 82.637633 
L 259.439817 81.813825 
L 260.253487 86.09292 
L 261.067158 88.178568 
L 261.880828 99.505045 
L 262.694499 104.203407 
L 263.508169 101.648649 
L 264.32184 98.001803 
L 265.135511 91.99685 
L 265.949181 89.175028 
L 266.762852 79.87393 
L 267.576522 74.731003 
L 268.390193 73.530021 
L 269.203863 57.799752 
L 270.017534 51.682151 
L 270.831204 55.20783 
L 271.644875 64.096558 
L 272.458545 68.807356 
L 273.272216 74.47313 
L 274.085886 79.317632 
L 274.899557 75.468941 
L 275.713228 88.900926 
L 276.526898 104.276943 
L 277.340569 99.527481 
L 278.154239 83.220506 
L 278.96791 79.368326 
L 279.78158 84.502104 
L 280.595251 85.947186 
L 281.408921 83.599506 
L 282.222592 83.412187 
L 283.036262 81.765625 
L 283.849933 79.515723 
L 284.663603 88.825017 
L 285.477274 96.474097 
L 286.290945 91.535266 
L 287.104615 91.659516 
L 287.918286 92.529637 
L 288.731956 77.723469 
L 289.545627 72.103744 
L 290.359297 69.814649 
L 291.172968 67.064762 
L 291.986638 61.92859 
L 292.800309 70.7267 
L 293.613979 76.569185 
L 294.42765 71.919406 
L 295.24132 76.962486 
L 296.054991 74.992427 
L 296.868662 87.509176 
L 297.682332 88.856946 
L 298.496003 84.180452 
L 299.309673 81.168836 
L 300.123344 72.944308 
L 300.937014 79.723551 
L 301.750685 80.840023 
L 302.564355 84.828382 
L 303.378026 83.846101 
L 304.191696 87.868012 
L 305.005367 97.598987 
L 305.819038 91.136101 
L 306.632708 101.955351 
L 307.446379 91.745549 
L 308.260049 95.692199 
L 309.07372 90.687622 
L 309.88739 89.499054 
L 310.701061 83.07887 
L 311.514731 79.323515 
L 312.328402 81.638839 
L 313.142072 65.014167 
L 313.955743 68.912883 
L 314.769413 56.226991 
L 315.583084 60.515519 
L 316.396755 55.497411 
L 317.210425 63.964842 
L 318.024096 58.998219 
L 318.837766 62.109681 
L 319.651437 76.661607 
L 320.465107 85.623262 
L 321.278778 99.619132 
L 322.092448 95.765959 
L 322.906119 103.714133 
L 323.719789 103.831811 
L 324.53346 108.301573 
L 325.34713 108.105673 
L 326.160801 106.780459 
L 326.974472 96.425857 
L 327.788142 94.770147 
L 328.601813 91.209759 
L 329.415483 85.071791 
L 330.229154 85.720025 
L 331.042824 80.522793 
L 331.856495 77.137979 
L 332.670165 70.006736 
L 333.483836 71.891696 
L 334.297506 71.670175 
L 335.111177 71.679526 
L 335.924847 71.169763 
L 336.738518 70.27956 
L 337.552189 83.72402 
L 338.365859 94.543899 
L 339.17953 102.169549 
L 339.9932 103.292086 
L 340.806871 110.511735 
L 341.620541 125.489359 
L 343.247882 114.230028 
L 344.061553 112.034289 
L 344.875223 101.832784 
L 345.688894 104.742706 
L 346.502565 102.459535 
L 348.129906 83.536985 
L 348.943576 92.950446 
L 349.757247 99.817183 
L 350.570917 95.173855 
L 351.384588 94.16711 
L 352.198258 86.366697 
L 353.011929 82.161341 
L 353.825599 83.786075 
L 354.63927 73.735658 
L 355.45294 73.917014 
L 356.266611 76.11606 
L 357.893952 63.108414 
L 358.707623 62.331913 
L 359.521293 67.826333 
L 360.334964 65.319936 
L 361.148634 65.840531 
L 361.962305 62.990046 
L 362.775975 54.273444 
L 363.589646 56.725739 
L 364.403316 67.600429 
L 365.216987 68.139262 
L 366.030657 70.454241 
L 366.844328 69.46906 
L 367.657999 64.275114 
L 368.471669 62.546841 
L 369.28534 71.296976 
L 370.09901 75.792176 
L 370.912681 77.325501 
L 371.726351 84.964418 
L 372.540022 87.543641 
L 373.353692 82.026948 
L 374.167363 88.665468 
L 374.981033 93.917209 
L 375.794704 88.880397 
L 376.608374 88.134669 
L 377.422045 91.63708 
L 378.235716 87.497653 
L 379.049386 97.530522 
L 379.863057 101.921757 
L 380.676727 102.497246 
L 381.490398 93.915038 
L 381.490398 93.915038 
" clip-path="url(#p5dbd05a473)" style="fill: none; stroke: #1f77b4; stroke-width: 1.5; stroke-linecap: square"/>
   </g>
   <g id="patch_3">
    <path d="M 40.603125 273.312 
L 40.603125 7.2 
" style="fill: none; stroke: #000000; stroke-width: 0.8; stroke-linejoin: miter; stroke-linecap: square"/>
   </g>
   <g id="patch_4">
    <path d="M 397.723125 273.312 
L 397.723125 7.2 
" style="fill: none; stroke: #000000; stroke-width: 0.8; stroke-linejoin: miter; stroke-linecap: square"/>
   </g>
   <g id="patch_5">
    <path d="M 40.603125 273.312 
L 397.723125 273.312 
" style="fill: none; stroke: #000000; stroke-width: 0.8; stroke-linejoin: miter; stroke-linecap: square"/>
   </g>
   <g id="patch_6">
    <path d="M 40.603125 7.2 
L 397.723125 7.2 
" style="fill: none; stroke: #000000; stroke-width: 0.8; stroke-linejoin: miter; stroke-linecap: square"/>
   </g>
   <g id="legend_1">
    <g id="patch_7">
     <path d="M 47.603125 29.878125 
L 136.742188 29.878125 
Q 138.742188 29.878125 138.742188 27.878125 
L 138.742188 14.2 
Q 138.742188 12.2 136.742188 12.2 
L 47.603125 12.2 
Q 45.603125 12.2 45.603125 14.2 
L 45.603125 27.878125 
Q 45.603125 29.878125 47.603125 29.878125 
z
" style="fill: #ffffff; opacity: 0.8; stroke: #cccccc; stroke-linejoin: miter"/>
    </g>
    <g id="line2d_16">
     <path d="M 49.603125 20.298437 
L 59.603125 20.298437 
L 69.603125 20.298437 
" style="fill: none; stroke: #1f77b4; stroke-width: 1.5; stroke-linecap: square"/>
    </g>
    <g id="text_17">
     <!-- PPO &amp; DQN -->
     <g transform="translate(77.603125 23.798437) scale(0.1 -0.1)">
      <defs>
       <path id="DejaVuSans-50" d="M 1259 4147 
L 1259 2394 
L 2053 2394 
Q 2494 2394 2734 2622 
Q 2975 2850 2975 3272 
Q 2975 3691 2734 3919 
Q 2494 4147 2053 4147 
L 1259 4147 
z
M 628 4666 
L 2053 4666 
Q 2838 4666 3239 4311 
Q 3641 3956 3641 3272 
Q 3641 2581 3239 2228 
Q 2838 1875 2053 1875 
L 1259 1875 
L 1259 0 
L 628 0 
L 628 4666 
z
" transform="scale(0.015625)"/>
       <path id="DejaVuSans-4f" d="M 2522 4238 
Q 1834 4238 1429 3725 
Q 1025 3213 1025 2328 
Q 1025 1447 1429 934 
Q 1834 422 2522 422 
Q 3209 422 3611 934 
Q 4013 1447 4013 2328 
Q 4013 3213 3611 3725 
Q 3209 4238 2522 4238 
z
M 2522 4750 
Q 3503 4750 4090 4092 
Q 4678 3434 4678 2328 
Q 4678 1225 4090 567 
Q 3503 -91 2522 -91 
Q 1538 -91 948 565 
Q 359 1222 359 2328 
Q 359 3434 948 4092 
Q 1538 4750 2522 4750 
z
" transform="scale(0.015625)"/>
       <path id="DejaVuSans-26" d="M 1556 2509 
Q 1272 2256 1139 2004 
Q 1006 1753 1006 1478 
Q 1006 1022 1337 719 
Q 1669 416 2169 416 
Q 2466 416 2725 514 
Q 2984 613 3213 813 
L 1556 2509 
z
M 1997 2859 
L 3584 1234 
Q 3769 1513 3872 1830 
Q 3975 2147 3994 2503 
L 4575 2503 
Q 4538 2091 4375 1687 
Q 4213 1284 3922 891 
L 4794 0 
L 4006 0 
L 3559 459 
Q 3234 181 2878 45 
Q 2522 -91 2113 -91 
Q 1359 -91 881 339 
Q 403 769 403 1441 
Q 403 1841 612 2192 
Q 822 2544 1241 2853 
Q 1091 3050 1012 3245 
Q 934 3441 934 3628 
Q 934 4134 1281 4442 
Q 1628 4750 2203 4750 
Q 2463 4750 2720 4694 
Q 2978 4638 3244 4525 
L 3244 3956 
Q 2972 4103 2725 4179 
Q 2478 4256 2266 4256 
Q 1938 4256 1733 4082 
Q 1528 3909 1528 3634 
Q 1528 3475 1620 3314 
Q 1713 3153 1997 2859 
z
" transform="scale(0.015625)"/>
       <path id="DejaVuSans-44" d="M 1259 4147 
L 1259 519 
L 2022 519 
Q 2988 519 3436 956 
Q 3884 1394 3884 2338 
Q 3884 3275 3436 3711 
Q 2988 4147 2022 4147 
L 1259 4147 
z
M 628 4666 
L 1925 4666 
Q 3281 4666 3915 4102 
Q 4550 3538 4550 2338 
Q 4550 1131 3912 565 
Q 3275 0 1925 0 
L 628 0 
L 628 4666 
z
" transform="scale(0.015625)"/>
       <path id="DejaVuSans-51" d="M 2522 4238 
Q 1834 4238 1429 3725 
Q 1025 3213 1025 2328 
Q 1025 1447 1429 934 
Q 1834 422 2522 422 
Q 3209 422 3611 934 
Q 4013 1447 4013 2328 
Q 4013 3213 3611 3725 
Q 3209 4238 2522 4238 
z
M 3406 84 
L 4238 -825 
L 3475 -825 
L 2784 -78 
Q 2681 -84 2626 -87 
Q 2572 -91 2522 -91 
Q 1538 -91 948 567 
Q 359 1225 359 2328 
Q 359 3434 948 4092 
Q 1538 4750 2522 4750 
Q 3503 4750 4090 4092 
Q 4678 3434 4678 2328 
Q 4678 1516 4351 937 
Q 4025 359 3406 84 
z
" transform="scale(0.015625)"/>
       <path id="DejaVuSans-4e" d="M 628 4666 
L 1478 4666 
L 3547 763 
L 3547 4666 
L 4159 4666 
L 4159 0 
L 3309 0 
L 1241 3903 
L 1241 0 
L 628 0 
L 628 4666 
z
" transform="scale(0.015625)"/>
      </defs>
      <use xlink:href="#DejaVuSans-50"/>
      <use xlink:href="#DejaVuSans-50" x="60.302734"/>
      <use xlink:href="#DejaVuSans-4f" x="120.605469"/>
      <use xlink:href="#DejaVuSans-20" x="199.316406"/>
      <use xlink:href="#DejaVuSans-26" x="231.103516"/>
      <use xlink:href="#DejaVuSans-20" x="309.082031"/>
      <use xlink:href="#DejaVuSans-44" x="340.869141"/>
      <use xlink:href="#DejaVuSans-51" x="417.871094"/>
      <use xlink:href="#DejaVuSans-4e" x="496.582031"/>
     </g>
    </g>
   </g>
  </g>
 </g>
 <defs>
  <clipPath id="p5dbd05a473">
   <rect x="40.603125" y="7.2" width="357.12" height="266.112"/>
  </clipPath>
 </defs>
</svg>
