<?xml version="1.0" encoding="utf-8" standalone="no"?>
<!DOCTYPE svg PUBLIC "-//W3C//DTD SVG 1.1//EN"
  "http://www.w3.org/Graphics/SVG/1.1/DTD/svg11.dtd">
<svg xmlns:xlink="http://www.w3.org/1999/xlink" width="406.806847pt" height="310.86825pt" viewBox="0 0 406.806847 310.86825" xmlns="http://www.w3.org/2000/svg" version="1.1">
 <metadata>
  <rdf:RDF xmlns:dc="http://purl.org/dc/elements/1.1/" xmlns:cc="http://creativecommons.org/ns#" xmlns:rdf="http://www.w3.org/1999/02/22-rdf-syntax-ns#">
   <cc:Work>
    <dc:type rdf:resource="http://purl.org/dc/dcmitype/StillImage"/>
    <dc:date>2025-11-06T17:54:46.774072</dc:date>
    <dc:format>image/svg+xml</dc:format>
    <dc:creator>
     <cc:Agent>
      <dc:title>Matplotlib v3.9.4, https://matplotlib.org/</dc:title>
     </cc:Agent>
    </dc:creator>
   </cc:Work>
  </rdf:RDF>
 </metadata>
 <defs>
  <style type="text/css">*{stroke-linejoin: round; stroke-linecap: butt}</style>
 </defs>
 <g id="figure_1">
  <g id="patch_1">
   <path d="M 0 310.86825 
L 406.806847 310.86825 
L 406.806847 0 
L 0 0 
z
" style="fill: #ffffff"/>
  </g>
  <g id="axes_1">
   <g id="patch_2">
    <path d="M 40.603125 273.312 
L 397.723125 273.312 
L 397.723125 7.2 
L 40.603125 7.2 
z
" style="fill: #ffffff"/>
   </g>
   <g id="PolyCollection_1">
    <path d="M 56.835852 142.986907 
L 56.835852 199.40893 
L 57.649523 199.40893 
L 58.463193 199.40893 
L 59.276864 199.40893 
L 60.090534 199.40893 
L 60.904205 199.40893 
L 61.717876 199.40893 
L 62.531546 199.40893 
L 63.345217 200.620799 
L 64.158887 224.704009 
L 64.972558 255.469045 
L 65.786228 254.047966 
L 66.599899 255.96021 
L 67.413569 239.954773 
L 68.22724 237.469865 
L 69.04091 232.036877 
L 69.854581 230.79633 
L 70.668251 205.42903 
L 71.481922 199.497576 
L 72.295593 188.515358 
L 73.109263 203.375287 
L 73.922934 197.687353 
L 74.736604 208.449352 
L 75.550275 234.592507 
L 76.363945 224.177505 
L 77.177616 241.1978 
L 77.991286 240.443422 
L 78.804957 218.027087 
L 79.618627 221.323196 
L 80.432298 238.372575 
L 81.245968 230.127722 
L 82.059639 220.593122 
L 82.87331 223.536741 
L 83.68698 202.415974 
L 84.500651 212.969245 
L 85.314321 200.571323 
L 86.127992 214.106371 
L 86.941662 223.105966 
L 87.755333 225.869336 
L 88.569003 208.918527 
L 89.382674 209.692649 
L 90.196344 198.939381 
L 91.010015 197.688992 
L 91.823685 198.682113 
L 92.637356 192.085813 
L 93.451027 204.785604 
L 94.264697 234.172981 
L 95.078368 225.467751 
L 95.892038 218.958015 
L 96.705709 200.025937 
L 97.519379 191.740023 
L 98.33305 192.500973 
L 99.14672 186.855108 
L 99.960391 181.046853 
L 100.774061 179.119548 
L 101.587732 183.763786 
L 102.401403 202.894952 
L 103.215073 204.593453 
L 104.028744 203.389712 
L 104.842414 201.628918 
L 105.656085 211.694712 
L 106.469755 224.577553 
L 107.283426 241.575116 
L 108.097096 216.639308 
L 108.910767 208.429204 
L 109.724437 197.924545 
L 110.538108 204.404569 
L 111.351778 194.662076 
L 112.165449 214.823543 
L 112.97912 209.311883 
L 113.79279 178.480983 
L 114.606461 197.671074 
L 115.420131 218.76741 
L 116.233802 244.0343 
L 117.047472 259.520747 
L 117.861143 258.105981 
L 118.674813 245.462097 
L 119.488484 233.207036 
L 120.302154 257.256203 
L 121.115825 261.216 
L 121.929495 239.535807 
L 122.743166 211.241759 
L 123.556837 203.729161 
L 124.370507 232.350134 
L 125.184178 255.039428 
L 125.997848 246.402278 
L 126.811519 216.60204 
L 127.625189 221.116306 
L 128.43886 211.590423 
L 129.25253 194.747954 
L 130.066201 192.442195 
L 130.879871 176.834121 
L 131.693542 165.636612 
L 132.507212 166.548515 
L 133.320883 173.917778 
L 134.134554 171.447695 
L 134.948224 175.069865 
L 135.761895 191.566571 
L 136.575565 175.839896 
L 137.389236 157.669522 
L 138.202906 148.522867 
L 139.016577 145.802143 
L 139.830247 149.623992 
L 140.643918 146.312834 
L 141.457588 163.474757 
L 142.271259 175.238228 
L 143.08493 175.302603 
L 143.8986 194.301646 
L 144.712271 174.80743 
L 145.525941 173.363949 
L 146.339612 174.989496 
L 147.153282 172.252405 
L 147.966953 170.093572 
L 148.780623 170.39179 
L 149.594294 178.812008 
L 150.407964 170.738191 
L 151.221635 175.583567 
L 152.035305 176.28737 
L 152.848976 166.195923 
L 153.662647 173.745816 
L 154.476317 176.881631 
L 155.289988 170.675046 
L 156.103658 193.865052 
L 156.917329 216.258786 
L 157.730999 220.26698 
L 158.54467 228.825043 
L 159.35834 221.557418 
L 160.172011 216.711161 
L 160.985681 174.334744 
L 161.799352 151.53774 
L 162.613022 126.257604 
L 163.426693 139.629628 
L 164.240364 143.546448 
L 165.054034 127.661264 
L 165.867705 115.412434 
L 166.681375 122.195522 
L 167.495046 138.703128 
L 168.308716 150.948236 
L 169.122387 151.747668 
L 169.936057 156.272909 
L 170.749728 139.745911 
L 171.563398 141.423471 
L 172.377069 158.370017 
L 173.190739 163.725735 
L 174.00441 151.120523 
L 174.818081 153.293021 
L 175.631751 138.327851 
L 176.445422 146.224351 
L 177.259092 159.789 
L 178.072763 152.099164 
L 178.886433 150.426945 
L 179.700104 119.717272 
L 180.513774 132.992294 
L 181.327445 124.311066 
L 182.141115 151.153257 
L 182.954786 160.14484 
L 183.768457 159.152436 
L 184.582127 156.445185 
L 185.395798 140.354024 
L 186.209468 143.19285 
L 187.023139 134.834203 
L 187.836809 132.511134 
L 188.65048 120.367518 
L 189.46415 107.548203 
L 190.277821 106.496755 
L 191.091491 110.334195 
L 191.905162 129.493828 
L 192.718832 147.869336 
L 193.532503 155.245376 
L 194.346174 161.91673 
L 195.159844 167.583362 
L 195.973515 171.077179 
L 196.787185 166.466844 
L 197.600856 159.167779 
L 198.414526 160.421759 
L 199.228197 160.270691 
L 200.041867 159.076154 
L 200.855538 151.824298 
L 201.669208 137.567361 
L 202.482879 132.474114 
L 203.296549 148.013437 
L 204.11022 178.252915 
L 204.923891 160.481744 
L 205.737561 162.445701 
L 206.551232 160.635504 
L 207.364902 152.537702 
L 208.178573 176.190268 
L 208.992243 194.319912 
L 209.805914 192.772188 
L 210.619584 177.965167 
L 211.433255 184.865944 
L 212.246925 186.442192 
L 213.060596 183.069525 
L 213.874266 188.523458 
L 214.687937 169.618155 
L 215.501608 163.509936 
L 216.315278 153.464652 
L 217.128949 162.118265 
L 217.942619 156.141534 
L 218.75629 143.263275 
L 219.56996 157.87916 
L 220.383631 155.954127 
L 221.197301 175.510108 
L 222.010972 168.169037 
L 222.824642 157.989748 
L 223.638313 147.13526 
L 224.451984 148.459135 
L 225.265654 148.061701 
L 226.079325 149.355974 
L 226.892995 161.269507 
L 227.706666 159.126477 
L 228.520336 158.172703 
L 229.334007 157.219404 
L 230.147677 197.051009 
L 230.961348 215.840636 
L 231.775018 249.901731 
L 232.588689 239.998255 
L 233.402359 234.94091 
L 234.21603 227.929715 
L 235.029701 230.751566 
L 235.843371 236.746227 
L 236.657042 201.880818 
L 237.470712 189.489824 
L 238.284383 181.515136 
L 239.098053 171.898474 
L 239.911724 168.853066 
L 240.725394 164.976725 
L 241.539065 181.562802 
L 242.352735 181.930475 
L 243.166406 178.791937 
L 243.980076 162.27161 
L 244.793747 143.764403 
L 245.607418 156.776866 
L 246.421088 163.241901 
L 247.234759 167.944604 
L 248.048429 152.300718 
L 248.8621 141.093927 
L 249.67577 150.375331 
L 250.489441 144.097387 
L 251.303111 121.380609 
L 252.116782 109.854192 
L 252.930452 103.791089 
L 253.744123 90.339928 
L 254.557793 78.017102 
L 255.371464 70.261666 
L 256.185135 68.635466 
L 256.998805 104.46362 
L 257.812476 111.758979 
L 258.626146 131.865877 
L 259.439817 135.786577 
L 260.253487 133.624457 
L 261.067158 136.713748 
L 261.880828 141.552246 
L 262.694499 143.666532 
L 263.508169 117.733413 
L 264.32184 130.075671 
L 265.135511 100.527997 
L 265.949181 98.733089 
L 266.762852 100.046226 
L 267.576522 98.242169 
L 268.390193 69.519755 
L 269.203863 63.687595 
L 270.017534 69.828051 
L 270.831204 75.416913 
L 271.644875 85.026459 
L 272.458545 79.422431 
L 273.272216 96.264294 
L 274.085886 92.582049 
L 274.899557 117.471341 
L 275.713228 124.701266 
L 276.526898 114.780081 
L 277.340569 102.670957 
L 278.154239 84.050376 
L 278.96791 92.015737 
L 279.78158 89.964703 
L 280.595251 80.79848 
L 281.408921 104.11324 
L 282.222592 98.922557 
L 283.036262 99.0918 
L 283.849933 111.068571 
L 284.663603 124.665503 
L 285.477274 132.89972 
L 286.290945 156.814799 
L 287.104615 144.329369 
L 287.918286 119.573731 
L 288.731956 114.132954 
L 289.545627 102.974705 
L 290.359297 89.201641 
L 291.172968 98.901368 
L 291.986638 100.980829 
L 292.800309 132.486085 
L 293.613979 117.121644 
L 294.42765 125.12536 
L 295.24132 125.129472 
L 296.054991 128.973012 
L 296.868662 122.355783 
L 297.682332 111.990742 
L 298.496003 110.309632 
L 299.309673 107.050358 
L 300.123344 106.12026 
L 300.937014 97.134534 
L 301.750685 106.804141 
L 302.564355 123.23321 
L 303.378026 136.201421 
L 304.191696 136.081381 
L 305.005367 122.959369 
L 305.819038 115.069013 
L 306.632708 110.404606 
L 307.446379 118.805822 
L 308.260049 118.981743 
L 309.07372 94.412923 
L 309.88739 84.357497 
L 310.701061 78.642159 
L 311.514731 102.838487 
L 312.328402 86.955631 
L 313.142072 102.53735 
L 313.955743 107.240343 
L 314.769413 115.007803 
L 315.583084 93.361557 
L 316.396755 91.719768 
L 317.210425 88.92163 
L 318.024096 80.544565 
L 318.837766 94.920766 
L 319.651437 96.089337 
L 320.465107 110.38653 
L 321.278778 106.010995 
L 322.092448 127.196008 
L 322.906119 145.000233 
L 323.719789 158.95997 
L 324.53346 173.36326 
L 325.34713 169.008383 
L 326.160801 164.154455 
L 326.974472 168.62066 
L 327.788142 166.399047 
L 328.601813 160.146589 
L 329.415483 155.150553 
L 330.229154 153.002342 
L 331.042824 143.90816 
L 331.856495 141.003196 
L 332.670165 126.932544 
L 333.483836 120.047704 
L 334.297506 110.941566 
L 335.111177 107.762549 
L 335.924847 101.393969 
L 336.738518 124.347139 
L 337.552189 139.180343 
L 338.365859 145.407931 
L 339.17953 155.924076 
L 339.9932 156.58927 
L 340.806871 171.173782 
L 341.620541 171.91774 
L 342.434212 169.196854 
L 343.247882 156.960698 
L 344.061553 132.09114 
L 344.875223 129.761626 
L 345.688894 116.887628 
L 346.502565 93.939224 
L 347.316235 82.722253 
L 348.129906 101.37459 
L 348.943576 129.529874 
L 349.757247 130.016448 
L 350.570917 135.895059 
L 351.384588 130.935195 
L 352.198258 136.558418 
L 353.011929 138.696031 
L 353.825599 134.464293 
L 354.63927 121.292093 
L 355.45294 128.456204 
L 356.266611 113.671681 
L 357.080282 91.400221 
L 357.893952 103.128111 
L 358.707623 115.666848 
L 359.521293 103.675532 
L 360.334964 98.395926 
L 361.148634 96.184339 
L 361.962305 92.16823 
L 362.775975 97.789992 
L 363.589646 107.357409 
L 364.403316 100.213233 
L 365.216987 107.791261 
L 366.030657 111.343983 
L 366.844328 97.790642 
L 367.657999 109.743524 
L 368.471669 108.866906 
L 369.28534 117.791714 
L 370.09901 122.70177 
L 370.912681 121.575732 
L 371.726351 132.865686 
L 372.540022 129.846464 
L 373.353692 144.796847 
L 374.167363 164.952745 
L 374.981033 142.113961 
L 375.794704 151.21067 
L 376.608374 148.594541 
L 377.422045 133.080961 
L 378.235716 141.999781 
L 379.049386 140.934891 
L 379.863057 141.053163 
L 380.676727 131.753304 
L 381.490398 144.714032 
L 381.490398 63.318273 
L 381.490398 63.318273 
L 380.676727 67.373539 
L 379.863057 61.419876 
L 379.049386 74.818874 
L 378.235716 85.805397 
L 377.422045 77.977941 
L 376.608374 83.247805 
L 375.794704 72.075252 
L 374.981033 70.105073 
L 374.167363 65.554118 
L 373.353692 70.837244 
L 372.540022 65.465726 
L 371.726351 55.138015 
L 370.912681 69.595871 
L 370.09901 55.503779 
L 369.28534 55.071646 
L 368.471669 66.523428 
L 367.657999 51.70647 
L 366.844328 62.773444 
L 366.030657 68.586789 
L 365.216987 71.20356 
L 364.403316 74.99759 
L 363.589646 88.304971 
L 362.775975 75.933036 
L 361.962305 64.911427 
L 361.148634 78.333719 
L 360.334964 75.447095 
L 359.521293 70.601451 
L 358.707623 80.453301 
L 357.893952 82.270732 
L 357.080282 82.60164 
L 356.266611 82.788418 
L 355.45294 79.346225 
L 354.63927 86.463555 
L 353.825599 86.238466 
L 353.011929 94.955631 
L 352.198258 88.995484 
L 351.384588 89.804426 
L 350.570917 91.942437 
L 349.757247 73.771147 
L 348.943576 83.337767 
L 348.129906 77.756991 
L 347.316235 77.487612 
L 346.502565 79.789691 
L 345.688894 73.326329 
L 344.875223 83.198682 
L 344.061553 78.234423 
L 343.247882 91.268775 
L 342.434212 88.327054 
L 341.620541 100.446302 
L 340.806871 106.525089 
L 339.9932 95.416073 
L 339.17953 94.474437 
L 338.365859 89.529681 
L 337.552189 95.126197 
L 336.738518 85.287516 
L 335.924847 77.987071 
L 335.111177 72.323863 
L 334.297506 65.860215 
L 333.483836 68.691896 
L 332.670165 54.106716 
L 331.856495 47.70831 
L 331.042824 53.066025 
L 330.229154 55.083721 
L 329.415483 61.574682 
L 328.601813 73.259006 
L 327.788142 88.218706 
L 326.974472 95.136271 
L 326.160801 103.418409 
L 325.34713 95.904073 
L 324.53346 90.682297 
L 323.719789 94.409271 
L 322.906119 88.219643 
L 322.092448 98.986086 
L 321.278778 98.605869 
L 320.465107 79.895327 
L 319.651437 63.110916 
L 318.837766 69.077641 
L 318.024096 41.906408 
L 317.210425 39.721729 
L 316.396755 39.807858 
L 315.583084 27.146091 
L 314.769413 19.296 
L 313.955743 30.472886 
L 313.142072 54.820694 
L 312.328402 50.831769 
L 311.514731 55.65665 
L 310.701061 72.741343 
L 309.88739 81.783008 
L 309.07372 84.255898 
L 308.260049 76.894514 
L 307.446379 84.346222 
L 306.632708 90.174898 
L 305.819038 112.271165 
L 305.005367 103.196613 
L 304.191696 93.604341 
L 303.378026 94.90906 
L 302.564355 77.902426 
L 301.750685 85.230906 
L 300.937014 80.135191 
L 300.123344 64.976086 
L 299.309673 60.985921 
L 298.496003 78.119904 
L 297.682332 84.255224 
L 296.868662 85.908446 
L 296.054991 92.137085 
L 295.24132 63.53122 
L 294.42765 62.076719 
L 293.613979 66.938581 
L 292.800309 64.600223 
L 291.986638 74.849674 
L 291.172968 75.909732 
L 290.359297 72.60347 
L 289.545627 78.467286 
L 288.731956 77.502434 
L 287.918286 96.193345 
L 287.104615 107.859773 
L 286.290945 80.221457 
L 285.477274 88.90679 
L 284.663603 84.535574 
L 283.849933 81.43346 
L 283.036262 54.957933 
L 282.222592 61.214096 
L 281.408921 62.15545 
L 280.595251 61.750724 
L 279.78158 67.960799 
L 278.96791 80.683279 
L 278.154239 72.84126 
L 277.340569 77.047666 
L 276.526898 85.830269 
L 275.713228 72.296342 
L 274.899557 47.244917 
L 274.085886 42.747238 
L 273.272216 47.905754 
L 272.458545 48.291375 
L 271.644875 46.80208 
L 270.831204 38.217296 
L 270.017534 42.75706 
L 269.203863 46.75401 
L 268.390193 52.348399 
L 267.576522 72.861601 
L 266.762852 58.647493 
L 265.949181 66.817173 
L 265.135511 71.566378 
L 264.32184 61.287283 
L 263.508169 66.978234 
L 262.694499 62.009286 
L 261.880828 63.708873 
L 261.067158 50.753086 
L 260.253487 42.165536 
L 259.439817 31.536907 
L 258.626146 36.883838 
L 257.812476 53.477188 
L 256.998805 49.241235 
L 256.185135 52.224548 
L 255.371464 58.350718 
L 254.557793 46.586272 
L 253.744123 45.139687 
L 252.930452 53.057348 
L 252.116782 67.898196 
L 251.303111 75.933078 
L 250.489441 79.724316 
L 249.67577 83.886091 
L 248.8621 75.725255 
L 248.048429 78.089671 
L 247.234759 90.449979 
L 246.421088 112.287482 
L 245.607418 122.165334 
L 244.793747 117.763076 
L 243.980076 122.157668 
L 243.166406 113.203032 
L 242.352735 127.642344 
L 241.539065 127.87812 
L 240.725394 116.580765 
L 239.911724 112.10919 
L 239.098053 113.557695 
L 238.284383 125.747978 
L 237.470712 111.086336 
L 236.657042 109.087449 
L 235.843371 114.608702 
L 235.029701 114.409698 
L 234.21603 123.51929 
L 233.402359 124.223154 
L 232.588689 101.204748 
L 231.775018 92.505497 
L 230.961348 83.395818 
L 230.147677 92.703243 
L 229.334007 77.582343 
L 228.520336 69.421734 
L 227.706666 64.625789 
L 226.892995 57.476424 
L 226.079325 84.71781 
L 225.265654 74.868463 
L 224.451984 79.427447 
L 223.638313 89.218599 
L 222.824642 101.814235 
L 222.010972 99.430769 
L 221.197301 101.248204 
L 220.383631 114.787534 
L 219.56996 89.039404 
L 218.75629 104.700804 
L 217.942619 124.597437 
L 217.128949 107.868491 
L 216.315278 109.754835 
L 215.501608 111.49525 
L 214.687937 109.558529 
L 213.874266 98.23306 
L 213.060596 98.361763 
L 212.246925 84.840178 
L 211.433255 68.672824 
L 210.619584 66.011917 
L 209.805914 61.745346 
L 208.992243 63.295831 
L 208.178573 56.260879 
L 207.364902 47.96379 
L 206.551232 49.232994 
L 205.737561 45.450099 
L 204.923891 56.046893 
L 204.11022 49.749756 
L 203.296549 46.774237 
L 202.482879 48.307366 
L 201.669208 53.748811 
L 200.855538 77.57843 
L 200.041867 71.000523 
L 199.228197 80.145424 
L 198.414526 92.555054 
L 197.600856 103.202279 
L 196.787185 114.671659 
L 195.973515 117.973046 
L 195.159844 109.341469 
L 194.346174 98.347389 
L 193.532503 110.050485 
L 192.718832 115.195087 
L 191.905162 96.289374 
L 191.091491 89.019195 
L 190.277821 95.235906 
L 189.46415 103.167549 
L 188.65048 104.769956 
L 187.836809 118.131399 
L 187.023139 117.974491 
L 186.209468 116.120598 
L 185.395798 118.233573 
L 184.582127 112.133835 
L 183.768457 110.844111 
L 182.954786 109.932663 
L 182.141115 95.760764 
L 181.327445 93.296747 
L 180.513774 80.525106 
L 179.700104 80.697056 
L 178.886433 87.461171 
L 178.072763 99.294626 
L 177.259092 83.85658 
L 176.445422 83.024592 
L 175.631751 91.907154 
L 174.818081 95.100348 
L 174.00441 106.469046 
L 173.190739 99.789673 
L 172.377069 101.414382 
L 171.563398 91.446407 
L 170.749728 98.778396 
L 169.936057 97.412476 
L 169.122387 108.432808 
L 168.308716 93.462681 
L 167.495046 93.502976 
L 166.681375 80.480642 
L 165.867705 74.522688 
L 165.054034 84.439568 
L 164.240364 94.089969 
L 163.426693 84.640628 
L 162.613022 120.025537 
L 161.799352 125.26121 
L 160.985681 105.688296 
L 160.172011 114.500547 
L 159.35834 106.078025 
L 158.54467 83.355065 
L 157.730999 86.559484 
L 156.917329 83.650593 
L 156.103658 82.579164 
L 155.289988 83.015843 
L 154.476317 89.273577 
L 153.662647 79.503047 
L 152.848976 88.598333 
L 152.035305 94.873982 
L 151.221635 78.272305 
L 150.407964 81.117656 
L 149.594294 84.207426 
L 148.780623 96.464758 
L 147.966953 92.315973 
L 147.153282 97.690769 
L 146.339612 105.738468 
L 145.525941 104.219088 
L 144.712271 105.447535 
L 143.8986 107.472213 
L 143.08493 113.915741 
L 142.271259 106.96966 
L 141.457588 111.252939 
L 140.643918 107.292875 
L 139.830247 98.618345 
L 139.016577 103.685057 
L 138.202906 108.578726 
L 137.389236 101.358437 
L 136.575565 102.255564 
L 135.761895 103.313371 
L 134.948224 113.027512 
L 134.134554 134.585529 
L 133.320883 133.880476 
L 132.507212 116.650042 
L 131.693542 110.019037 
L 130.879871 118.577441 
L 130.066201 125.005868 
L 129.25253 113.498533 
L 128.43886 112.24464 
L 127.625189 87.574318 
L 126.811519 113.098002 
L 125.997848 123.689225 
L 125.184178 128.33824 
L 124.370507 127.915697 
L 123.556837 128.067797 
L 122.743166 133.764952 
L 121.929495 130.551921 
L 121.115825 136.556642 
L 120.302154 139.228057 
L 119.488484 138.95284 
L 118.674813 143.78503 
L 117.861143 135.955939 
L 117.047472 123.527466 
L 116.233802 136.769677 
L 115.420131 138.174561 
L 114.606461 149.247923 
L 113.79279 145.820167 
L 112.97912 161.375429 
L 112.165449 155.140799 
L 111.351778 160.204609 
L 110.538108 161.067331 
L 109.724437 163.018627 
L 108.910767 156.867409 
L 108.097096 153.27486 
L 107.283426 161.168598 
L 106.469755 157.262723 
L 105.656085 146.88359 
L 104.842414 146.788818 
L 104.028744 144.45679 
L 103.215073 149.927714 
L 102.401403 148.544645 
L 101.587732 156.263085 
L 100.774061 155.360344 
L 99.960391 152.269131 
L 99.14672 149.642024 
L 98.33305 163.573586 
L 97.519379 173.290236 
L 96.705709 179.171659 
L 95.892038 192.53277 
L 95.078368 198.923876 
L 94.264697 182.729686 
L 93.451027 179.979769 
L 92.637356 184.238906 
L 91.823685 179.419923 
L 91.010015 188.357724 
L 90.196344 186.632991 
L 89.382674 153.247286 
L 88.569003 125.818631 
L 87.755333 118.945001 
L 86.941662 128.440377 
L 86.127992 155.295375 
L 85.314321 193.685467 
L 84.500651 168.609092 
L 83.68698 157.679434 
L 82.87331 152.345569 
L 82.059639 159.32354 
L 81.245968 181.047047 
L 80.432298 181.696969 
L 79.618627 198.209352 
L 78.804957 200.554853 
L 77.991286 192.695788 
L 77.177616 195.310132 
L 76.363945 180.221356 
L 75.550275 186.249158 
L 74.736604 169.406104 
L 73.922934 181.33598 
L 73.109263 171.66713 
L 72.295593 152.632928 
L 71.481922 134.172693 
L 70.668251 153.021855 
L 69.854581 154.802793 
L 69.04091 148.965298 
L 68.22724 133.12254 
L 67.413569 145.005343 
L 66.599899 124.16649 
L 65.786228 130.282102 
L 64.972558 153.749857 
L 64.158887 149.770884 
L 63.345217 143.985485 
L 62.531546 142.986907 
L 61.717876 142.986907 
L 60.904205 142.986907 
L 60.090534 142.986907 
L 59.276864 142.986907 
L 58.463193 142.986907 
L 57.649523 142.986907 
L 56.835852 142.986907 
z
" clip-path="url(#p97493ef323)" style="fill: #1f77b4; fill-opacity: 0.2"/>
   </g>
   <g id="matplotlib.axis_1">
    <g id="xtick_1">
     <g id="line2d_1">
      <defs>
       <path id="m0020e9ab7a" d="M 0 0 
L 0 3.5 
" style="stroke: #000000; stroke-width: 0.8"/>
      </defs>
      <g>
       <use xlink:href="#m0020e9ab7a" x="56.835852" y="273.312" style="stroke: #000000; stroke-width: 0.8"/>
      </g>
     </g>
     <g id="text_1">
      <!-- 0 -->
      <g transform="translate(53.654602 287.910437) scale(0.1 -0.1)">
       <defs>
        <path id="DejaVuSans-30" d="M 2034 4250 
Q 1547 4250 1301 3770 
Q 1056 3291 1056 2328 
Q 1056 1369 1301 889 
Q 1547 409 2034 409 
Q 2525 409 2770 889 
Q 3016 1369 3016 2328 
Q 3016 3291 2770 3770 
Q 2525 4250 2034 4250 
z
M 2034 4750 
Q 2819 4750 3233 4129 
Q 3647 3509 3647 2328 
Q 3647 1150 3233 529 
Q 2819 -91 2034 -91 
Q 1250 -91 836 529 
Q 422 1150 422 2328 
Q 422 3509 836 4129 
Q 1250 4750 2034 4750 
z
" transform="scale(0.015625)"/>
       </defs>
       <use xlink:href="#DejaVuSans-30"/>
      </g>
     </g>
    </g>
    <g id="xtick_2">
     <g id="line2d_2">
      <g>
       <use xlink:href="#m0020e9ab7a" x="97.296289" y="273.312" style="stroke: #000000; stroke-width: 0.8"/>
      </g>
     </g>
     <g id="text_2">
      <!-- 25000 -->
      <g transform="translate(81.390039 287.910437) scale(0.1 -0.1)">
       <defs>
        <path id="DejaVuSans-32" d="M 1228 531 
L 3431 531 
L 3431 0 
L 469 0 
L 469 531 
Q 828 903 1448 1529 
Q 2069 2156 2228 2338 
Q 2531 2678 2651 2914 
Q 2772 3150 2772 3378 
Q 2772 3750 2511 3984 
Q 2250 4219 1831 4219 
Q 1534 4219 1204 4116 
Q 875 4013 500 3803 
L 500 4441 
Q 881 4594 1212 4672 
Q 1544 4750 1819 4750 
Q 2544 4750 2975 4387 
Q 3406 4025 3406 3419 
Q 3406 3131 3298 2873 
Q 3191 2616 2906 2266 
Q 2828 2175 2409 1742 
Q 1991 1309 1228 531 
z
" transform="scale(0.015625)"/>
        <path id="DejaVuSans-35" d="M 691 4666 
L 3169 4666 
L 3169 4134 
L 1269 4134 
L 1269 2991 
Q 1406 3038 1543 3061 
Q 1681 3084 1819 3084 
Q 2600 3084 3056 2656 
Q 3513 2228 3513 1497 
Q 3513 744 3044 326 
Q 2575 -91 1722 -91 
Q 1428 -91 1123 -41 
Q 819 9 494 109 
L 494 744 
Q 775 591 1075 516 
Q 1375 441 1709 441 
Q 2250 441 2565 725 
Q 2881 1009 2881 1497 
Q 2881 1984 2565 2268 
Q 2250 2553 1709 2553 
Q 1456 2553 1204 2497 
Q 953 2441 691 2322 
L 691 4666 
z
" transform="scale(0.015625)"/>
       </defs>
       <use xlink:href="#DejaVuSans-32"/>
       <use xlink:href="#DejaVuSans-35" x="63.623047"/>
       <use xlink:href="#DejaVuSans-30" x="127.246094"/>
       <use xlink:href="#DejaVuSans-30" x="190.869141"/>
       <use xlink:href="#DejaVuSans-30" x="254.492188"/>
      </g>
     </g>
    </g>
    <g id="xtick_3">
     <g id="line2d_3">
      <g>
       <use xlink:href="#m0020e9ab7a" x="137.756726" y="273.312" style="stroke: #000000; stroke-width: 0.8"/>
      </g>
     </g>
     <g id="text_3">
      <!-- 50000 -->
      <g transform="translate(121.850476 287.910437) scale(0.1 -0.1)">
       <use xlink:href="#DejaVuSans-35"/>
       <use xlink:href="#DejaVuSans-30" x="63.623047"/>
       <use xlink:href="#DejaVuSans-30" x="127.246094"/>
       <use xlink:href="#DejaVuSans-30" x="190.869141"/>
       <use xlink:href="#DejaVuSans-30" x="254.492188"/>
      </g>
     </g>
    </g>
    <g id="xtick_4">
     <g id="line2d_4">
      <g>
       <use xlink:href="#m0020e9ab7a" x="178.217163" y="273.312" style="stroke: #000000; stroke-width: 0.8"/>
      </g>
     </g>
     <g id="text_4">
      <!-- 75000 -->
      <g transform="translate(162.310913 287.910437) scale(0.1 -0.1)">
       <defs>
        <path id="DejaVuSans-37" d="M 525 4666 
L 3525 4666 
L 3525 4397 
L 1831 0 
L 1172 0 
L 2766 4134 
L 525 4134 
L 525 4666 
z
" transform="scale(0.015625)"/>
       </defs>
       <use xlink:href="#DejaVuSans-37"/>
       <use xlink:href="#DejaVuSans-35" x="63.623047"/>
       <use xlink:href="#DejaVuSans-30" x="127.246094"/>
       <use xlink:href="#DejaVuSans-30" x="190.869141"/>
       <use xlink:href="#DejaVuSans-30" x="254.492188"/>
      </g>
     </g>
    </g>
    <g id="xtick_5">
     <g id="line2d_5">
      <g>
       <use xlink:href="#m0020e9ab7a" x="218.6776" y="273.312" style="stroke: #000000; stroke-width: 0.8"/>
      </g>
     </g>
     <g id="text_5">
      <!-- 100000 -->
      <g transform="translate(199.5901 287.910437) scale(0.1 -0.1)">
       <defs>
        <path id="DejaVuSans-31" d="M 794 531 
L 1825 531 
L 1825 4091 
L 703 3866 
L 703 4441 
L 1819 4666 
L 2450 4666 
L 2450 531 
L 3481 531 
L 3481 0 
L 794 0 
L 794 531 
z
" transform="scale(0.015625)"/>
       </defs>
       <use xlink:href="#DejaVuSans-31"/>
       <use xlink:href="#DejaVuSans-30" x="63.623047"/>
       <use xlink:href="#DejaVuSans-30" x="127.246094"/>
       <use xlink:href="#DejaVuSans-30" x="190.869141"/>
       <use xlink:href="#DejaVuSans-30" x="254.492188"/>
       <use xlink:href="#DejaVuSans-30" x="318.115234"/>
      </g>
     </g>
    </g>
    <g id="xtick_6">
     <g id="line2d_6">
      <g>
       <use xlink:href="#m0020e9ab7a" x="259.138037" y="273.312" style="stroke: #000000; stroke-width: 0.8"/>
      </g>
     </g>
     <g id="text_6">
      <!-- 125000 -->
      <g transform="translate(240.050537 287.910437) scale(0.1 -0.1)">
       <use xlink:href="#DejaVuSans-31"/>
       <use xlink:href="#DejaVuSans-32" x="63.623047"/>
       <use xlink:href="#DejaVuSans-35" x="127.246094"/>
       <use xlink:href="#DejaVuSans-30" x="190.869141"/>
       <use xlink:href="#DejaVuSans-30" x="254.492188"/>
       <use xlink:href="#DejaVuSans-30" x="318.115234"/>
      </g>
     </g>
    </g>
    <g id="xtick_7">
     <g id="line2d_7">
      <g>
       <use xlink:href="#m0020e9ab7a" x="299.598473" y="273.312" style="stroke: #000000; stroke-width: 0.8"/>
      </g>
     </g>
     <g id="text_7">
      <!-- 150000 -->
      <g transform="translate(280.510973 287.910437) scale(0.1 -0.1)">
       <use xlink:href="#DejaVuSans-31"/>
       <use xlink:href="#DejaVuSans-35" x="63.623047"/>
       <use xlink:href="#DejaVuSans-30" x="127.246094"/>
       <use xlink:href="#DejaVuSans-30" x="190.869141"/>
       <use xlink:href="#DejaVuSans-30" x="254.492188"/>
       <use xlink:href="#DejaVuSans-30" x="318.115234"/>
      </g>
     </g>
    </g>
    <g id="xtick_8">
     <g id="line2d_8">
      <g>
       <use xlink:href="#m0020e9ab7a" x="340.05891" y="273.312" style="stroke: #000000; stroke-width: 0.8"/>
      </g>
     </g>
     <g id="text_8">
      <!-- 175000 -->
      <g transform="translate(320.97141 287.910437) scale(0.1 -0.1)">
       <use xlink:href="#DejaVuSans-31"/>
       <use xlink:href="#DejaVuSans-37" x="63.623047"/>
       <use xlink:href="#DejaVuSans-35" x="127.246094"/>
       <use xlink:href="#DejaVuSans-30" x="190.869141"/>
       <use xlink:href="#DejaVuSans-30" x="254.492188"/>
       <use xlink:href="#DejaVuSans-30" x="318.115234"/>
      </g>
     </g>
    </g>
    <g id="xtick_9">
     <g id="line2d_9">
      <g>
       <use xlink:href="#m0020e9ab7a" x="380.519347" y="273.312" style="stroke: #000000; stroke-width: 0.8"/>
      </g>
     </g>
     <g id="text_9">
      <!-- 200000 -->
      <g transform="translate(361.431847 287.910437) scale(0.1 -0.1)">
       <use xlink:href="#DejaVuSans-32"/>
       <use xlink:href="#DejaVuSans-30" x="63.623047"/>
       <use xlink:href="#DejaVuSans-30" x="127.246094"/>
       <use xlink:href="#DejaVuSans-30" x="190.869141"/>
       <use xlink:href="#DejaVuSans-30" x="254.492188"/>
       <use xlink:href="#DejaVuSans-30" x="318.115234"/>
      </g>
     </g>
    </g>
    <g id="text_10">
     <!-- Env steps -->
     <g transform="translate(194.86625 301.588562) scale(0.1 -0.1)">
      <defs>
       <path id="DejaVuSans-45" d="M 628 4666 
L 3578 4666 
L 3578 4134 
L 1259 4134 
L 1259 2753 
L 3481 2753 
L 3481 2222 
L 1259 2222 
L 1259 531 
L 3634 531 
L 3634 0 
L 628 0 
L 628 4666 
z
" transform="scale(0.015625)"/>
       <path id="DejaVuSans-6e" d="M 3513 2113 
L 3513 0 
L 2938 0 
L 2938 2094 
Q 2938 2591 2744 2837 
Q 2550 3084 2163 3084 
Q 1697 3084 1428 2787 
Q 1159 2491 1159 1978 
L 1159 0 
L 581 0 
L 581 3500 
L 1159 3500 
L 1159 2956 
Q 1366 3272 1645 3428 
Q 1925 3584 2291 3584 
Q 2894 3584 3203 3211 
Q 3513 2838 3513 2113 
z
" transform="scale(0.015625)"/>
       <path id="DejaVuSans-76" d="M 191 3500 
L 800 3500 
L 1894 563 
L 2988 3500 
L 3597 3500 
L 2284 0 
L 1503 0 
L 191 3500 
z
" transform="scale(0.015625)"/>
       <path id="DejaVuSans-20" transform="scale(0.015625)"/>
       <path id="DejaVuSans-73" d="M 2834 3397 
L 2834 2853 
Q 2591 2978 2328 3040 
Q 2066 3103 1784 3103 
Q 1356 3103 1142 2972 
Q 928 2841 928 2578 
Q 928 2378 1081 2264 
Q 1234 2150 1697 2047 
L 1894 2003 
Q 2506 1872 2764 1633 
Q 3022 1394 3022 966 
Q 3022 478 2636 193 
Q 2250 -91 1575 -91 
Q 1294 -91 989 -36 
Q 684 19 347 128 
L 347 722 
Q 666 556 975 473 
Q 1284 391 1588 391 
Q 1994 391 2212 530 
Q 2431 669 2431 922 
Q 2431 1156 2273 1281 
Q 2116 1406 1581 1522 
L 1381 1569 
Q 847 1681 609 1914 
Q 372 2147 372 2553 
Q 372 3047 722 3315 
Q 1072 3584 1716 3584 
Q 2034 3584 2315 3537 
Q 2597 3491 2834 3397 
z
" transform="scale(0.015625)"/>
       <path id="DejaVuSans-74" d="M 1172 4494 
L 1172 3500 
L 2356 3500 
L 2356 3053 
L 1172 3053 
L 1172 1153 
Q 1172 725 1289 603 
Q 1406 481 1766 481 
L 2356 481 
L 2356 0 
L 1766 0 
Q 1100 0 847 248 
Q 594 497 594 1153 
L 594 3053 
L 172 3053 
L 172 3500 
L 594 3500 
L 594 4494 
L 1172 4494 
z
" transform="scale(0.015625)"/>
       <path id="DejaVuSans-65" d="M 3597 1894 
L 3597 1613 
L 953 1613 
Q 991 1019 1311 708 
Q 1631 397 2203 397 
Q 2534 397 2845 478 
Q 3156 559 3463 722 
L 3463 178 
Q 3153 47 2828 -22 
Q 2503 -91 2169 -91 
Q 1331 -91 842 396 
Q 353 884 353 1716 
Q 353 2575 817 3079 
Q 1281 3584 2069 3584 
Q 2775 3584 3186 3129 
Q 3597 2675 3597 1894 
z
M 3022 2063 
Q 3016 2534 2758 2815 
Q 2500 3097 2075 3097 
Q 1594 3097 1305 2825 
Q 1016 2553 972 2059 
L 3022 2063 
z
" transform="scale(0.015625)"/>
       <path id="DejaVuSans-70" d="M 1159 525 
L 1159 -1331 
L 581 -1331 
L 581 3500 
L 1159 3500 
L 1159 2969 
Q 1341 3281 1617 3432 
Q 1894 3584 2278 3584 
Q 2916 3584 3314 3078 
Q 3713 2572 3713 1747 
Q 3713 922 3314 415 
Q 2916 -91 2278 -91 
Q 1894 -91 1617 61 
Q 1341 213 1159 525 
z
M 3116 1747 
Q 3116 2381 2855 2742 
Q 2594 3103 2138 3103 
Q 1681 3103 1420 2742 
Q 1159 2381 1159 1747 
Q 1159 1113 1420 752 
Q 1681 391 2138 391 
Q 2594 391 2855 752 
Q 3116 1113 3116 1747 
z
" transform="scale(0.015625)"/>
      </defs>
      <use xlink:href="#DejaVuSans-45"/>
      <use xlink:href="#DejaVuSans-6e" x="63.183594"/>
      <use xlink:href="#DejaVuSans-76" x="126.5625"/>
      <use xlink:href="#DejaVuSans-20" x="185.742188"/>
      <use xlink:href="#DejaVuSans-73" x="217.529297"/>
      <use xlink:href="#DejaVuSans-74" x="269.628906"/>
      <use xlink:href="#DejaVuSans-65" x="308.837891"/>
      <use xlink:href="#DejaVuSans-70" x="370.361328"/>
      <use xlink:href="#DejaVuSans-73" x="433.837891"/>
     </g>
    </g>
   </g>
   <g id="matplotlib.axis_2">
    <g id="ytick_1">
     <g id="line2d_10">
      <defs>
       <path id="m11a9cebc77" d="M 0 0 
L -3.5 0 
" style="stroke: #000000; stroke-width: 0.8"/>
      </defs>
      <g>
       <use xlink:href="#m11a9cebc77" x="40.603125" y="267.48923" style="stroke: #000000; stroke-width: 0.8"/>
      </g>
     </g>
     <g id="text_11">
      <!-- 25 -->
      <g transform="translate(20.878125 271.288449) scale(0.1 -0.1)">
       <use xlink:href="#DejaVuSans-32"/>
       <use xlink:href="#DejaVuSans-35" x="63.623047"/>
      </g>
     </g>
    </g>
    <g id="ytick_2">
     <g id="line2d_11">
      <g>
       <use xlink:href="#m11a9cebc77" x="40.603125" y="216.419852" style="stroke: #000000; stroke-width: 0.8"/>
      </g>
     </g>
     <g id="text_12">
      <!-- 30 -->
      <g transform="translate(20.878125 220.219071) scale(0.1 -0.1)">
       <defs>
        <path id="DejaVuSans-33" d="M 2597 2516 
Q 3050 2419 3304 2112 
Q 3559 1806 3559 1356 
Q 3559 666 3084 287 
Q 2609 -91 1734 -91 
Q 1441 -91 1130 -33 
Q 819 25 488 141 
L 488 750 
Q 750 597 1062 519 
Q 1375 441 1716 441 
Q 2309 441 2620 675 
Q 2931 909 2931 1356 
Q 2931 1769 2642 2001 
Q 2353 2234 1838 2234 
L 1294 2234 
L 1294 2753 
L 1863 2753 
Q 2328 2753 2575 2939 
Q 2822 3125 2822 3475 
Q 2822 3834 2567 4026 
Q 2313 4219 1838 4219 
Q 1578 4219 1281 4162 
Q 984 4106 628 3988 
L 628 4550 
Q 988 4650 1302 4700 
Q 1616 4750 1894 4750 
Q 2613 4750 3031 4423 
Q 3450 4097 3450 3541 
Q 3450 3153 3228 2886 
Q 3006 2619 2597 2516 
z
" transform="scale(0.015625)"/>
       </defs>
       <use xlink:href="#DejaVuSans-33"/>
       <use xlink:href="#DejaVuSans-30" x="63.623047"/>
      </g>
     </g>
    </g>
    <g id="ytick_3">
     <g id="line2d_12">
      <g>
       <use xlink:href="#m11a9cebc77" x="40.603125" y="165.350475" style="stroke: #000000; stroke-width: 0.8"/>
      </g>
     </g>
     <g id="text_13">
      <!-- 35 -->
      <g transform="translate(20.878125 169.149694) scale(0.1 -0.1)">
       <use xlink:href="#DejaVuSans-33"/>
       <use xlink:href="#DejaVuSans-35" x="63.623047"/>
      </g>
     </g>
    </g>
    <g id="ytick_4">
     <g id="line2d_13">
      <g>
       <use xlink:href="#m11a9cebc77" x="40.603125" y="114.281098" style="stroke: #000000; stroke-width: 0.8"/>
      </g>
     </g>
     <g id="text_14">
      <!-- 40 -->
      <g transform="translate(20.878125 118.080316) scale(0.1 -0.1)">
       <defs>
        <path id="DejaVuSans-34" d="M 2419 4116 
L 825 1625 
L 2419 1625 
L 2419 4116 
z
M 2253 4666 
L 3047 4666 
L 3047 1625 
L 3713 1625 
L 3713 1100 
L 3047 1100 
L 3047 0 
L 2419 0 
L 2419 1100 
L 313 1100 
L 313 1709 
L 2253 4666 
z
" transform="scale(0.015625)"/>
       </defs>
       <use xlink:href="#DejaVuSans-34"/>
       <use xlink:href="#DejaVuSans-30" x="63.623047"/>
      </g>
     </g>
    </g>
    <g id="ytick_5">
     <g id="line2d_14">
      <g>
       <use xlink:href="#m11a9cebc77" x="40.603125" y="63.21172" style="stroke: #000000; stroke-width: 0.8"/>
      </g>
     </g>
     <g id="text_15">
      <!-- 45 -->
      <g transform="translate(20.878125 67.010939) scale(0.1 -0.1)">
       <use xlink:href="#DejaVuSans-34"/>
       <use xlink:href="#DejaVuSans-35" x="63.623047"/>
      </g>
     </g>
    </g>
    <g id="ytick_6">
     <g id="line2d_15">
      <g>
       <use xlink:href="#m11a9cebc77" x="40.603125" y="12.142343" style="stroke: #000000; stroke-width: 0.8"/>
      </g>
     </g>
     <g id="text_16">
      <!-- 50 -->
      <g transform="translate(20.878125 15.941561) scale(0.1 -0.1)">
       <use xlink:href="#DejaVuSans-35"/>
       <use xlink:href="#DejaVuSans-30" x="63.623047"/>
      </g>
     </g>
    </g>
    <g id="text_17">
     <!-- Episode return (smoothed) -->
     <g transform="translate(14.798438 207.231781) rotate(-90) scale(0.1 -0.1)">
      <defs>
       <path id="DejaVuSans-69" d="M 603 3500 
L 1178 3500 
L 1178 0 
L 603 0 
L 603 3500 
z
M 603 4863 
L 1178 4863 
L 1178 4134 
L 603 4134 
L 603 4863 
z
" transform="scale(0.015625)"/>
       <path id="DejaVuSans-6f" d="M 1959 3097 
Q 1497 3097 1228 2736 
Q 959 2375 959 1747 
Q 959 1119 1226 758 
Q 1494 397 1959 397 
Q 2419 397 2687 759 
Q 2956 1122 2956 1747 
Q 2956 2369 2687 2733 
Q 2419 3097 1959 3097 
z
M 1959 3584 
Q 2709 3584 3137 3096 
Q 3566 2609 3566 1747 
Q 3566 888 3137 398 
Q 2709 -91 1959 -91 
Q 1206 -91 779 398 
Q 353 888 353 1747 
Q 353 2609 779 3096 
Q 1206 3584 1959 3584 
z
" transform="scale(0.015625)"/>
       <path id="DejaVuSans-64" d="M 2906 2969 
L 2906 4863 
L 3481 4863 
L 3481 0 
L 2906 0 
L 2906 525 
Q 2725 213 2448 61 
Q 2172 -91 1784 -91 
Q 1150 -91 751 415 
Q 353 922 353 1747 
Q 353 2572 751 3078 
Q 1150 3584 1784 3584 
Q 2172 3584 2448 3432 
Q 2725 3281 2906 2969 
z
M 947 1747 
Q 947 1113 1208 752 
Q 1469 391 1925 391 
Q 2381 391 2643 752 
Q 2906 1113 2906 1747 
Q 2906 2381 2643 2742 
Q 2381 3103 1925 3103 
Q 1469 3103 1208 2742 
Q 947 2381 947 1747 
z
" transform="scale(0.015625)"/>
       <path id="DejaVuSans-72" d="M 2631 2963 
Q 2534 3019 2420 3045 
Q 2306 3072 2169 3072 
Q 1681 3072 1420 2755 
Q 1159 2438 1159 1844 
L 1159 0 
L 581 0 
L 581 3500 
L 1159 3500 
L 1159 2956 
Q 1341 3275 1631 3429 
Q 1922 3584 2338 3584 
Q 2397 3584 2469 3576 
Q 2541 3569 2628 3553 
L 2631 2963 
z
" transform="scale(0.015625)"/>
       <path id="DejaVuSans-75" d="M 544 1381 
L 544 3500 
L 1119 3500 
L 1119 1403 
Q 1119 906 1312 657 
Q 1506 409 1894 409 
Q 2359 409 2629 706 
Q 2900 1003 2900 1516 
L 2900 3500 
L 3475 3500 
L 3475 0 
L 2900 0 
L 2900 538 
Q 2691 219 2414 64 
Q 2138 -91 1772 -91 
Q 1169 -91 856 284 
Q 544 659 544 1381 
z
M 1991 3584 
L 1991 3584 
z
" transform="scale(0.015625)"/>
       <path id="DejaVuSans-28" d="M 1984 4856 
Q 1566 4138 1362 3434 
Q 1159 2731 1159 2009 
Q 1159 1288 1364 580 
Q 1569 -128 1984 -844 
L 1484 -844 
Q 1016 -109 783 600 
Q 550 1309 550 2009 
Q 550 2706 781 3412 
Q 1013 4119 1484 4856 
L 1984 4856 
z
" transform="scale(0.015625)"/>
       <path id="DejaVuSans-6d" d="M 3328 2828 
Q 3544 3216 3844 3400 
Q 4144 3584 4550 3584 
Q 5097 3584 5394 3201 
Q 5691 2819 5691 2113 
L 5691 0 
L 5113 0 
L 5113 2094 
Q 5113 2597 4934 2840 
Q 4756 3084 4391 3084 
Q 3944 3084 3684 2787 
Q 3425 2491 3425 1978 
L 3425 0 
L 2847 0 
L 2847 2094 
Q 2847 2600 2669 2842 
Q 2491 3084 2119 3084 
Q 1678 3084 1418 2786 
Q 1159 2488 1159 1978 
L 1159 0 
L 581 0 
L 581 3500 
L 1159 3500 
L 1159 2956 
Q 1356 3278 1631 3431 
Q 1906 3584 2284 3584 
Q 2666 3584 2933 3390 
Q 3200 3197 3328 2828 
z
" transform="scale(0.015625)"/>
       <path id="DejaVuSans-68" d="M 3513 2113 
L 3513 0 
L 2938 0 
L 2938 2094 
Q 2938 2591 2744 2837 
Q 2550 3084 2163 3084 
Q 1697 3084 1428 2787 
Q 1159 2491 1159 1978 
L 1159 0 
L 581 0 
L 581 4863 
L 1159 4863 
L 1159 2956 
Q 1366 3272 1645 3428 
Q 1925 3584 2291 3584 
Q 2894 3584 3203 3211 
Q 3513 2838 3513 2113 
z
" transform="scale(0.015625)"/>
       <path id="DejaVuSans-29" d="M 513 4856 
L 1013 4856 
Q 1481 4119 1714 3412 
Q 1947 2706 1947 2009 
Q 1947 1309 1714 600 
Q 1481 -109 1013 -844 
L 513 -844 
Q 928 -128 1133 580 
Q 1338 1288 1338 2009 
Q 1338 2731 1133 3434 
Q 928 4138 513 4856 
z
" transform="scale(0.015625)"/>
      </defs>
      <use xlink:href="#DejaVuSans-45"/>
      <use xlink:href="#DejaVuSans-70" x="63.183594"/>
      <use xlink:href="#DejaVuSans-69" x="126.660156"/>
      <use xlink:href="#DejaVuSans-73" x="154.443359"/>
      <use xlink:href="#DejaVuSans-6f" x="206.542969"/>
      <use xlink:href="#DejaVuSans-64" x="267.724609"/>
      <use xlink:href="#DejaVuSans-65" x="331.201172"/>
      <use xlink:href="#DejaVuSans-20" x="392.724609"/>
      <use xlink:href="#DejaVuSans-72" x="424.511719"/>
      <use xlink:href="#DejaVuSans-65" x="463.375"/>
      <use xlink:href="#DejaVuSans-74" x="524.898438"/>
      <use xlink:href="#DejaVuSans-75" x="564.107422"/>
      <use xlink:href="#DejaVuSans-72" x="627.486328"/>
      <use xlink:href="#DejaVuSans-6e" x="666.849609"/>
      <use xlink:href="#DejaVuSans-20" x="730.228516"/>
      <use xlink:href="#DejaVuSans-28" x="762.015625"/>
      <use xlink:href="#DejaVuSans-73" x="801.029297"/>
      <use xlink:href="#DejaVuSans-6d" x="853.128906"/>
      <use xlink:href="#DejaVuSans-6f" x="950.541016"/>
      <use xlink:href="#DejaVuSans-6f" x="1011.722656"/>
      <use xlink:href="#DejaVuSans-74" x="1072.904297"/>
      <use xlink:href="#DejaVuSans-68" x="1112.113281"/>
      <use xlink:href="#DejaVuSans-65" x="1175.492188"/>
      <use xlink:href="#DejaVuSans-64" x="1237.015625"/>
      <use xlink:href="#DejaVuSans-29" x="1300.492188"/>
     </g>
    </g>
   </g>
   <g id="line2d_16">
    <path d="M 56.835852 171.197919 
L 62.531546 171.197919 
L 63.345217 172.303142 
L 64.158887 187.237447 
L 64.972558 204.609451 
L 65.786228 192.165034 
L 66.599899 190.06335 
L 67.413569 192.480058 
L 68.22724 185.296203 
L 69.04091 190.501087 
L 69.854581 192.799561 
L 71.481922 166.835135 
L 72.295593 170.574143 
L 73.109263 187.521208 
L 73.922934 189.511666 
L 74.736604 188.927728 
L 75.550275 210.420832 
L 76.363945 202.199431 
L 77.177616 218.253966 
L 77.991286 216.569605 
L 78.804957 209.29097 
L 79.618627 209.766274 
L 80.432298 210.034772 
L 81.245968 205.587385 
L 82.059639 189.958331 
L 82.87331 187.941155 
L 83.68698 180.047704 
L 84.500651 190.789169 
L 85.314321 197.128395 
L 86.127992 184.700873 
L 86.941662 175.773172 
L 87.755333 172.407169 
L 88.569003 167.368579 
L 89.382674 181.469967 
L 90.196344 192.786186 
L 91.010015 193.023358 
L 91.823685 189.051018 
L 92.637356 188.162359 
L 93.451027 192.382687 
L 94.264697 208.451334 
L 95.078368 212.195813 
L 95.892038 205.745393 
L 96.705709 189.598798 
L 97.519379 182.515129 
L 98.33305 178.037279 
L 99.14672 168.248566 
L 99.960391 166.657992 
L 100.774061 167.239946 
L 101.587732 170.013435 
L 102.401403 175.719798 
L 103.215073 177.260583 
L 104.028744 173.923251 
L 104.842414 174.208868 
L 105.656085 179.289151 
L 107.283426 201.371857 
L 108.097096 184.957084 
L 109.724437 180.471586 
L 110.538108 182.73595 
L 111.351778 177.433342 
L 112.165449 184.982171 
L 112.97912 185.343656 
L 113.79279 162.150575 
L 114.606461 173.459499 
L 115.420131 178.470985 
L 116.233802 190.401988 
L 117.047472 191.524107 
L 117.861143 197.03096 
L 118.674813 194.623564 
L 119.488484 186.079938 
L 120.302154 198.24213 
L 121.115825 198.886321 
L 122.743166 172.503356 
L 123.556837 165.898479 
L 124.370507 180.132916 
L 125.184178 191.688834 
L 125.997848 185.045752 
L 126.811519 164.850021 
L 127.625189 154.345312 
L 128.43886 161.917531 
L 129.25253 154.123243 
L 130.066201 158.724031 
L 131.693542 137.827824 
L 132.507212 141.599279 
L 133.320883 153.899127 
L 134.134554 153.016612 
L 134.948224 144.048689 
L 135.761895 147.439971 
L 137.389236 129.513979 
L 138.202906 128.550797 
L 139.016577 124.7436 
L 139.830247 124.121168 
L 140.643918 126.802854 
L 141.457588 137.363848 
L 143.08493 144.609172 
L 143.8986 150.88693 
L 144.712271 140.127482 
L 145.525941 138.791519 
L 146.339612 140.363982 
L 147.153282 134.971587 
L 147.966953 131.204772 
L 148.780623 133.428274 
L 149.594294 131.509717 
L 150.407964 125.927923 
L 151.221635 126.927936 
L 152.035305 135.580676 
L 152.848976 127.397128 
L 153.662647 126.624432 
L 154.476317 133.077604 
L 155.289988 126.845444 
L 156.917329 149.95469 
L 157.730999 153.413232 
L 158.54467 156.090054 
L 159.35834 163.817722 
L 160.172011 165.605854 
L 160.985681 140.01152 
L 161.799352 138.399475 
L 162.613022 123.14157 
L 163.426693 112.135128 
L 164.240364 118.818209 
L 165.867705 94.967561 
L 166.681375 101.338082 
L 167.495046 116.103052 
L 168.308716 122.205459 
L 169.122387 130.090238 
L 169.936057 126.842692 
L 170.749728 119.262154 
L 171.563398 116.434939 
L 172.377069 129.8922 
L 173.190739 131.757704 
L 174.00441 128.794784 
L 174.818081 124.196684 
L 175.631751 115.117503 
L 176.445422 114.624472 
L 177.259092 121.82279 
L 178.072763 125.696895 
L 178.886433 118.944058 
L 179.700104 100.207164 
L 180.513774 106.7587 
L 181.327445 108.803907 
L 182.141115 123.45701 
L 182.954786 135.038752 
L 183.768457 134.998274 
L 184.582127 134.28951 
L 185.395798 129.293799 
L 186.209468 129.656724 
L 187.023139 126.404347 
L 187.836809 125.321267 
L 188.65048 112.568737 
L 189.46415 105.357876 
L 190.277821 100.86633 
L 191.091491 99.676695 
L 191.905162 112.891601 
L 192.718832 131.532212 
L 193.532503 132.64793 
L 194.346174 130.13206 
L 195.159844 138.462416 
L 195.973515 144.525112 
L 196.787185 140.569252 
L 197.600856 131.185029 
L 198.414526 126.488407 
L 199.228197 120.208057 
L 200.041867 115.038339 
L 200.855538 114.701364 
L 201.669208 95.658086 
L 202.482879 90.39074 
L 203.296549 97.393837 
L 204.11022 114.001336 
L 204.923891 108.264318 
L 205.737561 103.9479 
L 206.551232 104.934249 
L 207.364902 100.250746 
L 208.178573 116.225574 
L 208.992243 128.807872 
L 209.805914 127.258767 
L 210.619584 121.988542 
L 211.433255 126.769384 
L 212.246925 135.641185 
L 213.060596 140.715644 
L 213.874266 143.378259 
L 214.687937 139.588342 
L 215.501608 137.502593 
L 216.315278 131.609744 
L 217.128949 134.993378 
L 217.942619 140.369486 
L 218.75629 123.982039 
L 219.56996 123.459282 
L 220.383631 135.37083 
L 221.197301 138.379156 
L 222.010972 133.799903 
L 222.824642 129.901991 
L 223.638313 118.176929 
L 224.451984 113.943291 
L 225.265654 111.465082 
L 226.079325 117.036892 
L 226.892995 109.372966 
L 227.706666 111.876133 
L 228.520336 113.797218 
L 229.334007 117.400873 
L 230.147677 144.877126 
L 230.961348 149.618227 
L 231.775018 171.203614 
L 232.588689 170.601501 
L 233.402359 179.582032 
L 234.21603 175.724502 
L 235.029701 172.580632 
L 235.843371 175.677465 
L 236.657042 155.484134 
L 237.470712 150.28808 
L 238.284383 153.631557 
L 239.098053 142.728085 
L 239.911724 140.481128 
L 240.725394 140.778745 
L 241.539065 154.720461 
L 242.352735 154.786409 
L 243.166406 145.997485 
L 243.980076 142.214639 
L 244.793747 130.763739 
L 245.607418 139.4711 
L 246.421088 137.764692 
L 247.234759 129.197292 
L 248.048429 115.195195 
L 248.8621 108.409591 
L 249.67577 117.130711 
L 250.489441 111.910851 
L 251.303111 98.656844 
L 252.930452 78.424219 
L 253.744123 67.739808 
L 254.557793 62.301687 
L 255.371464 64.306192 
L 256.185135 60.430007 
L 256.998805 76.852428 
L 257.812476 82.618083 
L 258.626146 84.374857 
L 259.439817 83.661742 
L 260.253487 87.894997 
L 261.067158 93.733417 
L 261.880828 102.63056 
L 262.694499 102.837909 
L 263.508169 92.355823 
L 264.32184 95.681477 
L 265.135511 86.047187 
L 266.762852 79.346859 
L 267.576522 85.551885 
L 268.390193 60.934077 
L 269.203863 55.220802 
L 270.017534 56.292555 
L 270.831204 56.817104 
L 271.644875 65.914269 
L 272.458545 63.856903 
L 273.272216 72.085024 
L 274.085886 67.664643 
L 275.713228 98.498804 
L 276.526898 100.305175 
L 278.154239 78.445818 
L 278.96791 86.349508 
L 280.595251 71.274602 
L 281.408921 83.134345 
L 283.036262 77.024867 
L 283.849933 96.251015 
L 284.663603 104.600539 
L 285.477274 110.903255 
L 287.104615 126.094571 
L 287.918286 107.883538 
L 288.731956 95.817694 
L 289.545627 90.720995 
L 290.359297 80.902556 
L 291.172968 87.40555 
L 291.986638 87.915251 
L 292.800309 98.543154 
L 293.613979 92.030112 
L 294.42765 93.601039 
L 295.24132 94.330346 
L 296.054991 110.555049 
L 297.682332 98.122983 
L 298.496003 94.214768 
L 299.309673 84.01814 
L 300.123344 85.548173 
L 300.937014 88.634863 
L 301.750685 96.017523 
L 302.564355 100.567818 
L 303.378026 115.55524 
L 304.191696 114.842861 
L 305.005367 113.077991 
L 305.819038 113.670089 
L 306.632708 100.289752 
L 307.446379 101.576022 
L 308.260049 97.938129 
L 309.07372 89.334411 
L 309.88739 83.070252 
L 310.701061 75.691751 
L 311.514731 79.247569 
L 312.328402 68.8937 
L 313.142072 78.679022 
L 313.955743 68.856614 
L 314.769413 67.151902 
L 315.583084 60.253824 
L 316.396755 65.763813 
L 317.210425 64.321679 
L 318.024096 61.225486 
L 318.837766 81.999203 
L 319.651437 79.600126 
L 320.465107 95.140928 
L 321.278778 102.308432 
L 322.092448 113.091047 
L 322.906119 116.609938 
L 323.719789 126.684621 
L 324.53346 132.022778 
L 325.34713 132.456228 
L 326.160801 133.786432 
L 326.974472 131.878466 
L 327.788142 127.308876 
L 328.601813 116.702797 
L 329.415483 108.362617 
L 330.229154 104.043031 
L 331.042824 98.487093 
L 332.670165 90.51963 
L 333.483836 94.3698 
L 334.297506 88.400891 
L 335.111177 90.043206 
L 335.924847 89.69052 
L 336.738518 104.817327 
L 337.552189 117.15327 
L 338.365859 117.468806 
L 339.17953 125.199257 
L 339.9932 126.002672 
L 340.806871 138.849436 
L 341.620541 136.182021 
L 342.434212 128.761954 
L 343.247882 124.114737 
L 344.061553 105.162782 
L 344.875223 106.480154 
L 345.688894 95.106978 
L 346.502565 86.864457 
L 347.316235 80.104933 
L 348.129906 89.565791 
L 348.943576 106.43382 
L 349.757247 101.893798 
L 350.570917 113.918748 
L 351.384588 110.36981 
L 352.198258 112.776951 
L 353.011929 116.825831 
L 354.63927 103.877824 
L 355.45294 103.901215 
L 356.266611 98.23005 
L 357.080282 87.00093 
L 358.707623 98.060075 
L 359.521293 87.138491 
L 360.334964 86.921511 
L 361.148634 87.259029 
L 361.962305 78.539829 
L 362.775975 86.861514 
L 363.589646 97.83119 
L 364.403316 87.605411 
L 365.216987 89.49741 
L 366.030657 89.965386 
L 366.844328 80.282043 
L 367.657999 80.724997 
L 368.471669 87.695167 
L 369.28534 86.43168 
L 370.09901 89.102774 
L 370.912681 95.585802 
L 371.726351 94.001851 
L 372.540022 97.656095 
L 373.353692 107.817045 
L 374.167363 115.253432 
L 374.981033 106.109517 
L 375.794704 111.642961 
L 376.608374 115.921173 
L 377.422045 105.529451 
L 378.235716 113.902589 
L 379.863057 101.236519 
L 380.676727 99.563421 
L 381.490398 104.016153 
L 381.490398 104.016153 
" clip-path="url(#p97493ef323)" style="fill: none; stroke: #1f77b4; stroke-width: 1.5; stroke-linecap: square"/>
   </g>
   <g id="patch_3">
    <path d="M 40.603125 273.312 
L 40.603125 7.2 
" style="fill: none; stroke: #000000; stroke-width: 0.8; stroke-linejoin: miter; stroke-linecap: square"/>
   </g>
   <g id="patch_4">
    <path d="M 397.723125 273.312 
L 397.723125 7.2 
" style="fill: none; stroke: #000000; stroke-width: 0.8; stroke-linejoin: miter; stroke-linecap: square"/>
   </g>
   <g id="patch_5">
    <path d="M 40.603125 273.312 
L 397.723125 273.312 
" style="fill: none; stroke: #000000; stroke-width: 0.8; stroke-linejoin: miter; stroke-linecap: square"/>
   </g>
   <g id="patch_6">
    <path d="M 40.603125 7.2 
L 397.723125 7.2 
" style="fill: none; stroke: #000000; stroke-width: 0.8; stroke-linejoin: miter; stroke-linecap: square"/>
   </g>
   <g id="legend_1">
    <g id="patch_7">
     <path d="M 338.791875 29.878125 
L 390.723125 29.878125 
Q 392.723125 29.878125 392.723125 27.878125 
L 392.723125 14.2 
Q 392.723125 12.2 390.723125 12.2 
L 338.791875 12.2 
Q 336.791875 12.2 336.791875 14.2 
L 336.791875 27.878125 
Q 336.791875 29.878125 338.791875 29.878125 
z
" style="fill: #ffffff; opacity: 0.8; stroke: #cccccc; stroke-linejoin: miter"/>
    </g>
    <g id="line2d_17">
     <path d="M 340.791875 20.298437 
L 350.791875 20.298437 
L 360.791875 20.298437 
" style="fill: none; stroke: #1f77b4; stroke-width: 1.5; stroke-linecap: square"/>
    </g>
    <g id="text_18">
     <!-- PPO -->
     <g transform="translate(368.791875 23.798437) scale(0.1 -0.1)">
      <defs>
       <path id="DejaVuSans-50" d="M 1259 4147 
L 1259 2394 
L 2053 2394 
Q 2494 2394 2734 2622 
Q 2975 2850 2975 3272 
Q 2975 3691 2734 3919 
Q 2494 4147 2053 4147 
L 1259 4147 
z
M 628 4666 
L 2053 4666 
Q 2838 4666 3239 4311 
Q 3641 3956 3641 3272 
Q 3641 2581 3239 2228 
Q 2838 1875 2053 1875 
L 1259 1875 
L 1259 0 
L 628 0 
L 628 4666 
z
" transform="scale(0.015625)"/>
       <path id="DejaVuSans-4f" d="M 2522 4238 
Q 1834 4238 1429 3725 
Q 1025 3213 1025 2328 
Q 1025 1447 1429 934 
Q 1834 422 2522 422 
Q 3209 422 3611 934 
Q 4013 1447 4013 2328 
Q 4013 3213 3611 3725 
Q 3209 4238 2522 4238 
z
M 2522 4750 
Q 3503 4750 4090 4092 
Q 4678 3434 4678 2328 
Q 4678 1225 4090 567 
Q 3503 -91 2522 -91 
Q 1538 -91 948 565 
Q 359 1222 359 2328 
Q 359 3434 948 4092 
Q 1538 4750 2522 4750 
z
" transform="scale(0.015625)"/>
      </defs>
      <use xlink:href="#DejaVuSans-50"/>
      <use xlink:href="#DejaVuSans-50" x="60.302734"/>
      <use xlink:href="#DejaVuSans-4f" x="120.605469"/>
     </g>
    </g>
   </g>
  </g>
 </g>
 <defs>
  <clipPath id="p97493ef323">
   <rect x="40.603125" y="7.2" width="357.12" height="266.112"/>
  </clipPath>
 </defs>
</svg>
